<?xml version="1.0" encoding="UTF-8"?>
<!DOCTYPE svg PUBLIC "-//W3C//DTD SVG 1.1//EN" "http://www.w3.org/Graphics/SVG/1.1/DTD/svg11.dtd">
<!-- Creator: CorelDRAW 2020 (64 Bit) -->
<svg xmlns="http://www.w3.org/2000/svg" xml:space="preserve" width="40.6196mm" height="7.9386mm" version="1.1" style="shape-rendering:geometricPrecision; text-rendering:geometricPrecision; image-rendering:optimizeQuality; fill-rule:evenodd; clip-rule:evenodd"
viewBox="0 0 3393.57 663.23"
 xmlns:xlink="http://www.w3.org/1999/xlink"
 xmlns:xodm="http://www.corel.com/coreldraw/odm/2003">
 <defs>
  <style type="text/css">
   <![CDATA[
    .fil0 {fill:white}
   ]]>
  </style>
 </defs>
 <g id="Camada_x0020_1">
  <metadata id="CorelCorpID_0Corel-Layer"/>
  <path class="fil0" d="M3183.12 195.29l17.02 -195.29 193.42 0c-5.7,65.17 -11.43,130.24 -17.09,195.29l-193.35 0zm-2948.76 0l-40.95 467.94 -193.42 0 57.8 -660.62c90.84,0 209.31,0 300.14,0 121.62,0 220.21,98.59 220.21,220.21 0,121.62 -98.59,220.2 -220.21,220.2l-90.2 0 16.85 -192.68 73.35 0c15.21,0 27.53,-12.32 27.53,-27.52 0,-15.21 -12.32,-27.53 -27.53,-27.53l-123.58 0zm1648.51 137.62c0,-182.42 -147.88,-330.3 -330.3,-330.3 -182.43,0 -330.31,147.88 -330.31,330.3 0,182.43 147.88,330.31 330.31,330.31 182.42,0 330.3,-147.88 330.3,-330.31zm-192.68 0c0,-76.01 -61.61,-137.62 -137.62,-137.62 -76.02,0 -137.63,61.61 -137.63,137.62 0,76.01 61.61,137.63 137.63,137.63 76.01,0 137.62,-61.62 137.62,-137.63zm-855.77 -137.62l-40.94 467.94 -193.42 0 57.8 -660.62c90.84,0 209.31,0 300.14,0 121.62,0 220.21,98.59 220.21,220.21 0,79.9 -42.57,149.86 -106.27,188.45l145.49 251.96 -222.49 0 -127.14 -220.21 16.86 -192.68 73.34 0c15.21,0 27.53,-12.32 27.53,-27.52 0,-15.21 -12.32,-27.53 -27.53,-27.53l-123.58 0zm2503.95 467.94l-196.03 0 35.98 -412.89 193.37 0c-11.86,137.52 -23.29,274.96 -33.33,412.89zm-1183.82 -467.94l-40.95 467.94 -193.42 0 57.8 -660.62c90.84,0 209.31,0 300.15,0 121.62,0 220.2,98.59 220.2,220.22 0,121.62 -98.58,220.2 -220.2,220.2l-90.21 0 16.86 -192.68 73.35 0c15.2,0 27.52,-12.32 27.52,-27.52 0,-15.21 -12.32,-27.53 -27.52,-27.53l-123.59 0zm616.58 0l-40.95 467.94 -193.42 0 57.8 -660.62c90.83,0 209.31,0 300.14,0 121.62,0 220.2,98.59 220.2,220.22 0,121.62 -98.58,220.2 -220.2,220.2l-90.21 0 16.86 -192.68 73.35 0c15.2,0 27.52,-12.32 27.52,-27.52 0,-15.21 -12.32,-27.53 -27.52,-27.53l-123.59 0z"/>
 </g>
</svg>
