<?xml version="1.0" encoding="UTF-8"?>
<!DOCTYPE svg PUBLIC "-//W3C//DTD SVG 1.1//EN" "http://www.w3.org/Graphics/SVG/1.1/DTD/svg11.dtd">
<!-- Creator: CorelDRAW 2020 (64 Bit) -->
<svg xmlns="http://www.w3.org/2000/svg" xml:space="preserve" width="40.6192mm" height="10.1422mm" version="1.1" style="shape-rendering:geometricPrecision; text-rendering:geometricPrecision; image-rendering:optimizeQuality; fill-rule:evenodd; clip-rule:evenodd"
viewBox="0 0 666.13 166.33"
 xmlns:xlink="http://www.w3.org/1999/xlink"
 xmlns:xodm="http://www.corel.com/coreldraw/odm/2003">
 <defs>
  <style type="text/css">
   <![CDATA[
    .fil0 {fill:white}
    .fil1 {fill:white;fill-rule:nonzero}
   ]]>
  </style>
 </defs>
 <g id="Camada_x0020_1">
  <metadata id="CorelCorpID_0Corel-Layer"/>
  <path class="fil0" d="M191.77 55.35l27.55 0 0 -14.5 -0.09 0c-0.06,-9.85 -3.62,-18.9 -9.5,-25.96 -0,-0 -0.01,-0.01 -0.01,-0.01 -1.68,-2.01 -3.54,-3.87 -5.56,-5.53 -0,-0 -0,-0 -0.01,-0 -0.25,-0.21 -0.51,-0.41 -0.76,-0.61 -0.01,-0 -0.01,-0.01 -0.02,-0.02 -0.25,-0.2 -0.51,-0.39 -0.76,-0.58 -0,-0 -0.01,-0.01 -0.02,-0.01 -0.26,-0.19 -0.52,-0.38 -0.78,-0.57 -0,0 -0,0 -0,-0 -0.27,-0.19 -0.53,-0.37 -0.81,-0.56 -0.02,-0.01 -0.03,-0.02 -0.05,-0.03 -1.35,-0.91 -2.76,-1.74 -4.21,-2.48 -0.01,-0 -0.02,-0.01 -0.03,-0.01 -0.58,-0.3 -1.17,-0.58 -1.76,-0.85 -0,-0 -0.01,-0 -0.01,-0.01 -0.3,-0.13 -0.59,-0.26 -0.89,-0.39 -0,0 -0.01,-0 -0.01,-0 -0.29,-0.12 -0.58,-0.24 -0.87,-0.36 -0,-0 -0.01,-0 -0.02,-0.01 -0.22,-0.09 -0.44,-0.17 -0.66,-0.25 -0.09,-0.03 -0.18,-0.07 -0.28,-0.1 -0.2,-0.07 -0.39,-0.14 -0.59,-0.21 -0.12,-0.04 -0.24,-0.09 -0.36,-0.13 -0.13,-0.04 -0.26,-0.08 -0.39,-0.13 -0.2,-0.06 -0.39,-0.13 -0.59,-0.19 -0.06,-0.02 -0.13,-0.04 -0.19,-0.06 -0.26,-0.08 -0.52,-0.16 -0.78,-0.23 -0,0 -0,0 -0,-0 -0.31,-0.09 -0.62,-0.17 -0.94,-0.25 -0,-0 -0.01,-0 -0.01,-0 -0.15,-0.04 -0.3,-0.07 -0.45,-0.11 -0.19,-0.05 -0.37,-0.1 -0.56,-0.14 -0,0 -0,0 -0,0 -0.32,-0.07 -0.64,-0.14 -0.96,-0.21 -0.01,-0 -0.02,-0 -0.03,-0.01 -0.32,-0.07 -0.65,-0.13 -0.97,-0.19 -0.01,-0 -0.02,-0 -0.03,-0 -0.33,-0.06 -0.66,-0.11 -0.99,-0.16 -0.01,-0 -0.02,-0 -0.02,-0 -0.33,-0.05 -0.66,-0.1 -1,-0.14 -0.01,-0 -0.01,-0 -0.02,-0 -0.34,-0.04 -0.67,-0.08 -1.01,-0.12 -0.01,0 -0.01,0 -0.02,-0 -0.34,-0.03 -0.68,-0.06 -1.02,-0.09 -0,0 -0.01,0 -0.01,-0 -0.34,-0.03 -0.69,-0.05 -1.03,-0.07 -0,0 -0,0 -0.01,0 -0.35,-0.02 -0.7,-0.03 -1.04,-0.04 -0,0 -0,0 -0,0 -0.35,-0.01 -0.7,-0.01 -1.05,-0.01 -22.64,0 -41.11,18.47 -41.11,41.11 0,0 0,0.32 0,0.32l0.02 0 0 27.54 -41.53 0.16 -0.02 56.08 -0 0c-0.2,7.32 -6.31,13.22 -13.67,13.22 -7.37,0 -13.39,-5.91 -13.6,-13.23l-0.01 0 0 -0.37 0 -56.03 -23 0 0 -0.03 -45.2 0 0 27.65 40.79 0 0 28.79 -0 0.01c0,22.65 18.44,41.11 41.09,41.11 0.35,0 0.7,-0 1.05,-0.01 0,0 0,0 0,0 0.35,-0.01 0.7,-0.02 1.04,-0.04 0,0 0,0 0.01,0 0.34,-0.02 0.69,-0.04 1.03,-0.07 0,-0 0.01,-0 0.01,-0 0.34,-0.03 0.68,-0.06 1.02,-0.09 0.01,0 0.01,-0 0.02,-0 0.09,-0.01 0.17,-0.02 0.26,-0.03 0.26,-0.03 0.52,-0.06 0.77,-0.09 0.33,-0.04 0.66,-0.09 1,-0.14 0.01,-0 0.02,-0 0.03,-0 0.33,-0.05 0.66,-0.11 0.98,-0.16 0,0 0.01,-0 0.01,-0 0.18,-0.03 0.37,-0.07 0.55,-0.1 0.15,-0.03 0.3,-0.06 0.44,-0.09 0.01,-0 0.02,-0 0.04,-0.01 0.32,-0.07 0.64,-0.14 0.96,-0.21 0.01,-0 0.01,-0 0.02,-0 0.15,-0.03 0.3,-0.07 0.45,-0.11 0.18,-0.04 0.36,-0.09 0.54,-0.13 0.12,-0.03 0.23,-0.06 0.35,-0.09 0.21,-0.06 0.42,-0.11 0.63,-0.17 0.13,-0.04 0.26,-0.08 0.38,-0.11 0.19,-0.06 0.38,-0.11 0.57,-0.17 0.19,-0.06 0.37,-0.12 0.56,-0.18 0.13,-0.04 0.27,-0.09 0.4,-0.13 0.18,-0.06 0.36,-0.13 0.54,-0.19 0.14,-0.05 0.27,-0.09 0.41,-0.14 0.2,-0.07 0.39,-0.15 0.59,-0.22 0.11,-0.04 0.23,-0.09 0.34,-0.13 0.21,-0.08 0.42,-0.17 0.64,-0.26 0.09,-0.04 0.19,-0.08 0.28,-0.12 0.22,-0.09 0.43,-0.19 0.64,-0.28 0.09,-0.04 0.18,-0.08 0.27,-0.12 0.22,-0.1 0.44,-0.2 0.65,-0.31 0.08,-0.04 0.16,-0.08 0.24,-0.11 0.22,-0.11 0.44,-0.22 0.66,-0.33 0.08,-0.04 0.16,-0.08 0.24,-0.12 0.24,-0.12 0.48,-0.25 0.71,-0.37 0.05,-0.03 0.1,-0.05 0.15,-0.08 0.25,-0.13 0.49,-0.27 0.74,-0.41 0.04,-0.02 0.09,-0.05 0.13,-0.07 0.25,-0.14 0.49,-0.29 0.73,-0.43 0.04,-0.02 0.08,-0.05 0.12,-0.07 0.53,-0.32 1.06,-0.66 1.58,-1.01 0.03,-0.02 0.05,-0.04 0.08,-0.05 0.26,-0.17 0.51,-0.35 0.77,-0.53 0.01,-0.01 0.02,-0.02 0.04,-0.02 0.25,-0.18 0.49,-0.35 0.73,-0.53 0.02,-0.02 0.04,-0.03 0.07,-0.05 0.21,-0.16 0.43,-0.32 0.64,-0.49 0.05,-0.04 0.1,-0.08 0.16,-0.12 0.22,-0.17 0.44,-0.35 0.66,-0.52 0.03,-0.03 0.07,-0.05 0.1,-0.08 0.75,-0.62 1.49,-1.26 2.19,-1.94 0,-0 0.01,-0 0.01,-0.01 0.23,-0.22 0.47,-0.45 0.7,-0.68 0,-0 0.01,-0 0.01,-0.01 0.69,-0.68 1.35,-1.39 1.99,-2.12 0.01,-0.01 0.02,-0.02 0.03,-0.03 0.19,-0.22 0.38,-0.44 0.57,-0.67 0.02,-0.03 0.05,-0.06 0.07,-0.09 0.2,-0.24 0.4,-0.49 0.6,-0.74 0,-0 0.01,-0.01 0.01,-0.01 0.19,-0.23 0.37,-0.47 0.55,-0.71 0.02,-0.03 0.04,-0.05 0.06,-0.08 2.17,-2.87 3.97,-6.04 5.33,-9.43 0,-0 0,-0.01 0.01,-0.01 1.86,-4.63 3.11,-9.67 3.15,-14.95l0 0 0 -29.06 13.84 0 0 68.55 27.35 0 0 -68.55 54.95 0 0 68.35 27.52 0 0 -68.35 82.43 0 0 -27.48 -82.43 0 0 -27.61c0,0 0,0 0,0 0,-7.51 6.16,-13.68 13.67,-13.68 7.51,0 13.65,6.23 13.65,13.74 -0,0 0,-0 0,-0.01l0 13.83 27.49 0 0.04 -13.83 -0.01 0c0,-22.65 -18.47,-41.11 -41.11,-41.11 -0.35,0 -0.7,0 -1.05,0.01 -0,0 -0,0 -0.01,0 -0.35,0.01 -0.7,0.02 -1.04,0.04 -0,0 -0.01,0 -0.01,0 -0.34,0.02 -0.69,0.04 -1.03,0.07 -0.01,0 -0.01,0 -0.02,0 -0.34,0.03 -0.68,0.05 -1.01,0.09 -0.01,0 -0.02,0 -0.02,0 -0.33,0.03 -0.67,0.07 -1,0.11 -0.01,0 -0.02,0 -0.03,0 -0.33,0.04 -0.66,0.09 -0.99,0.14 -0,0 -0,0 -0,0 -0.19,0.03 -0.38,0.06 -0.57,0.09 -0.15,0.03 -0.31,0.05 -0.46,0.08 -0.11,0.02 -0.23,0.04 -0.34,0.07 -0.22,0.04 -0.45,0.08 -0.67,0.13 -0.08,0.02 -0.17,0.04 -0.25,0.05 -0.25,0.05 -0.5,0.11 -0.75,0.16 -0.05,0.01 -0.09,0.02 -0.14,0.03 -0.28,0.07 -0.56,0.13 -0.83,0.2 -0.1,0.03 -0.21,0.06 -0.31,0.08 -0.23,0.06 -0.46,0.12 -0.68,0.18 -0.06,0.01 -0.11,0.03 -0.16,0.05 -0.26,0.08 -0.52,0.15 -0.78,0.23 -0.23,0.07 -0.46,0.15 -0.7,0.22 -0.08,0.02 -0.15,0.05 -0.23,0.07 -0.21,0.07 -0.42,0.15 -0.63,0.22 -0.11,0.04 -0.22,0.08 -0.33,0.12 -0.16,0.06 -0.31,0.12 -0.47,0.18 -0.16,0.06 -0.32,0.12 -0.48,0.18 -0.15,0.06 -0.29,0.12 -0.44,0.18 -0.16,0.07 -0.32,0.13 -0.48,0.2 -0.14,0.06 -0.29,0.12 -0.43,0.19 -0.16,0.07 -0.33,0.14 -0.5,0.22 -0.11,0.05 -0.22,0.1 -0.33,0.15 -0.19,0.09 -0.39,0.18 -0.58,0.27 -0.13,0.06 -0.27,0.13 -0.4,0.2 -0.15,0.08 -0.31,0.15 -0.46,0.23 -0.19,0.1 -0.37,0.19 -0.56,0.29 -0.1,0.05 -0.21,0.11 -0.31,0.16 -0.2,0.11 -0.39,0.22 -0.59,0.32 -0.09,0.05 -0.19,0.1 -0.28,0.16 -0.26,0.15 -0.51,0.29 -0.76,0.45 -0.02,0.01 -0.04,0.02 -0.06,0.03 -0.26,0.16 -0.53,0.32 -0.79,0.49 -0.02,0.01 -0.03,0.02 -0.05,0.03 -0.27,0.17 -0.53,0.34 -0.79,0.51 -0.01,0.01 -0.02,0.01 -0.03,0.02 -0.26,0.17 -0.52,0.35 -0.78,0.53 -0.01,0.01 -0.02,0.02 -0.03,0.02 -0.25,0.17 -0.49,0.35 -0.73,0.53 -0.02,0.02 -0.04,0.03 -0.07,0.05 -0.24,0.17 -0.47,0.35 -0.7,0.53 -0.03,0.02 -0.05,0.04 -0.08,0.06 -0.23,0.18 -0.45,0.36 -0.68,0.54 -0.03,0.02 -0.06,0.05 -0.09,0.07 -1,0.82 -1.97,1.68 -2.89,2.59 -0.01,0 -0.01,0.01 -0.02,0.02 -0.92,0.91 -1.81,1.87 -2.64,2.86 -0,0 -0.01,0.01 -0.02,0.02 -0.2,0.25 -0.41,0.49 -0.61,0.74 -0,0.01 -0.01,0.01 -0.01,0.02 -0.2,0.25 -0.39,0.49 -0.58,0.74 -0.01,0.01 -0.02,0.02 -0.03,0.03 -0.19,0.25 -0.37,0.5 -0.56,0.75 -0.01,0.01 -0.02,0.03 -0.03,0.04 -0.18,0.25 -0.36,0.51 -0.54,0.76 -0.01,0.01 -0.02,0.02 -0.03,0.04 -0.17,0.25 -0.34,0.5 -0.51,0.75 -0.01,0.02 -0.03,0.05 -0.04,0.07 -1.41,2.17 -2.63,4.48 -3.62,6.9 -0.01,0.03 -0.03,0.07 -0.04,0.1 -0.11,0.27 -0.22,0.55 -0.32,0.82 -0.01,0.03 -0.03,0.07 -0.04,0.1 -0.11,0.3 -0.22,0.6 -0.33,0.9 -0,0 -0,0.01 -0,0.01 -0.11,0.31 -0.21,0.62 -0.31,0.93 -0,0 -0,0.01 -0,0.02 -0.1,0.31 -0.2,0.62 -0.29,0.94 -0,0.01 -0,0.01 -0.01,0.02 -0.09,0.32 -0.18,0.64 -0.27,0.96 -0,0 -0,0 -0,0 -0.17,0.64 -0.33,1.29 -0.47,1.95 -0,0.01 -0,0.02 -0,0.02 -0.07,0.32 -0.13,0.64 -0.2,0.97 -0,0.01 -0,0.02 -0.01,0.03 -0.06,0.32 -0.12,0.64 -0.17,0.96 -0,0.01 -0,0.03 -0.01,0.04 -0.05,0.31 -0.1,0.62 -0.14,0.93 -0,0.03 -0.01,0.07 -0.01,0.11 -0.04,0.32 -0.08,0.63 -0.12,0.95 -0,0.01 -0,0.03 -0,0.05 -0.03,0.31 -0.06,0.61 -0.09,0.92 -0,0.05 -0.01,0.09 -0.01,0.14 -0.03,0.31 -0.05,0.63 -0.07,0.95 -0,0.02 -0,0.04 -0,0.06 -0.02,0.33 -0.03,0.66 -0.05,0.99 -0,0.02 -0,0.03 -0,0.05 -0.01,0.34 -0.02,0.67 -0.02,1.01 0,0.01 0,0.01 0,0.02l-0.13 0 0 28.11 -54.95 0 -0 -27.75c0,0 0,0 0,0 0,-7.52 6.23,-13.75 13.75,-13.75 7.52,0 13.66,6.13 13.66,13.64 0,0.2 -0.01,0.4 -0.01,0.6l0 13.63z"/>
  <path class="fil1" d="M357.86 4.63l7.25 0 0 19.39c0,3.08 0.09,5.07 0.27,5.98 0.31,1.47 1.03,2.65 2.18,3.53 1.16,0.89 2.73,1.33 4.73,1.33 2.02,0 3.56,-0.42 4.59,-1.26 1.03,-0.84 1.65,-1.86 1.86,-3.09 0.21,-1.22 0.32,-3.25 0.32,-6.08l0 -19.81 7.25 0 0 18.81c0,4.3 -0.19,7.34 -0.58,9.11 -0.39,1.77 -1.11,3.27 -2.16,4.5 -1.04,1.22 -2.44,2.19 -4.19,2.91 -1.76,0.72 -4.04,1.09 -6.86,1.09 -3.41,0 -5.99,-0.39 -7.75,-1.18 -1.76,-0.79 -3.15,-1.82 -4.17,-3.08 -1.02,-1.27 -1.69,-2.58 -2.01,-3.97 -0.48,-2.05 -0.71,-5.08 -0.71,-9.09l0 -19.11z"/>
  <path id="1" class="fil1" d="M417.48 40.4l-6.85 0 0 -13.22c0,-2.8 -0.15,-4.61 -0.44,-5.42 -0.3,-0.82 -0.78,-1.46 -1.44,-1.92 -0.67,-0.46 -1.47,-0.68 -2.4,-0.68 -1.2,0 -2.27,0.33 -3.22,0.97 -0.96,0.65 -1.61,1.52 -1.96,2.58 -0.36,1.07 -0.53,3.06 -0.53,5.95l0 11.73 -6.85 0 0 -25.93 6.35 0 0 3.81c2.27,-2.91 5.13,-4.36 8.59,-4.36 1.52,0 2.91,0.27 4.16,0.82 1.27,0.55 2.22,1.24 2.86,2.08 0.65,0.85 1.1,1.81 1.35,2.88 0.26,1.08 0.38,2.61 0.38,4.61l0 16.1z"/>
  <path id="2" class="fil1" d="M424.42 10.97l0 -6.35 6.85 0 0 6.35 -6.85 0zm0 29.43l0 -25.93 6.85 0 0 25.93 -6.85 0z"/>
  <path id="3" class="fil1" d="M445.43 40.4l-10.45 -25.93 7.2 0 4.88 13.23 1.42 4.42c0.37,-1.12 0.61,-1.86 0.71,-2.22 0.23,-0.73 0.48,-1.47 0.74,-2.2l4.95 -13.23 7.05 0 -10.3 25.93 -6.18 0z"/>
  <path id="4" class="fil1" d="M481.08 32.21l6.85 1.15c-0.87,2.51 -2.26,4.41 -4.16,5.73 -1.9,1.31 -4.27,1.96 -7.11,1.96 -4.5,0 -7.85,-1.47 -10,-4.42 -1.71,-2.37 -2.56,-5.35 -2.56,-8.95 0,-4.3 1.12,-7.67 3.37,-10.1 2.24,-2.44 5.08,-3.66 8.51,-3.66 3.85,0 6.89,1.27 9.12,3.82 2.22,2.55 3.29,6.45 3.19,11.72l-17.14 0c0.05,2.03 0.6,3.61 1.66,4.75 1.05,1.13 2.36,1.7 3.93,1.7 1.07,0 1.97,-0.29 2.7,-0.87 0.73,-0.58 1.28,-1.53 1.66,-2.82zm0.4 -6.95c-0.05,-1.99 -0.56,-3.51 -1.53,-4.54 -0.97,-1.04 -2.16,-1.56 -3.56,-1.56 -1.49,0 -2.72,0.55 -3.7,1.64 -0.97,1.09 -1.45,2.58 -1.43,4.46l10.22 0z"/>
  <path id="5" class="fil1" d="M500.43 40.4l-6.85 0 0 -25.93 6.34 0 0 3.68c1.09,-1.74 2.07,-2.88 2.95,-3.42 0.87,-0.54 1.86,-0.81 2.97,-0.81 1.57,0 3.07,0.43 4.52,1.29l-2.13 5.98c-1.16,-0.75 -2.23,-1.12 -3.22,-1.12 -0.97,0 -1.78,0.27 -2.45,0.79 -0.67,0.53 -1.19,1.48 -1.57,2.86 -0.38,1.38 -0.57,4.28 -0.57,8.69l0 7.99z"/>
  <path id="6" class="fil1" d="M510.88 33.11l6.9 -1.05c0.29,1.32 0.88,2.33 1.78,3.01 0.89,0.69 2.15,1.03 3.76,1.03 1.77,0 3.11,-0.32 4.01,-0.97 0.6,-0.46 0.9,-1.07 0.9,-1.84 0,-0.51 -0.17,-0.95 -0.49,-1.29 -0.34,-0.32 -1.11,-0.63 -2.29,-0.91 -5.54,-1.23 -9.04,-2.34 -10.53,-3.35 -2.06,-1.41 -3.08,-3.36 -3.08,-5.85 0,-2.26 0.89,-4.15 2.66,-5.68 1.77,-1.53 4.52,-2.3 8.25,-2.3 3.55,0 6.19,0.58 7.91,1.74 1.72,1.17 2.92,2.88 3.57,5.16l-6.45 1.2c-0.28,-1.02 -0.81,-1.8 -1.58,-2.34 -0.77,-0.54 -1.88,-0.81 -3.32,-0.81 -1.82,0 -3.11,0.25 -3.91,0.76 -0.52,0.36 -0.78,0.82 -0.78,1.39 0,0.49 0.22,0.91 0.68,1.25 0.62,0.46 2.76,1.1 6.43,1.93 3.66,0.83 6.22,1.85 7.67,3.06 1.44,1.22 2.16,2.92 2.16,5.11 0,2.37 -0.99,4.42 -2.98,6.13 -1.98,1.71 -4.92,2.56 -8.82,2.56 -3.53,0 -6.33,-0.72 -8.39,-2.14 -2.06,-1.42 -3.41,-3.36 -4.04,-5.81z"/>
  <path id="7" class="fil1" d="M541.12 10.97l0 -6.35 6.85 0 0 6.35 -6.85 0zm0 29.43l0 -25.93 6.85 0 0 25.93 -6.85 0z"/>
  <path id="8" class="fil1" d="M578.79 40.4l-6.34 0 0 -3.81c-1.06,1.48 -2.32,2.59 -3.76,3.34 -1.44,0.74 -2.9,1.12 -4.36,1.12 -2.99,0 -5.55,-1.2 -7.68,-3.6 -2.12,-2.41 -3.19,-5.76 -3.19,-10.06 0,-4.4 1.03,-7.75 3.11,-10.04 2.07,-2.29 4.69,-3.43 7.85,-3.43 2.9,0 5.41,1.21 7.53,3.61l0 -12.91 6.85 0 0 35.78zm-18.29 -13.47c0,2.77 0.38,4.78 1.14,6.02 1.11,1.8 2.65,2.7 4.63,2.7 1.57,0 2.92,-0.67 4.01,-2.02 1.11,-1.35 1.66,-3.36 1.66,-6.04 0,-2.99 -0.53,-5.14 -1.61,-6.45 -1.07,-1.32 -2.44,-1.97 -4.11,-1.97 -1.62,0 -2.98,0.65 -4.08,1.95 -1.09,1.3 -1.64,3.24 -1.64,5.82z"/>
  <path id="9" class="fil1" d="M590.63 22.47l-6.2 -1.1c0.7,-2.53 1.91,-4.4 3.61,-5.62 1.71,-1.22 4.25,-1.82 7.61,-1.82 3.06,0 5.34,0.36 6.84,1.08 1.49,0.72 2.55,1.64 3.16,2.76 0.61,1.12 0.92,3.16 0.92,6.14l-0.1 7.99c0,2.27 0.11,3.96 0.32,5.04 0.22,1.08 0.62,2.24 1.22,3.47l-6.8 0c-0.17,-0.45 -0.4,-1.12 -0.66,-2 -0.11,-0.41 -0.19,-0.68 -0.24,-0.8 -1.17,1.15 -2.42,2.01 -3.75,2.58 -1.33,0.58 -2.75,0.87 -4.26,0.87 -2.66,0 -4.75,-0.72 -6.29,-2.17 -1.53,-1.44 -2.3,-3.27 -2.3,-5.49 0,-1.46 0.35,-2.76 1.05,-3.91 0.7,-1.14 1.67,-2.02 2.94,-2.63 1.26,-0.61 3.07,-1.14 5.45,-1.6 3.2,-0.6 5.42,-1.17 6.65,-1.68l0 -0.69c0,-1.33 -0.32,-2.28 -0.97,-2.86 -0.66,-0.57 -1.89,-0.85 -3.7,-0.85 -1.22,0 -2.17,0.24 -2.86,0.73 -0.69,0.48 -1.24,1.34 -1.66,2.56zm9.19 5.55c-0.87,0.29 -2.26,0.64 -4.17,1.05 -1.9,0.41 -3.15,0.81 -3.73,1.19 -0.89,0.64 -1.34,1.44 -1.34,2.42 0,0.97 0.36,1.79 1.07,2.49 0.72,0.7 1.62,1.05 2.73,1.05 1.23,0 2.42,-0.41 3.54,-1.22 0.82,-0.62 1.37,-1.37 1.63,-2.27 0.17,-0.58 0.27,-1.7 0.27,-3.34l0 -1.36z"/>
  <path id="10" class="fil1" d="M637.11 40.4l-6.34 0 0 -3.81c-1.06,1.48 -2.32,2.59 -3.76,3.34 -1.44,0.74 -2.9,1.12 -4.36,1.12 -2.99,0 -5.55,-1.2 -7.68,-3.6 -2.12,-2.41 -3.19,-5.76 -3.19,-10.06 0,-4.4 1.03,-7.75 3.11,-10.04 2.07,-2.29 4.69,-3.43 7.85,-3.43 2.9,0 5.41,1.21 7.53,3.61l0 -12.91 6.85 0 0 35.78zm-18.29 -13.47c0,2.77 0.38,4.78 1.14,6.02 1.11,1.8 2.65,2.7 4.63,2.7 1.57,0 2.92,-0.67 4.01,-2.02 1.11,-1.35 1.66,-3.36 1.66,-6.04 0,-2.99 -0.53,-5.14 -1.61,-6.45 -1.08,-1.32 -2.44,-1.97 -4.11,-1.97 -1.62,0 -2.98,0.65 -4.08,1.95 -1.09,1.3 -1.64,3.24 -1.64,5.82z"/>
  <path id="11" class="fil1" d="M658.83 32.21l6.85 1.15c-0.87,2.51 -2.26,4.41 -4.16,5.73 -1.9,1.31 -4.27,1.96 -7.11,1.96 -4.5,0 -7.85,-1.47 -10,-4.42 -1.71,-2.37 -2.56,-5.35 -2.56,-8.95 0,-4.3 1.12,-7.67 3.37,-10.1 2.24,-2.44 5.08,-3.66 8.51,-3.66 3.85,0 6.89,1.27 9.12,3.82 2.22,2.55 3.29,6.45 3.19,11.72l-17.14 0c0.05,2.03 0.6,3.61 1.66,4.75 1.05,1.13 2.36,1.7 3.93,1.7 1.07,0 1.97,-0.29 2.7,-0.87 0.73,-0.58 1.28,-1.53 1.66,-2.82zm0.4 -6.95c-0.05,-1.99 -0.56,-3.51 -1.53,-4.54 -0.97,-1.04 -2.16,-1.56 -3.56,-1.56 -1.49,0 -2.72,0.55 -3.7,1.64 -0.97,1.09 -1.45,2.58 -1.43,4.46l10.22 0z"/>
  <polygon id="12" class="fil1" points="357.86,102.37 357.86,66.59 382.44,66.59 382.44,72.64 365.11,72.64 365.11,81.13 380.1,81.13 380.1,87.18 365.11,87.18 365.11,102.37 "/>
  <path id="13" class="fil1" d="M403.32 94.17l6.85 1.15c-0.87,2.51 -2.26,4.41 -4.16,5.73 -1.9,1.31 -4.27,1.96 -7.11,1.96 -4.5,0 -7.84,-1.47 -10,-4.42 -1.71,-2.37 -2.56,-5.35 -2.56,-8.95 0,-4.3 1.12,-7.67 3.37,-10.1 2.24,-2.44 5.08,-3.66 8.51,-3.66 3.85,0 6.89,1.27 9.12,3.82 2.22,2.55 3.29,6.45 3.19,11.72l-17.14 0c0.05,2.03 0.6,3.61 1.66,4.75 1.05,1.13 2.36,1.7 3.93,1.7 1.07,0 1.97,-0.29 2.7,-0.87 0.73,-0.58 1.28,-1.53 1.66,-2.82zm0.4 -6.95c-0.05,-1.99 -0.56,-3.51 -1.53,-4.54 -0.97,-1.04 -2.16,-1.56 -3.56,-1.56 -1.49,0 -2.72,0.55 -3.7,1.64 -0.97,1.09 -1.45,2.58 -1.43,4.46l10.22 0z"/>
  <path id="14" class="fil1" d="M439.91 102.37l-6.34 0 0 -3.81c-1.06,1.48 -2.32,2.59 -3.76,3.34 -1.44,0.74 -2.9,1.12 -4.36,1.12 -2.99,0 -5.55,-1.2 -7.68,-3.61 -2.12,-2.41 -3.19,-5.75 -3.19,-10.06 0,-4.4 1.03,-7.75 3.11,-10.04 2.07,-2.29 4.69,-3.43 7.85,-3.43 2.9,0 5.41,1.21 7.53,3.61l0 -12.91 6.85 0 0 35.78zm-18.29 -13.47c0,2.77 0.38,4.78 1.14,6.02 1.11,1.8 2.65,2.7 4.63,2.7 1.57,0 2.92,-0.67 4.01,-2.02 1.11,-1.35 1.66,-3.36 1.66,-6.04 0,-2.99 -0.53,-5.14 -1.61,-6.45 -1.07,-1.32 -2.44,-1.97 -4.11,-1.97 -1.62,0 -2.98,0.65 -4.08,1.95 -1.09,1.3 -1.64,3.24 -1.64,5.82z"/>
  <path id="15" class="fil1" d="M461.64 94.17l6.85 1.15c-0.87,2.51 -2.26,4.41 -4.16,5.73 -1.9,1.31 -4.27,1.96 -7.11,1.96 -4.5,0 -7.85,-1.47 -10,-4.42 -1.71,-2.37 -2.56,-5.35 -2.56,-8.95 0,-4.3 1.12,-7.67 3.37,-10.1 2.24,-2.44 5.08,-3.66 8.51,-3.66 3.85,0 6.89,1.27 9.12,3.82 2.22,2.55 3.29,6.45 3.19,11.72l-17.14 0c0.05,2.03 0.6,3.61 1.66,4.75 1.05,1.13 2.36,1.7 3.93,1.7 1.07,0 1.97,-0.29 2.7,-0.87 0.73,-0.58 1.28,-1.53 1.66,-2.82zm0.4 -6.95c-0.05,-1.99 -0.56,-3.51 -1.53,-4.54 -0.97,-1.04 -2.16,-1.56 -3.56,-1.56 -1.49,0 -2.72,0.55 -3.7,1.64 -0.97,1.09 -1.45,2.58 -1.43,4.46l10.22 0z"/>
  <path id="16" class="fil1" d="M480.98 102.37l-6.85 0 0 -25.93 6.34 0 0 3.68c1.09,-1.74 2.07,-2.88 2.95,-3.42 0.87,-0.54 1.87,-0.81 2.97,-0.81 1.57,0 3.07,0.43 4.52,1.29l-2.12 5.98c-1.16,-0.75 -2.23,-1.12 -3.22,-1.12 -0.97,0 -1.78,0.27 -2.45,0.79 -0.67,0.53 -1.19,1.48 -1.57,2.86 -0.38,1.38 -0.57,4.28 -0.57,8.69l0 7.99z"/>
  <path id="17" class="fil1" d="M498.98 84.43l-6.2 -1.1c0.7,-2.53 1.91,-4.4 3.61,-5.62 1.71,-1.22 4.25,-1.82 7.61,-1.82 3.06,0 5.34,0.36 6.84,1.08 1.49,0.72 2.55,1.64 3.16,2.76 0.61,1.12 0.92,3.16 0.92,6.14l-0.1 7.99c0,2.27 0.11,3.96 0.32,5.04 0.22,1.08 0.62,2.24 1.23,3.47l-6.8 0c-0.18,-0.45 -0.4,-1.12 -0.66,-2 -0.11,-0.41 -0.19,-0.68 -0.24,-0.8 -1.17,1.15 -2.41,2.01 -3.75,2.58 -1.33,0.58 -2.75,0.87 -4.26,0.87 -2.66,0 -4.75,-0.72 -6.29,-2.17 -1.53,-1.44 -2.3,-3.27 -2.3,-5.49 0,-1.46 0.35,-2.76 1.05,-3.91 0.7,-1.14 1.67,-2.02 2.94,-2.63 1.26,-0.61 3.07,-1.14 5.45,-1.6 3.2,-0.6 5.42,-1.17 6.65,-1.68l0 -0.69c0,-1.33 -0.32,-2.28 -0.98,-2.86 -0.66,-0.57 -1.89,-0.85 -3.7,-0.85 -1.23,0 -2.17,0.24 -2.86,0.73 -0.69,0.48 -1.24,1.34 -1.67,2.56zm9.2 5.55c-0.88,0.29 -2.27,0.64 -4.17,1.05 -1.9,0.41 -3.15,0.81 -3.73,1.19 -0.89,0.64 -1.34,1.44 -1.34,2.42 0,0.97 0.36,1.79 1.07,2.49 0.72,0.7 1.62,1.05 2.73,1.05 1.23,0 2.41,-0.41 3.54,-1.22 0.82,-0.62 1.37,-1.37 1.63,-2.27 0.18,-0.58 0.27,-1.7 0.27,-3.34l0 -1.36z"/>
  <polygon id="18" class="fil1" points="521.68,102.37 521.68,66.59 528.52,66.59 528.52,102.37 "/>
  <polygon id="19" class="fil1" points="357.86,164.33 357.86,128.56 382.44,128.56 382.44,134.6 365.11,134.6 365.11,143.1 380.1,143.1 380.1,149.14 365.11,149.14 365.11,164.33 "/>
  <polygon id="20" class="fil1" points="388.33,164.33 388.33,128.56 395.18,128.56 395.18,164.33 "/>
  <path id="21" class="fil1" d="M419.35 164.33l0 -3.88c-0.95,1.38 -2.19,2.48 -3.73,3.31 -1.54,0.82 -3.16,1.22 -4.87,1.22 -1.75,0 -3.32,-0.38 -4.7,-1.15 -1.39,-0.77 -2.39,-1.85 -3.01,-3.23 -0.62,-1.39 -0.93,-3.31 -0.93,-5.75l0 -16.45 6.85 0 0 11.94c0,3.66 0.12,5.89 0.38,6.71 0.25,0.82 0.71,1.48 1.38,1.96 0.67,0.48 1.52,0.72 2.55,0.72 1.17,0 2.22,-0.32 3.16,-0.97 0.93,-0.64 1.57,-1.44 1.91,-2.4 0.34,-0.96 0.52,-3.29 0.52,-7.01l0 -10.96 6.85 0 0 25.93 -6.35 0z"/>
  <path id="22" class="fil1" d="M432.24 138.4l6.3 0 0 3.54c2.26,-2.72 4.95,-4.09 8.07,-4.09 1.66,0 3.1,0.34 4.31,1.02 1.22,0.68 2.22,1.72 3,3.1 1.14,-1.38 2.37,-2.42 3.69,-3.1 1.32,-0.68 2.72,-1.02 4.22,-1.02 1.9,0 3.51,0.38 4.83,1.16 1.32,0.77 2.3,1.91 2.95,3.41 0.47,1.1 0.71,2.89 0.71,5.36l0 16.56 -6.85 0 0 -14.8c0,-2.57 -0.23,-4.23 -0.71,-4.97 -0.63,-0.97 -1.62,-1.47 -2.93,-1.47 -0.96,0 -1.86,0.29 -2.71,0.87 -0.84,0.59 -1.46,1.45 -1.83,2.57 -0.38,1.13 -0.56,2.91 -0.56,5.35l0 12.43 -6.85 0 0 -14.19c0,-2.52 -0.12,-4.15 -0.37,-4.87 -0.24,-0.73 -0.62,-1.28 -1.13,-1.64 -0.51,-0.36 -1.21,-0.53 -2.08,-0.53 -1.06,0 -2.01,0.28 -2.85,0.85 -0.85,0.58 -1.45,1.39 -1.82,2.46 -0.37,1.08 -0.55,2.86 -0.55,5.34l0 12.58 -6.85 0 0 -25.93z"/>
  <path id="23" class="fil1" d="M477.17 134.9l0 -6.35 6.85 0 0 6.35 -6.85 0zm0 29.43l0 -25.93 6.85 0 0 25.93 -6.85 0z"/>
  <path id="24" class="fil1" d="M514.64 164.33l-6.85 0 0 -13.22c0,-2.8 -0.15,-4.61 -0.44,-5.42 -0.3,-0.82 -0.78,-1.46 -1.44,-1.92 -0.67,-0.46 -1.47,-0.68 -2.4,-0.68 -1.2,0 -2.27,0.33 -3.22,0.97 -0.96,0.65 -1.61,1.52 -1.96,2.58 -0.36,1.07 -0.53,3.06 -0.53,5.95l0 11.73 -6.85 0 0 -25.93 6.35 0 0 3.81c2.27,-2.91 5.13,-4.36 8.59,-4.36 1.52,0 2.91,0.27 4.16,0.82 1.27,0.55 2.22,1.24 2.86,2.08 0.65,0.85 1.1,1.81 1.35,2.88 0.26,1.08 0.38,2.61 0.38,4.61l0 16.1z"/>
  <path id="25" class="fil1" d="M536.57 156.14l6.85 1.15c-0.87,2.51 -2.26,4.41 -4.16,5.73 -1.9,1.31 -4.27,1.96 -7.11,1.96 -4.5,0 -7.85,-1.47 -10,-4.42 -1.71,-2.37 -2.56,-5.35 -2.56,-8.95 0,-4.3 1.12,-7.67 3.36,-10.1 2.24,-2.44 5.08,-3.66 8.51,-3.66 3.85,0 6.89,1.27 9.12,3.82 2.22,2.55 3.29,6.45 3.19,11.72l-17.14 0c0.05,2.03 0.6,3.61 1.66,4.75 1.05,1.13 2.36,1.7 3.93,1.7 1.07,0 1.97,-0.29 2.7,-0.87 0.73,-0.58 1.28,-1.53 1.66,-2.82zm0.4 -6.95c-0.05,-1.99 -0.56,-3.51 -1.53,-4.54 -0.97,-1.04 -2.16,-1.56 -3.56,-1.56 -1.49,0 -2.72,0.55 -3.7,1.64 -0.97,1.09 -1.45,2.58 -1.43,4.46l10.22 0z"/>
  <path id="26" class="fil1" d="M572.95 164.33l-6.85 0 0 -13.22c0,-2.8 -0.15,-4.61 -0.44,-5.42 -0.3,-0.82 -0.78,-1.46 -1.44,-1.92 -0.67,-0.46 -1.47,-0.68 -2.4,-0.68 -1.2,0 -2.27,0.33 -3.22,0.97 -0.96,0.65 -1.61,1.52 -1.96,2.58 -0.36,1.07 -0.53,3.06 -0.53,5.95l0 11.73 -6.85 0 0 -25.93 6.35 0 0 3.81c2.27,-2.91 5.13,-4.36 8.59,-4.36 1.52,0 2.91,0.27 4.16,0.82 1.27,0.55 2.22,1.24 2.86,2.08 0.65,0.85 1.1,1.81 1.35,2.88 0.26,1.08 0.38,2.61 0.38,4.61l0 16.1z"/>
  <path id="27" class="fil1" d="M577.44 157.04l6.89 -1.05c0.29,1.33 0.88,2.33 1.78,3.02 0.89,0.69 2.15,1.03 3.76,1.03 1.77,0 3.11,-0.32 4.01,-0.97 0.6,-0.46 0.9,-1.08 0.9,-1.84 0,-0.52 -0.17,-0.95 -0.49,-1.29 -0.34,-0.32 -1.11,-0.63 -2.29,-0.91 -5.54,-1.23 -9.05,-2.34 -10.53,-3.35 -2.06,-1.41 -3.08,-3.36 -3.08,-5.85 0,-2.26 0.89,-4.15 2.66,-5.68 1.77,-1.53 4.52,-2.3 8.24,-2.3 3.55,0 6.19,0.58 7.91,1.74 1.73,1.17 2.92,2.88 3.57,5.16l-6.45 1.2c-0.27,-1.02 -0.81,-1.8 -1.58,-2.34 -0.78,-0.54 -1.88,-0.81 -3.32,-0.81 -1.82,0 -3.11,0.25 -3.9,0.76 -0.52,0.36 -0.78,0.82 -0.78,1.39 0,0.49 0.22,0.91 0.68,1.25 0.62,0.46 2.76,1.1 6.43,1.93 3.67,0.83 6.22,1.85 7.67,3.06 1.44,1.22 2.16,2.92 2.16,5.11 0,2.37 -0.99,4.42 -2.98,6.13 -1.98,1.71 -4.92,2.56 -8.82,2.56 -3.53,0 -6.33,-0.72 -8.39,-2.14 -2.06,-1.42 -3.41,-3.36 -4.04,-5.81z"/>
  <path id="28" class="fil1" d="M622.67 156.14l6.85 1.15c-0.87,2.51 -2.27,4.41 -4.16,5.73 -1.9,1.31 -4.27,1.96 -7.11,1.96 -4.51,0 -7.85,-1.47 -10,-4.42 -1.71,-2.37 -2.57,-5.35 -2.57,-8.95 0,-4.3 1.12,-7.67 3.37,-10.1 2.24,-2.44 5.08,-3.66 8.51,-3.66 3.85,0 6.89,1.27 9.12,3.82 2.22,2.55 3.29,6.45 3.19,11.72l-17.14 0c0.05,2.03 0.6,3.61 1.66,4.75 1.05,1.13 2.37,1.7 3.93,1.7 1.07,0 1.97,-0.29 2.7,-0.87 0.73,-0.58 1.28,-1.53 1.66,-2.82zm0.4 -6.95c-0.05,-1.99 -0.56,-3.51 -1.53,-4.54 -0.98,-1.04 -2.16,-1.56 -3.56,-1.56 -1.49,0 -2.72,0.55 -3.7,1.64 -0.97,1.09 -1.45,2.58 -1.43,4.46l10.22 0z"/>
 </g>
</svg>
