<?xml version="1.0" encoding="UTF-8"?>
<!DOCTYPE svg PUBLIC "-//W3C//DTD SVG 1.1//EN" "http://www.w3.org/Graphics/SVG/1.1/DTD/svg11.dtd">
<!-- Creator: CorelDRAW 2020 (64 Bit) -->
<svg xmlns="http://www.w3.org/2000/svg" xml:space="preserve" width="49.3758mm" height="37.8086mm" version="1.1" style="shape-rendering:geometricPrecision; text-rendering:geometricPrecision; image-rendering:optimizeQuality; fill-rule:evenodd; clip-rule:evenodd"
viewBox="0 0 405.34 310.38"
 xmlns:xlink="http://www.w3.org/1999/xlink"
 xmlns:xodm="http://www.corel.com/coreldraw/odm/2003">
 <defs>
  <style type="text/css">
   <![CDATA[
    .fil0 {fill:#0C71C3}
   ]]>
  </style>
 </defs>
 <g id="Camada_x0020_1">
  <metadata id="CorelCorpID_0Corel-Layer"/>
  <path class="fil0" d="M405.34 81.57l-0 46.32 -84.09 0 34.74 16.11 0 63.95c-1.96,-0.16 -3.08,-1.02 -4.7,-1.85l-134.28 -62.6c-1.73,-0.88 -2.77,-1.38 -4.82,-2.23 -5.01,-2.07 -6.55,-4.39 -9.44,-3.02l-47.81 22.22c-1.81,0.77 -2.94,1.48 -4.72,2.33l-14.44 6.71c-8.49,4.25 -20.37,9.11 -28.88,13.42l-23.99 11.25c-3.76,1.88 -31.48,15.05 -34.08,15.27l-0 -65.96 23.5 -10.75c1.52,-0.77 2.23,-1.02 3.84,-1.7 0.82,-0.35 1.28,-0.56 2.05,-0.97l1.83 -1.19 -80.06 0 -0 -48.34 80.06 0 -3.96 -2.09c-1.34,-0.54 -2.32,-1.06 -3.76,-1.78l-7.9 -3.68c-2.77,-1.23 -5.19,-2.47 -7.98,-3.6l-7.62 -3.45 0 -65.96 1.51 0 72.01 33.73c1.57,0.8 2.67,1.36 4.46,2.09l9.64 4.45c3.12,1.54 6.46,2.97 9.56,4.54l47.77 22.22c10.8,4.37 8.5,6.12 14,3.29l133.94 -62.43c3.19,-1.6 11.78,-5.81 14.26,-6.38l0 63.95c-9.08,4.36 -22.03,9.7 -30.72,14.1l-3.06 1.48c-0.3,0.15 -0.58,0.49 -0.65,0.36 -0.05,-0.1 -0.22,0.11 -0.32,0.18l84.09 0zm-202.92 -6.55l0 59.42c0,1.71 -2.27,2.11 -3.81,2.73 -6.16,2.48 -21.3,10.21 -28.42,13.37l-14.08 6.56c-1.62,0.8 -3.12,1.28 -4.88,2.17l-28.5 13.29c-1.81,0.77 -2.94,1.48 -4.72,2.33l-18.98 8.71c-3.31,1.59 -6.29,2.91 -9.55,4.54 -10.59,5.3 -28.26,12.57 -38.11,17.79l0 -60.42c3.11,-1.65 6.43,-2.93 9.57,-4.53l19.97 -9.23c1.77,-0.9 8.75,-4.24 10.24,-4.36l-89.12 -1.01 0 -43.3 89.12 0c-1.41,-1.93 -7.1,-3.78 -9.57,-5.03l-30.21 -14.1 0 -60.42c6.03,3.19 12.51,5.75 18.79,8.9l123.35 57.42c1.81,0.77 2.93,1.49 4.72,2.33 1.67,0.79 4.2,1.05 4.2,2.85z"/>
  <path class="fil0" d="M250.25 256.29c0,4.31 -0.08,8.34 2.88,11.72 6.54,7.45 19.78,4.97 19.78,-10.71 0,-18.5 -22.66,-17.65 -22.66,-1.01zm-110.27 38.77c0,3.27 0,6.1 1.92,8.66 7.62,10.15 18.18,-4 11.86,-14.88 -4.3,-7.41 -13.78,-3.36 -13.78,6.23zm109.77 3.02l7.05 0 -3.5 -10.6 -3.55 10.6zm4.03 -41.29c0,3.27 0,6.1 1.92,8.66 7.62,10.15 18.18,-4 11.86,-14.88 -4.3,-7.41 -13.78,-3.36 -13.78,6.23zm111.78 3.02l7.05 0 -3.32 -10.6 -3.73 10.6zm-188.82 -3.02c0,3.27 0,6.1 1.92,8.66 7.62,10.15 18.18,-4 11.86,-14.88 -4.3,-7.41 -13.78,-3.36 -13.78,6.23zm159.11 14.6l3.52 0 0 -27.19 -3.52 0 0 27.19zm-115.81 38.27l3.53 0 0 -27.19 -3.53 0 0 27.19zm-4.03 -38.27l15.11 0 0 -3.02 -11.58 0 0 -24.17 -3.53 0 0 27.19zm66.97 38.27l15.11 0 0 -3.02 -11.58 0 0 -24.17 -3.52 0 0 27.19zm-266.37 -62.44l7.55 0 0 24.17 3.53 0 0 -24.17 8.06 0 0 -3.02 -19.13 0 0 3.02zm76.03 8.56c0,9.59 1.6,16.11 12.08,16.11 5.34,0 8.04,-4.66 9.06,-9.06 -1.1,-0.53 -1.98,-0.88 -3.52,-1.01 -0.63,1.32 -1.83,7.05 -6.55,7.05 -12.13,0 -8.66,-27.8 3.03,-21.16 1.97,1.12 2.45,2.6 3.02,5.05 0.99,-0.48 2.33,-0.73 3.53,-1.01 -3.08,-13.2 -20.64,-9.36 -20.64,4.03zm85.6 38.27c0,9.59 1.6,16.11 12.08,16.11 5.34,0 8.04,-4.66 9.06,-9.06 -1.1,-0.53 -1.98,-0.88 -3.52,-1.01 -0.75,1.57 -0.99,3.26 -1.99,4.56 -3.57,4.63 -12.11,3.11 -12.11,-8.59 0,-4.71 1.35,-8.85 4.78,-10.34 4.27,-1.85 7.64,0.25 8.81,5.3 0.99,-0.48 2.33,-0.73 3.53,-1.01 -3.08,-13.2 -20.64,-9.36 -20.64,4.03zm-122.86 -22.66l17.62 0 0 -3.02 -14.1 0 0 -9.57 12.59 0 0 -3.02 -12.59 0 0 -8.56 13.6 0 0 -3.02 -17.12 0 0 27.19zm43.3 18.13c0,5.93 5.93,7.22 10.58,8.55 12.57,3.59 -4.71,16.92 -8.07,2.53l-3.02 0c0,13.44 18.63,11.95 18.63,2.01 0,-4.31 -0.54,-6.55 -6.21,-8.39 -2.78,-0.9 -8.39,-1.5 -8.39,-4.7 0,-5.71 9.98,-6.68 10.57,0.5l3.52 0c-0.25,-11.14 -17.62,-10.44 -17.62,-0.5zm193.35 -31.72c0,20.58 22.15,14.01 22.15,9.06l0 -9.57 -10.57 0 0 3.02 7.05 0c0,4.51 0.66,5.67 -2.32,7.25 -4.17,2.21 -8.46,1.19 -10.58,-1.9 -3.4,-4.94 -2.77,-14.7 2.09,-17.67 2.69,-1.64 6.17,-1.59 8.6,0.44 1.33,1.11 1.51,2.85 2.22,4.33 1.22,-0.28 2.02,-0.53 3.02,-1.01 -0.94,-11.32 -21.65,-12.35 -21.65,6.04zm66.03 13.62l3.96 -0.02c0.65,-2.79 1.85,-5.67 2.52,-8.56l9.06 0c1.21,2.53 1.81,6.03 3.02,8.56l4.03 0c-0.96,-4.12 -8.57,-22.92 -9.57,-27.19l-4.03 0 -8.99 27.21zm-115.81 38.27l3.96 -0.02c0.65,-2.79 1.85,-5.67 2.52,-8.56l9.06 0c1.21,2.53 1.81,6.03 3.02,8.56l4.03 0c-0.96,-4.12 -8.57,-22.92 -9.57,-27.19l-4.03 0 -8.99 27.21zm-108.33 -38.29l3.02 0 0 -20.14c1.2,0.88 2.18,3.21 2.99,4.56l5.9 10.21c1.06,1.93 2.2,3.28 2.69,5.37l4.03 0 0 -27.19 -3.53 0 0 19.64c-1.46,-1.07 -8.83,-14.84 -10.52,-17.68 -1.27,-2.14 -0.2,-1.96 -4.59,-1.96l0 27.19zm39.28 -15.11c0,4.31 -0.08,8.34 2.88,11.72 6.54,7.45 19.78,4.97 19.78,-10.71 0,-18.5 -22.66,-17.65 -22.66,-1.01zm-36.76 38.27c0,4.31 -0.08,8.34 2.88,11.72 6.54,7.45 19.78,4.97 19.78,-10.71 0,-18.5 -22.66,-17.66 -22.66,-1.01z"/>
 </g>
</svg>
