<?xml version="1.0" encoding="UTF-8"?>
<!DOCTYPE svg PUBLIC "-//W3C//DTD SVG 1.1//EN" "http://www.w3.org/Graphics/SVG/1.1/DTD/svg11.dtd">
<!-- Creator: CorelDRAW 2020 (64 Bit) -->
<svg xmlns="http://www.w3.org/2000/svg" xml:space="preserve" width="30.3259mm" height="23.2831mm" version="1.1" style="shape-rendering:geometricPrecision; text-rendering:geometricPrecision; image-rendering:optimizeQuality; fill-rule:evenodd; clip-rule:evenodd"
viewBox="0 0 279.59 214.66"
 xmlns:xlink="http://www.w3.org/1999/xlink"
 xmlns:xodm="http://www.corel.com/coreldraw/odm/2003">
 <defs>
  <style type="text/css">
   <![CDATA[
    .fil0 {fill:white}
    .fil1 {fill:white;fill-rule:nonzero}
   ]]>
  </style>
 </defs>
 <g id="Camada_x0020_1">
  <metadata id="CorelCorpID_0Corel-Layer"/>
  <path class="fil0" d="M-0 56.27l0 31.95 58 0 -23.97 11.11 0 44.11c1.35,-0.11 2.12,-0.7 3.24,-1.27l92.62 -43.18c1.19,-0.6 1.91,-0.95 3.33,-1.54 3.46,-1.43 4.52,-3.03 6.51,-2.08l32.98 15.33c1.25,0.53 2.03,1.02 3.25,1.61l9.96 4.63c5.86,2.93 14.05,6.28 19.92,9.26l16.55 7.76c2.59,1.3 21.72,10.38 23.51,10.53l0 -45.5 -16.21 -7.41c-1.05,-0.53 -1.54,-0.7 -2.65,-1.17 -0.56,-0.24 -0.88,-0.38 -1.42,-0.67l-1.26 -0.82 55.22 0 0 -33.34 -55.22 0 2.73 -1.44c0.92,-0.37 1.6,-0.73 2.59,-1.23l5.45 -2.54c1.91,-0.85 3.58,-1.7 5.5,-2.48l5.26 -2.38 0 -45.5 -1.04 0 -49.67 23.27c-1.08,0.55 -1.84,0.94 -3.08,1.44l-6.65 3.07c-2.15,1.06 -4.46,2.05 -6.59,3.13l-32.95 15.33c-7.45,3.02 -5.86,4.22 -9.66,2.27l-92.39 -43.07c-2.2,-1.1 -8.12,-4 -9.84,-4.4l0 44.11c6.27,3.01 15.2,6.69 21.19,9.72l2.11 1.02c0.21,0.1 0.4,0.34 0.45,0.25 0.03,-0.07 0.15,0.08 0.22,0.13l-58 0zm139.97 -4.51l0 40.98c0,1.18 1.56,1.46 2.63,1.88 4.25,1.71 14.69,7.04 19.6,9.23l9.72 4.53c1.12,0.55 2.15,0.89 3.37,1.5l19.66 9.17c1.25,0.53 2.03,1.02 3.25,1.61l13.09 6.01c2.28,1.1 4.34,2.01 6.59,3.13 7.31,3.66 19.49,8.67 26.29,12.27l0 -41.68c-2.15,-1.14 -4.44,-2.02 -6.6,-3.13l-13.78 -6.37c-1.22,-0.62 -6.04,-2.92 -7.06,-3.01l61.48 -0.7 0 -29.87 -61.48 0c0.97,-1.33 4.9,-2.61 6.6,-3.47l20.84 -9.72 0 -41.68c-4.16,2.2 -8.63,3.97 -12.96,6.14l-85.08 39.61c-1.25,0.53 -2.02,1.03 -3.25,1.61 -1.16,0.55 -2.9,0.72 -2.9,1.96z"/>
  <g>
   <path class="fil1" d="M175.04 184.5l-0.85 0.75 0 -0 -0.2 -0.24 -0.19 -0.24 -0.18 -0.24 -0.16 -0.25 -0.15 -0.25 -0.14 -0.25 -0.13 -0.25 -0.12 -0.26 -0.11 -0.26 -0.1 -0.26 -0.09 -0.26 -0.08 -0.26 -0.07 -0.26 -0.07 -0.27 -0.06 -0.27 -0.05 -0.27 -0.05 -0.27 -0.04 -0.27 -0.03 -0.27 -0.03 -0.27 -0.02 -0.27 -0.02 -0.27 -0.01 -0.27 -0.01 -0.27 -0.01 -0.27 -0.01 -0.27 -0 -0.28 -0 -0.28 -0 -0.28 0 -0.28 0 -0.28 0 -0.28 1.14 0 0 0.28 0 0.28 0 0.27 0 0.27 0 0.27 0 0.27 0.01 0.27 0.01 0.26 0.01 0.26 0.01 0.26 0.02 0.26 0.02 0.25 0.03 0.25 0.03 0.25 0.03 0.25 0.04 0.24 0.05 0.24 0.05 0.24 0.06 0.23 0.06 0.23 0.07 0.23 0.08 0.23 0.09 0.22 0.09 0.22 0.1 0.22 0.11 0.22 0.12 0.21 0.13 0.21 0.14 0.21 0.15 0.21 0.16 0.2 0.17 0.2 0 -0zm0 0c0.21,0.24 0.18,0.59 -0.05,0.8 -0.24,0.21 -0.59,0.18 -0.8,-0.05l0.85 -0.75zm12.65 -7.01l1.14 0 0 0 -0.03 1.02 -0.08 0.97 -0.13 0.92 -0.18 0.86 -0.22 0.82 -0.27 0.76 -0.31 0.71 -0.35 0.66 -0.39 0.61 -0.42 0.56 -0.45 0.51 -0.48 0.46 -0.51 0.41 -0.53 0.36 -0.55 0.31 -0.57 0.26 -0.59 0.21 -0.6 0.16 -0.6 0.11 -0.61 0.06 -0.61 0.01 -0.61 -0.04 -0.61 -0.09 -0.6 -0.14 -0.6 -0.18 -0.58 -0.23 -0.57 -0.27 -0.56 -0.32 -0.54 -0.36 -0.52 -0.41 -0.49 -0.45 -0.46 -0.49 0.85 -0.75 0.41 0.43 0.43 0.39 0.45 0.35 0.47 0.32 0.48 0.28 0.5 0.24 0.51 0.2 0.51 0.16 0.52 0.12 0.52 0.07 0.52 0.04 0.52 -0.01 0.52 -0.05 0.51 -0.09 0.51 -0.13 0.5 -0.17 0.48 -0.22 0.47 -0.26 0.45 -0.31 0.44 -0.35 0.41 -0.39 0.39 -0.44 0.37 -0.49 0.34 -0.54 0.31 -0.59 0.28 -0.64 0.24 -0.69 0.2 -0.74 0.16 -0.79 0.12 -0.85 0.07 -0.9 0.03 -0.96 0 0zm0 0c0,-0.31 0.25,-0.57 0.57,-0.57 0.31,0 0.57,0.25 0.57,0.57l-1.14 0zm-14.49 -0.69l-1.14 0 0 0 0.05 -1.09 0.14 -1.03 0.22 -0.97 0.3 -0.9 0.38 -0.84 0.45 -0.77 0.51 -0.7 0.56 -0.63 0.61 -0.56 0.66 -0.48 0.69 -0.41 0.73 -0.34 0.75 -0.26 0.77 -0.19 0.78 -0.11 0.79 -0.04 0.79 0.04 0.78 0.12 0.77 0.2 0.75 0.27 0.73 0.35 0.7 0.43 0.66 0.51 0.61 0.59 0.56 0.67 0.51 0.75 0.44 0.82 0.38 0.9 0.3 0.98 0.22 1.05 0.14 1.13 0.05 1.2 -1.14 0 -0.04 -1.11 -0.12 -1.03 -0.2 -0.95 -0.27 -0.87 -0.33 -0.8 -0.39 -0.72 -0.44 -0.65 -0.49 -0.58 -0.53 -0.51 -0.56 -0.44 -0.59 -0.37 -0.62 -0.3 -0.64 -0.23 -0.66 -0.17 -0.67 -0.1 -0.68 -0.04 -0.68 0.03 -0.67 0.1 -0.66 0.16 -0.64 0.22 -0.62 0.29 -0.6 0.35 -0.57 0.41 -0.53 0.48 -0.49 0.54 -0.44 0.6 -0.39 0.67 -0.33 0.73 -0.27 0.8 -0.2 0.86 -0.12 0.93 -0.04 1 0 0zm0 0c0,0.31 -0.25,0.57 -0.57,0.57 -0.31,0 -0.57,-0.25 -0.57,-0.57l1.14 0zm3.95 29.4l-4.86 0 0 -1.14 4.86 0 0.54 0.39 -0.54 0.75zm0 -1.14c0.31,0 0.57,0.25 0.57,0.57 0,0.31 -0.25,0.57 -0.57,0.57l0 -1.14zm-1.95 -7.09l2.49 7.48 -1.08 0.36 -2.49 -7.48 -0 -0.35 1.08 -0.01zm-1.08 0.36c-0.1,-0.3 0.06,-0.62 0.36,-0.72 0.3,-0.1 0.62,0.06 0.72,0.36l-1.08 0.36zm-2.37 7.13l2.37 -7.48 1.08 0.34 -2.37 7.48 -0.54 0.4 -0.54 -0.74zm1.08 0.34c-0.09,0.3 -0.41,0.46 -0.71,0.37 -0.3,-0.09 -0.46,-0.41 -0.37,-0.71l1.08 0.34zm-74.48 3.38l-0.91 0.68 0 0 -0.13 -0.18 -0.12 -0.18 -0.12 -0.19 -0.11 -0.19 -0.1 -0.19 -0.09 -0.19 -0.09 -0.19 -0.08 -0.19 -0.07 -0.19 -0.07 -0.19 -0.06 -0.19 -0.06 -0.19 -0.05 -0.2 -0.04 -0.2 -0.04 -0.2 -0.04 -0.2 -0.03 -0.2 -0.03 -0.2 -0.02 -0.2 -0.02 -0.2 -0.02 -0.2 -0.01 -0.2 -0.01 -0.2 -0.01 -0.2 -0.01 -0.2 -0.01 -0.2 -0 -0.21 -0 -0.21 -0 -0.21 -0 -0.21 0 -0.21 0 -0.21 1.14 0 0 0.21 0 0.21 0 0.2 0 0.2 0 0.2 0 0.2 0.01 0.2 0.01 0.19 0.01 0.19 0.01 0.19 0.01 0.19 0.02 0.18 0.02 0.18 0.02 0.18 0.02 0.18 0.03 0.18 0.03 0.17 0.03 0.17 0.04 0.17 0.04 0.17 0.05 0.16 0.05 0.16 0.06 0.16 0.06 0.16 0.07 0.16 0.07 0.16 0.08 0.15 0.08 0.15 0.09 0.15 0.1 0.15 0.1 0.15 0.11 0.15 0 0zm0 0c0.19,0.25 0.14,0.61 -0.11,0.8 -0.25,0.19 -0.61,0.14 -0.8,-0.11l0.91 -0.68zm7.24 -9.64l0.98 -0.57 0 0 0.4 0.75 0.33 0.76 0.26 0.77 0.2 0.77 0.13 0.77 0.08 0.77 0.02 0.76 -0.04 0.75 -0.08 0.73 -0.13 0.71 -0.18 0.69 -0.22 0.66 -0.26 0.64 -0.3 0.6 -0.34 0.57 -0.37 0.53 -0.41 0.48 -0.44 0.44 -0.47 0.39 -0.49 0.33 -0.52 0.27 -0.54 0.21 -0.56 0.14 -0.58 0.06 -0.59 -0.02 -0.59 -0.11 -0.59 -0.19 -0.59 -0.28 -0.58 -0.37 -0.56 -0.46 -0.55 -0.55 -0.53 -0.65 0.91 -0.68 0.47 0.57 0.47 0.47 0.47 0.38 0.46 0.3 0.46 0.22 0.45 0.15 0.44 0.08 0.43 0.02 0.43 -0.04 0.42 -0.1 0.41 -0.16 0.41 -0.21 0.4 -0.27 0.38 -0.32 0.37 -0.37 0.34 -0.41 0.32 -0.45 0.3 -0.49 0.27 -0.53 0.23 -0.56 0.2 -0.59 0.16 -0.61 0.12 -0.63 0.08 -0.65 0.03 -0.66 -0.02 -0.67 -0.07 -0.68 -0.12 -0.69 -0.18 -0.69 -0.23 -0.68 -0.29 -0.68 -0.35 -0.67 0 0zm0 0c-0.16,-0.27 -0.06,-0.62 0.21,-0.78 0.27,-0.16 0.62,-0.06 0.78,0.21l-0.98 0.57zm-8.45 4.01l-1.14 0 0 0 0.02 -0.64 0.06 -0.62 0.1 -0.6 0.13 -0.57 0.17 -0.55 0.2 -0.52 0.23 -0.49 0.25 -0.47 0.28 -0.44 0.31 -0.41 0.33 -0.38 0.35 -0.34 0.37 -0.31 0.38 -0.28 0.4 -0.24 0.41 -0.2 0.43 -0.17 0.44 -0.13 0.44 -0.09 0.45 -0.05 0.45 -0.01 0.45 0.04 0.45 0.08 0.44 0.13 0.43 0.17 0.42 0.22 0.41 0.27 0.39 0.31 0.38 0.36 0.36 0.4 0.34 0.45 0.31 0.49 -0.98 0.57 -0.26 -0.42 -0.28 -0.37 -0.29 -0.33 -0.3 -0.29 -0.31 -0.25 -0.32 -0.21 -0.33 -0.17 -0.33 -0.13 -0.34 -0.1 -0.34 -0.06 -0.34 -0.03 -0.34 0 -0.34 0.04 -0.34 0.07 -0.34 0.1 -0.33 0.13 -0.33 0.16 -0.32 0.19 -0.31 0.22 -0.3 0.25 -0.29 0.28 -0.27 0.31 -0.26 0.34 -0.24 0.37 -0.22 0.4 -0.19 0.42 -0.17 0.45 -0.14 0.47 -0.11 0.5 -0.08 0.53 -0.05 0.55 -0.02 0.57 0 0zm0 0c0,0.31 -0.25,0.57 -0.57,0.57 -0.31,0 -0.57,-0.25 -0.57,-0.57l1.14 0zm26.56 -20.77l-0.91 0.68 0 0 -0.13 -0.18 -0.12 -0.18 -0.12 -0.19 -0.11 -0.19 -0.1 -0.19 -0.09 -0.19 -0.09 -0.19 -0.08 -0.19 -0.07 -0.19 -0.07 -0.19 -0.06 -0.19 -0.06 -0.19 -0.05 -0.2 -0.04 -0.19 -0.04 -0.2 -0.04 -0.2 -0.03 -0.2 -0.03 -0.2 -0.02 -0.2 -0.02 -0.2 -0.02 -0.2 -0.01 -0.2 -0.01 -0.2 -0.01 -0.2 -0.01 -0.2 -0.01 -0.2 -0 -0.21 -0 -0.21 -0 -0.21 -0 -0.21 0 -0.21 0 -0.21 1.14 0 0 0.21 0 0.21 0 0.2 0 0.2 0 0.2 0 0.2 0.01 0.2 0.01 0.19 0.01 0.19 0.01 0.19 0.01 0.19 0.02 0.18 0.02 0.18 0.02 0.18 0.02 0.18 0.03 0.18 0.03 0.17 0.04 0.17 0.04 0.17 0.04 0.17 0.05 0.16 0.05 0.16 0.06 0.16 0.06 0.16 0.07 0.16 0.07 0.16 0.08 0.15 0.08 0.15 0.09 0.15 0.1 0.15 0.1 0.15 0.11 0.15 0 0zm0 0c0.19,0.25 0.14,0.61 -0.11,0.8 -0.25,0.19 -0.61,0.14 -0.8,-0.11l0.91 -0.68zm7.24 -9.64l0.98 -0.57 0 0 0.4 0.75 0.33 0.76 0.26 0.77 0.2 0.77 0.13 0.77 0.08 0.77 0.02 0.76 -0.04 0.74 -0.08 0.73 -0.13 0.71 -0.18 0.69 -0.22 0.66 -0.26 0.63 -0.3 0.6 -0.34 0.57 -0.37 0.53 -0.41 0.48 -0.44 0.44 -0.47 0.39 -0.5 0.33 -0.52 0.27 -0.54 0.21 -0.56 0.14 -0.58 0.06 -0.59 -0.02 -0.6 -0.11 -0.59 -0.19 -0.59 -0.28 -0.58 -0.37 -0.56 -0.46 -0.55 -0.55 -0.53 -0.65 0.91 -0.68 0.47 0.57 0.47 0.47 0.47 0.38 0.46 0.3 0.45 0.22 0.45 0.15 0.44 0.08 0.43 0.01 0.43 -0.04 0.42 -0.1 0.41 -0.16 0.41 -0.21 0.4 -0.27 0.38 -0.32 0.37 -0.37 0.34 -0.41 0.32 -0.45 0.3 -0.49 0.27 -0.53 0.23 -0.56 0.2 -0.59 0.16 -0.61 0.12 -0.63 0.08 -0.65 0.03 -0.66 -0.02 -0.68 -0.07 -0.68 -0.12 -0.69 -0.18 -0.69 -0.23 -0.68 -0.29 -0.68 -0.35 -0.67 0 0zm0 0c-0.16,-0.27 -0.06,-0.62 0.21,-0.78 0.27,-0.16 0.62,-0.06 0.78,0.21l-0.98 0.57zm-8.45 4.01l-1.14 0 0 0 0.02 -0.64 0.06 -0.62 0.1 -0.6 0.13 -0.57 0.17 -0.55 0.2 -0.52 0.23 -0.49 0.25 -0.47 0.28 -0.44 0.31 -0.41 0.33 -0.38 0.35 -0.34 0.37 -0.31 0.38 -0.28 0.4 -0.24 0.41 -0.2 0.43 -0.17 0.44 -0.13 0.44 -0.09 0.45 -0.05 0.45 -0 0.45 0.04 0.45 0.08 0.44 0.13 0.43 0.17 0.42 0.22 0.41 0.27 0.39 0.31 0.38 0.36 0.36 0.4 0.34 0.45 0.31 0.49 -0.98 0.57 -0.26 -0.42 -0.28 -0.37 -0.29 -0.33 -0.3 -0.29 -0.31 -0.25 -0.32 -0.21 -0.33 -0.17 -0.33 -0.13 -0.34 -0.1 -0.34 -0.06 -0.34 -0.03 -0.34 0 -0.34 0.04 -0.34 0.07 -0.34 0.1 -0.33 0.13 -0.33 0.16 -0.32 0.19 -0.31 0.22 -0.3 0.25 -0.29 0.28 -0.27 0.31 -0.26 0.34 -0.24 0.37 -0.22 0.4 -0.19 0.42 -0.17 0.45 -0.14 0.47 -0.11 0.5 -0.08 0.53 -0.05 0.55 -0.02 0.57 0 0zm0 0c0,0.31 -0.25,0.57 -0.57,0.57 -0.31,0 -0.57,-0.25 -0.57,-0.57l1.14 0zm54.35 5.63l-0.91 0.68 0 0 -0.13 -0.18 -0.12 -0.18 -0.11 -0.18 -0.11 -0.19 -0.1 -0.19 -0.09 -0.19 -0.09 -0.19 -0.08 -0.19 -0.07 -0.19 -0.07 -0.19 -0.06 -0.19 -0.06 -0.19 -0.05 -0.2 -0.04 -0.2 -0.04 -0.2 -0.04 -0.2 -0.03 -0.2 -0.03 -0.2 -0.02 -0.2 -0.02 -0.2 -0.02 -0.2 -0.01 -0.2 -0.01 -0.2 -0.01 -0.2 -0.01 -0.2 -0.01 -0.2 -0 -0.21 -0 -0.21 -0 -0.21 -0 -0.21 0 -0.21 0 -0.21 1.14 0 0 0.21 0 0.21 0 0.2 0 0.2 0 0.2 0 0.2 0.01 0.2 0.01 0.19 0.01 0.19 0.01 0.19 0.01 0.19 0.02 0.18 0.02 0.18 0.02 0.18 0.02 0.18 0.03 0.18 0.03 0.17 0.03 0.17 0.04 0.17 0.04 0.17 0.05 0.16 0.05 0.16 0.06 0.16 0.06 0.16 0.07 0.16 0.07 0.15 0.08 0.16 0.08 0.15 0.09 0.15 0.1 0.15 0.1 0.15 0.11 0.15 0 0zm0 0c0.19,0.25 0.14,0.61 -0.11,0.8 -0.25,0.19 -0.61,0.14 -0.8,-0.11l0.91 -0.68zm7.24 -9.64l0.98 -0.57 0 0 0.4 0.75 0.33 0.76 0.26 0.77 0.2 0.77 0.13 0.77 0.08 0.77 0.02 0.76 -0.04 0.74 -0.08 0.73 -0.13 0.71 -0.18 0.69 -0.22 0.66 -0.26 0.63 -0.3 0.6 -0.34 0.57 -0.37 0.53 -0.41 0.48 -0.44 0.44 -0.47 0.39 -0.5 0.33 -0.52 0.27 -0.54 0.21 -0.56 0.14 -0.58 0.06 -0.59 -0.02 -0.6 -0.11 -0.59 -0.19 -0.59 -0.28 -0.58 -0.37 -0.56 -0.46 -0.55 -0.55 -0.53 -0.65 0.91 -0.68 0.47 0.57 0.47 0.47 0.47 0.38 0.46 0.3 0.45 0.22 0.45 0.15 0.44 0.08 0.43 0.01 0.43 -0.04 0.42 -0.1 0.41 -0.16 0.41 -0.21 0.4 -0.27 0.38 -0.32 0.37 -0.37 0.34 -0.41 0.32 -0.45 0.3 -0.49 0.27 -0.53 0.23 -0.56 0.2 -0.59 0.16 -0.61 0.12 -0.63 0.08 -0.65 0.03 -0.66 -0.02 -0.68 -0.07 -0.68 -0.12 -0.69 -0.18 -0.69 -0.23 -0.68 -0.29 -0.68 -0.35 -0.67 0 0zm0 0c-0.16,-0.27 -0.06,-0.62 0.21,-0.78 0.27,-0.16 0.62,-0.06 0.78,0.21l-0.98 0.57zm-8.45 4.01l-1.14 0 0 0 0.02 -0.64 0.06 -0.62 0.1 -0.6 0.13 -0.57 0.17 -0.55 0.2 -0.52 0.23 -0.49 0.25 -0.47 0.28 -0.44 0.31 -0.41 0.33 -0.38 0.35 -0.34 0.37 -0.31 0.38 -0.28 0.4 -0.24 0.41 -0.2 0.43 -0.17 0.44 -0.13 0.44 -0.09 0.45 -0.05 0.45 -0 0.45 0.04 0.45 0.08 0.44 0.13 0.43 0.17 0.42 0.22 0.41 0.27 0.39 0.31 0.38 0.36 0.36 0.4 0.34 0.45 0.31 0.49 -0.98 0.57 -0.26 -0.42 -0.28 -0.37 -0.29 -0.33 -0.3 -0.29 -0.31 -0.25 -0.32 -0.21 -0.33 -0.17 -0.33 -0.13 -0.34 -0.1 -0.34 -0.06 -0.34 -0.03 -0.34 0 -0.34 0.04 -0.34 0.07 -0.34 0.1 -0.33 0.13 -0.33 0.16 -0.32 0.19 -0.31 0.22 -0.3 0.25 -0.29 0.28 -0.27 0.31 -0.26 0.34 -0.24 0.37 -0.22 0.4 -0.19 0.42 -0.17 0.45 -0.14 0.47 -0.11 0.5 -0.08 0.53 -0.05 0.55 -0.02 0.57 0 0zm0 0c0,0.31 -0.25,0.57 -0.57,0.57 -0.31,0 -0.57,-0.25 -0.57,-0.57l1.14 0zm81.4 2.65l-4.86 0 0 -1.14 4.86 0 0.54 0.39 -0.54 0.74zm0 -1.14c0.31,0 0.57,0.25 0.57,0.57 0,0.31 -0.25,0.57 -0.57,0.57l0 -1.14zm-1.81 -6.92l2.35 7.31 -1.08 0.35 -2.35 -7.31 0 -0.36 1.08 0.01zm-1.08 0.35c-0.1,-0.3 0.07,-0.62 0.37,-0.72 0.3,-0.1 0.62,0.07 0.72,0.37l-1.08 0.35zm-2.51 6.95l2.51 -7.31 1.08 0.37 -2.51 7.31 -0.54 0.38 -0.54 -0.75zm1.08 0.37c-0.1,0.3 -0.43,0.45 -0.72,0.35 -0.3,-0.1 -0.45,-0.43 -0.35,-0.72l1.08 0.37zm-18.6 8.37l-2.43 0 0 -1.14 2.43 0 0.57 0.57 -0.57 0.57zm0 -1.14c0.31,0 0.57,0.25 0.57,0.57 0,0.31 -0.25,0.57 -0.57,0.57l0 -1.14zm0.57 -18.19l0 18.76 -1.14 0 0 -18.76 0.57 -0.57 0.57 0.57zm-1.14 0c0,-0.31 0.25,-0.57 0.57,-0.57 0.31,0 0.57,0.25 0.57,0.57l-1.14 0zm-1.86 -0.57l2.43 0 0 1.14 -2.43 0 -0.57 -0.57 0.57 -0.57zm0 1.14c-0.31,0 -0.57,-0.25 -0.57,-0.57 0,-0.31 0.25,-0.57 0.57,-0.57l0 1.14zm-0.57 18.19l0 -18.76 1.14 0 0 18.76 -0.57 0.57 -0.57 -0.57zm1.14 0c0,0.31 -0.25,0.57 -0.57,0.57 -0.31,0 -0.57,-0.25 -0.57,-0.57l1.14 0zm-78.02 26.96l-2.43 0 0 -1.14 2.43 0 0.57 0.57 -0.57 0.57zm0 -1.14c0.31,0 0.57,0.25 0.57,0.57 0,0.31 -0.25,0.57 -0.57,0.57l0 -1.14zm0.57 -18.19l0 18.76 -1.14 0 0 -18.76 0.57 -0.57 0.57 0.57zm-1.14 0c0,-0.31 0.25,-0.57 0.57,-0.57 0.31,0 0.57,0.25 0.57,0.57l-1.14 0zm-1.86 -0.57l2.43 0 0 1.14 -2.43 0 -0.57 -0.57 0.57 -0.57zm0 1.14c-0.31,0 -0.57,-0.25 -0.57,-0.57 0,-0.31 0.25,-0.57 0.57,-0.57l0 1.14zm-0.57 18.19l0 -18.76 1.14 0 0 18.76 -0.57 0.57 -0.57 -0.57zm1.14 0c0,0.31 -0.25,0.57 -0.57,0.57 -0.31,0 -0.57,-0.25 -0.57,-0.57l1.14 0zm7.07 -25.83l-10.42 0 0 -1.14 10.42 0 0.57 0.57 -0.57 0.57zm0 -1.14c0.31,0 0.57,0.25 0.57,0.57 0,0.31 -0.25,0.57 -0.57,0.57l0 -1.14zm0.57 -1.52l0 2.08 -1.14 0 0 -2.08 0.57 -0.57 0.57 0.57zm-1.14 0c0,-0.31 0.25,-0.57 0.57,-0.57 0.31,0 0.57,0.25 0.57,0.57l-1.14 0zm-7.42 -0.57l7.99 0 0 1.14 -7.99 0 -0.57 -0.57 0.57 -0.57zm0 1.14c-0.31,0 -0.57,-0.25 -0.57,-0.57 0,-0.31 0.25,-0.57 0.57,-0.57l0 1.14zm0.57 -17.24l0 16.67 -1.14 0 0 -16.67 0.57 -0.57 0.57 0.57zm-1.14 0c0,-0.31 0.25,-0.57 0.57,-0.57 0.31,0 0.57,0.25 0.57,0.57l-1.14 0zm-1.86 -0.57l2.43 0 0 1.14 -2.43 0 -0.57 -0.57 0.57 -0.57zm0 1.14c-0.31,0 -0.57,-0.25 -0.57,-0.57 0,-0.31 0.25,-0.57 0.57,-0.57l0 1.14zm-0.57 18.19l0 -18.76 1.14 0 0 18.76 -0.57 0.57 -0.57 -0.57zm1.14 0c0,0.31 -0.25,0.57 -0.57,0.57 -0.31,0 -0.57,-0.25 -0.57,-0.57l1.14 0zm56.05 26.96l-10.42 0 0 -1.14 10.42 0 0.57 0.57 -0.57 0.57zm0 -1.14c0.31,0 0.57,0.25 0.57,0.57 0,0.31 -0.25,0.57 -0.57,0.57l0 -1.14zm0.57 -1.52l0 2.08 -1.14 0 0 -2.08 0.57 -0.57 0.57 0.57zm-1.14 0c0,-0.31 0.25,-0.57 0.57,-0.57 0.31,0 0.57,0.25 0.57,0.57l-1.14 0zm-7.42 -0.57l7.99 0 0 1.14 -7.99 0 -0.57 -0.57 0.57 -0.57zm0 1.14c-0.31,0 -0.57,-0.25 -0.57,-0.57 0,-0.31 0.25,-0.57 0.57,-0.57l0 1.14zm0.57 -17.24l0 16.67 -1.14 0 0 -16.67 0.57 -0.57 0.57 0.57zm-1.14 0c0,-0.31 0.25,-0.57 0.57,-0.57 0.31,0 0.57,0.25 0.57,0.57l-1.14 0zm-1.86 -0.57l2.43 0 0 1.14 -2.43 0 -0.57 -0.57 0.57 -0.57zm0 1.14c-0.31,0 -0.57,-0.25 -0.57,-0.57 0,-0.31 0.25,-0.57 0.57,-0.57l0 1.14zm-0.57 18.19l0 -18.76 1.14 0 0 18.76 -0.57 0.57 -0.57 -0.57zm1.14 0c0,0.31 -0.25,0.57 -0.57,0.57 -0.31,0 -0.57,-0.25 -0.57,-0.57l1.14 0zm-179.09 -42.5l-5.21 0 0 -1.14 5.21 0 0.57 0.57 -0.57 0.57zm0 -1.14c0.31,0 0.57,0.25 0.57,0.57 0,0.31 -0.25,0.57 -0.57,0.57l0 -1.14zm-0.57 17.24l0 -16.67 1.14 0 0 16.67 -0.57 0.57 -0.57 -0.57zm1.14 0c0,0.31 -0.25,0.57 -0.57,0.57 -0.31,0 -0.57,-0.25 -0.57,-0.57l1.14 0zm1.86 0.57l-2.43 0 0 -1.14 2.43 0 0.57 0.57 -0.57 0.57zm0 -1.14c0.31,0 0.57,0.25 0.57,0.57 0,0.31 -0.25,0.57 -0.57,0.57l0 -1.14zm0.57 -16.1l0 16.67 -1.14 0 0 -16.67 0.57 -0.57 0.57 0.57zm-1.14 0c0,-0.31 0.25,-0.57 0.57,-0.57 0.31,0 0.57,0.25 0.57,0.57l-1.14 0zm6.12 0.57l-5.56 0 0 -1.14 5.56 0 0.57 0.57 -0.57 0.57zm0 -1.14c0.31,0 0.57,0.25 0.57,0.57 0,0.31 -0.25,0.57 -0.57,0.57l0 -1.14zm0.57 -1.52l0 2.08 -1.14 0 0 -2.08 0.57 -0.57 0.57 0.57zm-1.14 0c0,-0.31 0.25,-0.57 0.57,-0.57 0.31,0 0.57,0.25 0.57,0.57l-1.14 0zm-12.63 -0.57l13.2 0 0 1.14 -13.2 0 -0.57 -0.57 0.57 -0.57zm0 1.14c-0.31,0 -0.57,-0.25 -0.57,-0.57 0,-0.31 0.25,-0.57 0.57,-0.57l0 1.14zm-0.57 1.52l0 -2.08 1.14 0 0 2.08 -0.57 0.57 -0.57 -0.57zm1.14 0c0,0.31 -0.25,0.57 -0.57,0.57 -0.31,0 -0.57,-0.25 -0.57,-0.57l1.14 0zm60.21 16.45l0 1.14 0 0 -0.68 -0.01 -0.65 -0.04 -0.62 -0.07 -0.59 -0.1 -0.56 -0.12 -0.53 -0.15 -0.5 -0.17 -0.47 -0.2 -0.44 -0.23 -0.41 -0.25 -0.39 -0.28 -0.36 -0.3 -0.33 -0.33 -0.31 -0.35 -0.28 -0.37 -0.25 -0.39 -0.23 -0.41 -0.2 -0.43 -0.18 -0.44 -0.16 -0.46 -0.14 -0.47 -0.12 -0.49 -0.11 -0.5 -0.09 -0.52 -0.08 -0.53 -0.06 -0.54 -0.05 -0.56 -0.04 -0.57 -0.03 -0.58 -0.02 -0.6 -0.01 -0.61 -0 -0.62 1.14 0 0 0.61 0.01 0.59 0.02 0.58 0.03 0.56 0.04 0.55 0.05 0.53 0.06 0.52 0.07 0.5 0.09 0.48 0.1 0.46 0.11 0.44 0.13 0.43 0.14 0.4 0.16 0.38 0.18 0.36 0.19 0.34 0.21 0.32 0.23 0.3 0.25 0.28 0.27 0.26 0.29 0.25 0.32 0.23 0.34 0.21 0.37 0.19 0.4 0.17 0.43 0.15 0.46 0.13 0.49 0.11 0.53 0.08 0.56 0.06 0.6 0.04 0.64 0.01 0 0zm0 0c0.31,0 0.57,0.25 0.57,0.57 0,0.31 -0.25,0.57 -0.57,0.57l0 -1.14zm6.01 -5.17l0.49 -1.03 0.31 0.64 -0.07 0.3 -0.08 0.3 -0.09 0.3 -0.1 0.3 -0.1 0.3 -0.11 0.3 -0.12 0.29 -0.13 0.29 -0.14 0.29 -0.14 0.28 -0.15 0.28 -0.16 0.27 -0.17 0.27 -0.18 0.26 -0.19 0.25 -0.2 0.24 -0.21 0.24 -0.22 0.23 -0.23 0.22 -0.24 0.2 -0.25 0.19 -0.26 0.18 -0.28 0.17 -0.29 0.15 -0.3 0.14 -0.31 0.12 -0.32 0.11 -0.33 0.09 -0.34 0.07 -0.35 0.05 -0.36 0.03 -0.37 0.01 0 -1.14 0.31 -0.01 0.3 -0.02 0.29 -0.04 0.28 -0.06 0.27 -0.07 0.26 -0.08 0.25 -0.1 0.24 -0.11 0.23 -0.12 0.22 -0.13 0.21 -0.15 0.21 -0.16 0.2 -0.17 0.19 -0.18 0.19 -0.19 0.18 -0.2 0.17 -0.21 0.16 -0.22 0.16 -0.22 0.15 -0.23 0.14 -0.24 0.14 -0.25 0.13 -0.25 0.12 -0.26 0.11 -0.26 0.11 -0.26 0.1 -0.27 0.09 -0.27 0.09 -0.27 0.08 -0.27 0.07 -0.27 0.07 -0.27 0.31 0.64zm-0.31 -0.64c0.07,-0.31 0.38,-0.5 0.68,-0.42 0.31,0.07 0.5,0.38 0.42,0.68l-1.11 -0.26zm-1.37 -0.32l-1.02 -0.49 0.56 -0.32 0.11 0.01 0.1 0.01 0.1 0.01 0.1 0.01 0.09 0.01 0.09 0.01 0.1 0.02 0.09 0.02 0.09 0.02 0.09 0.02 0.08 0.02 0.08 0.02 0.09 0.02 0.08 0.02 0.08 0.02 0.08 0.02 0.08 0.02 0.08 0.02 0.08 0.03 0.07 0.03 0.07 0.03 0.07 0.03 0.08 0.03 0.07 0.03 0.07 0.03 0.07 0.03 0.07 0.03 0.07 0.03 0.07 0.03 0.07 0.03 0.07 0.04 0.07 0.03 -0.49 1.03 -0.07 -0.03 -0.07 -0.03 -0.06 -0.03 -0.07 -0.03 -0.06 -0.03 -0.06 -0.03 -0.07 -0.03 -0.07 -0.03 -0.06 -0.03 -0.06 -0.02 -0.06 -0.02 -0.06 -0.02 -0.06 -0.02 -0.06 -0.02 -0.06 -0.02 -0.06 -0.02 -0.06 -0.02 -0.06 -0.02 -0.07 -0.02 -0.06 -0.02 -0.07 -0.02 -0.07 -0.02 -0.07 -0.01 -0.08 -0.01 -0.07 -0.01 -0.07 -0.01 -0.08 -0.01 -0.08 -0.01 -0.08 -0.01 -0.09 -0.01 -0.09 -0.01 -0.09 -0.01 0.56 -0.32zm-0.56 0.32c-0.31,-0.03 -0.54,-0.3 -0.52,-0.61 0.03,-0.31 0.3,-0.54 0.61,-0.52l-0.09 1.13zm-4.47 4.87l0 -1.14 0 0 0.25 -0.01 0.24 -0.03 0.23 -0.05 0.21 -0.06 0.2 -0.07 0.19 -0.09 0.18 -0.1 0.18 -0.12 0.17 -0.13 0.16 -0.14 0.15 -0.15 0.14 -0.16 0.14 -0.17 0.13 -0.18 0.12 -0.18 0.12 -0.19 0.11 -0.19 0.11 -0.19 0.1 -0.2 0.09 -0.19 0.09 -0.19 0.08 -0.19 0.08 -0.19 0.07 -0.19 0.07 -0.18 0.06 -0.17 0.06 -0.16 0.06 -0.15 0.05 -0.14 0.05 -0.13 0.05 -0.13 0.05 -0.12 1.02 0.49 -0.03 0.07 -0.04 0.09 -0.04 0.12 -0.05 0.14 -0.06 0.15 -0.06 0.17 -0.07 0.18 -0.07 0.19 -0.08 0.2 -0.08 0.21 -0.09 0.21 -0.1 0.22 -0.11 0.22 -0.11 0.22 -0.12 0.22 -0.13 0.22 -0.14 0.22 -0.15 0.22 -0.16 0.21 -0.17 0.21 -0.19 0.2 -0.2 0.2 -0.21 0.19 -0.23 0.17 -0.24 0.16 -0.26 0.14 -0.27 0.13 -0.29 0.11 -0.3 0.08 -0.32 0.06 -0.33 0.04 -0.34 0.01 0 0zm0 0c-0.31,0 -0.57,-0.25 -0.57,-0.57 0,-0.31 0.25,-0.57 0.57,-0.57l0 1.14zm2.37 -15.66l-0.56 0.99 0 0 -0.67 -0.33 -0.62 -0.2 -0.58 -0.09 -0.53 0.01 -0.5 0.1 -0.47 0.18 -0.44 0.26 -0.42 0.34 -0.39 0.42 -0.36 0.49 -0.33 0.55 -0.29 0.61 -0.25 0.66 -0.21 0.7 -0.17 0.72 -0.12 0.75 -0.08 0.76 -0.03 0.77 0.02 0.76 0.07 0.75 0.12 0.73 0.16 0.7 0.21 0.67 0.26 0.62 0.31 0.57 0.36 0.51 0.4 0.44 0.45 0.37 0.49 0.3 0.55 0.22 0.6 0.14 0.67 0.05 0 1.14 -0.84 -0.06 -0.78 -0.18 -0.71 -0.29 -0.65 -0.39 -0.57 -0.48 -0.5 -0.55 -0.43 -0.62 -0.37 -0.67 -0.3 -0.72 -0.24 -0.76 -0.18 -0.79 -0.13 -0.81 -0.07 -0.83 -0.02 -0.84 0.03 -0.84 0.08 -0.83 0.14 -0.82 0.18 -0.8 0.23 -0.77 0.28 -0.74 0.33 -0.7 0.38 -0.65 0.44 -0.59 0.49 -0.52 0.54 -0.44 0.6 -0.35 0.65 -0.25 0.7 -0.14 0.73 -0.01 0.76 0.12 0.78 0.26 0.8 0.39 0 0zm0 0c0.27,0.15 0.37,0.5 0.21,0.77 -0.15,0.27 -0.5,0.37 -0.77,0.21l0.56 -0.99zm1.55 3.46l0.49 1.02 -0.8 -0.38 -0.04 -0.16 -0.04 -0.15 -0.04 -0.14 -0.04 -0.14 -0.04 -0.14 -0.04 -0.13 -0.04 -0.13 -0.04 -0.12 -0.04 -0.12 -0.04 -0.11 -0.04 -0.11 -0.04 -0.11 -0.04 -0.1 -0.05 -0.1 -0.04 -0.09 -0.05 -0.09 -0.05 -0.09 -0.05 -0.08 -0.05 -0.08 -0.06 -0.08 -0.06 -0.08 -0.06 -0.07 -0.06 -0.07 -0.07 -0.07 -0.07 -0.07 -0.07 -0.07 -0.08 -0.07 -0.09 -0.07 -0.09 -0.07 -0.1 -0.07 -0.1 -0.06 -0.11 -0.06 0.56 -0.99 0.14 0.08 0.13 0.08 0.13 0.09 0.12 0.09 0.12 0.09 0.12 0.1 0.11 0.1 0.1 0.1 0.1 0.1 0.09 0.11 0.09 0.11 0.08 0.11 0.08 0.11 0.08 0.12 0.07 0.12 0.07 0.12 0.06 0.12 0.06 0.12 0.06 0.13 0.05 0.13 0.05 0.13 0.05 0.13 0.04 0.13 0.04 0.14 0.04 0.14 0.04 0.14 0.04 0.14 0.04 0.15 0.04 0.15 0.04 0.15 0.04 0.16 0.04 0.16 -0.8 -0.38zm0.8 0.38c0.07,0.31 -0.12,0.61 -0.42,0.68 -0.31,0.07 -0.61,-0.12 -0.68,-0.42l1.11 -0.26zm1.32 -0.44l1.11 -0.26 -0.42 0.68 -0.08 0.02 -0.08 0.02 -0.08 0.02 -0.08 0.02 -0.08 0.02 -0.08 0.02 -0.08 0.02 -0.08 0.02 -0.08 0.02 -0.08 0.02 -0.08 0.02 -0.08 0.02 -0.08 0.02 -0.08 0.02 -0.07 0.02 -0.08 0.02 -0.07 0.02 -0.07 0.02 -0.07 0.02 -0.07 0.02 -0.07 0.02 -0.07 0.02 -0.07 0.02 -0.07 0.02 -0.06 0.02 -0.07 0.02 -0.06 0.02 -0.06 0.02 -0.06 0.02 -0.06 0.02 -0.06 0.02 -0.05 0.03 -0.49 -1.02 0.07 -0.04 0.08 -0.03 0.08 -0.03 0.08 -0.03 0.08 -0.03 0.08 -0.03 0.08 -0.03 0.08 -0.03 0.08 -0.03 0.08 -0.03 0.08 -0.02 0.08 -0.02 0.08 -0.02 0.08 -0.02 0.08 -0.02 0.08 -0.02 0.08 -0.02 0.08 -0.02 0.08 -0.02 0.08 -0.02 0.08 -0.02 0.08 -0.02 0.08 -0.02 0.08 -0.02 0.08 -0.02 0.08 -0.02 0.08 -0.02 0.08 -0.02 0.08 -0.02 0.08 -0.02 0.07 -0.02 0.08 -0.02 -0.42 0.68zm0.42 -0.68c0.31,-0.07 0.61,0.12 0.68,0.42 0.07,0.31 -0.12,0.61 -0.42,0.68l-0.26 -1.11zm-13.54 3.33l-1.14 0 0 0 0.04 -0.89 0.11 -0.85 0.18 -0.82 0.24 -0.77 0.3 -0.73 0.35 -0.69 0.4 -0.64 0.45 -0.59 0.49 -0.54 0.53 -0.49 0.56 -0.44 0.59 -0.38 0.61 -0.33 0.63 -0.28 0.65 -0.22 0.66 -0.17 0.67 -0.11 0.67 -0.05 0.67 0.01 0.67 0.07 0.66 0.13 0.64 0.2 0.63 0.26 0.6 0.33 0.57 0.4 0.54 0.46 0.5 0.53 0.46 0.6 0.41 0.67 0.35 0.73 0.3 0.8 0.24 0.87 -1.11 0.26 -0.21 -0.77 -0.26 -0.7 -0.31 -0.64 -0.35 -0.57 -0.39 -0.51 -0.42 -0.45 -0.45 -0.39 -0.47 -0.33 -0.5 -0.27 -0.52 -0.22 -0.54 -0.17 -0.55 -0.11 -0.56 -0.06 -0.57 -0.01 -0.57 0.04 -0.57 0.09 -0.57 0.14 -0.56 0.19 -0.55 0.24 -0.53 0.29 -0.51 0.33 -0.48 0.38 -0.46 0.43 -0.42 0.47 -0.39 0.51 -0.35 0.55 -0.31 0.59 -0.26 0.64 -0.21 0.68 -0.15 0.72 -0.09 0.76 -0.03 0.8 0 0zm0 0c0,0.31 -0.25,0.57 -0.57,0.57 -0.31,0 -0.57,-0.25 -0.57,-0.57l1.14 0zm66.81 36.94l0 1.14 0 0 -0.68 -0.01 -0.65 -0.04 -0.62 -0.07 -0.59 -0.1 -0.56 -0.12 -0.53 -0.15 -0.5 -0.17 -0.47 -0.2 -0.44 -0.23 -0.41 -0.25 -0.39 -0.28 -0.36 -0.3 -0.33 -0.33 -0.3 -0.35 -0.28 -0.37 -0.25 -0.39 -0.23 -0.41 -0.21 -0.43 -0.18 -0.44 -0.16 -0.46 -0.14 -0.47 -0.12 -0.49 -0.11 -0.5 -0.09 -0.52 -0.08 -0.53 -0.06 -0.54 -0.05 -0.56 -0.04 -0.57 -0.03 -0.58 -0.02 -0.6 -0.01 -0.61 -0 -0.62 1.14 0 0 0.61 0.01 0.59 0.02 0.58 0.03 0.56 0.04 0.55 0.05 0.53 0.06 0.52 0.07 0.5 0.09 0.48 0.1 0.46 0.11 0.44 0.13 0.43 0.14 0.4 0.16 0.38 0.18 0.36 0.19 0.34 0.21 0.32 0.23 0.3 0.25 0.28 0.27 0.26 0.29 0.25 0.32 0.23 0.34 0.21 0.37 0.19 0.4 0.17 0.43 0.15 0.46 0.13 0.49 0.11 0.53 0.08 0.56 0.06 0.6 0.04 0.64 0.01 0 0zm0 0c0.31,0 0.57,0.25 0.57,0.57 0,0.31 -0.25,0.57 -0.57,0.57l0 -1.14zm6.01 -5.17l0.49 -1.02 0.31 0.64 -0.07 0.3 -0.08 0.3 -0.09 0.3 -0.1 0.3 -0.1 0.3 -0.11 0.3 -0.12 0.29 -0.13 0.29 -0.14 0.29 -0.14 0.28 -0.15 0.28 -0.16 0.27 -0.17 0.27 -0.18 0.26 -0.19 0.25 -0.2 0.24 -0.21 0.24 -0.22 0.23 -0.23 0.22 -0.24 0.2 -0.25 0.19 -0.26 0.18 -0.28 0.17 -0.29 0.15 -0.3 0.14 -0.31 0.12 -0.32 0.11 -0.33 0.09 -0.34 0.07 -0.35 0.05 -0.36 0.03 -0.37 0.01 0 -1.14 0.31 -0.01 0.3 -0.02 0.29 -0.04 0.28 -0.06 0.27 -0.07 0.26 -0.08 0.25 -0.1 0.24 -0.11 0.23 -0.12 0.22 -0.13 0.21 -0.15 0.21 -0.16 0.2 -0.17 0.19 -0.18 0.19 -0.19 0.18 -0.2 0.17 -0.21 0.16 -0.22 0.16 -0.22 0.15 -0.23 0.14 -0.24 0.14 -0.25 0.13 -0.25 0.12 -0.26 0.11 -0.26 0.11 -0.26 0.1 -0.27 0.09 -0.27 0.09 -0.27 0.08 -0.27 0.07 -0.27 0.07 -0.27 0.31 0.64zm-0.31 -0.64c0.07,-0.31 0.38,-0.5 0.68,-0.42 0.31,0.07 0.5,0.38 0.42,0.68l-1.11 -0.26zm-1.37 -0.32l-1.02 -0.49 0.56 -0.32 0.11 0.01 0.1 0.01 0.1 0.01 0.1 0.01 0.09 0.01 0.09 0.01 0.09 0.02 0.09 0.02 0.09 0.02 0.09 0.02 0.09 0.02 0.08 0.02 0.08 0.02 0.08 0.02 0.08 0.02 0.08 0.02 0.08 0.03 0.08 0.02 0.08 0.03 0.08 0.03 0.07 0.03 0.07 0.03 0.07 0.03 0.08 0.03 0.07 0.03 0.07 0.03 0.07 0.03 0.07 0.03 0.07 0.03 0.07 0.03 0.07 0.04 0.07 0.04 -0.49 1.02 -0.07 -0.03 -0.07 -0.03 -0.06 -0.03 -0.07 -0.03 -0.07 -0.03 -0.06 -0.03 -0.06 -0.03 -0.06 -0.03 -0.06 -0.02 -0.06 -0.02 -0.06 -0.03 -0.06 -0.02 -0.06 -0.02 -0.06 -0.02 -0.06 -0.02 -0.06 -0.02 -0.07 -0.02 -0.06 -0.02 -0.07 -0.02 -0.07 -0.02 -0.07 -0.02 -0.07 -0.01 -0.07 -0.01 -0.08 -0.02 -0.07 -0.01 -0.08 -0.01 -0.08 -0.01 -0.08 -0.01 -0.08 -0.01 -0.09 -0.01 -0.09 -0.01 -0.09 -0.01 0.56 -0.32zm-0.56 0.32c-0.31,-0.03 -0.54,-0.3 -0.52,-0.61 0.03,-0.31 0.3,-0.54 0.61,-0.52l-0.09 1.13zm-0.87 2.92l-0.9 -0.69 0 0 0.05 -0.07 0.05 -0.07 0.05 -0.07 0.05 -0.08 0.05 -0.08 0.04 -0.08 0.04 -0.08 0.04 -0.08 0.04 -0.08 0.04 -0.09 0.04 -0.09 0.04 -0.09 0.04 -0.09 0.04 -0.09 0.04 -0.1 0.04 -0.1 0.04 -0.1 0.03 -0.1 0.04 -0.1 0.04 -0.1 0.04 -0.1 0.04 -0.1 0.04 -0.11 0.04 -0.11 0.04 -0.11 0.04 -0.11 0.04 -0.11 0.04 -0.11 0.04 -0.11 0.05 -0.11 0.05 -0.11 0.05 -0.11 1.02 0.49 -0.04 0.09 -0.04 0.09 -0.04 0.09 -0.04 0.1 -0.04 0.1 -0.04 0.09 -0.04 0.1 -0.04 0.1 -0.04 0.1 -0.04 0.1 -0.04 0.1 -0.04 0.1 -0.03 0.1 -0.04 0.1 -0.04 0.11 -0.04 0.1 -0.04 0.1 -0.04 0.11 -0.04 0.11 -0.04 0.1 -0.04 0.11 -0.05 0.1 -0.05 0.11 -0.05 0.11 -0.05 0.1 -0.05 0.1 -0.06 0.11 -0.06 0.1 -0.06 0.1 -0.07 0.1 -0.07 0.1 -0.07 0.1 0 0zm0 0c-0.19,0.25 -0.55,0.29 -0.8,0.1 -0.25,-0.19 -0.29,-0.55 -0.1,-0.8l0.9 0.69zm-9.37 -6.27l1.14 0 0 0 0.02 0.71 0.05 0.67 0.08 0.63 0.11 0.58 0.13 0.54 0.15 0.5 0.18 0.46 0.19 0.43 0.21 0.39 0.23 0.35 0.24 0.32 0.25 0.28 0.26 0.25 0.27 0.22 0.28 0.19 0.29 0.16 0.29 0.13 0.3 0.1 0.3 0.07 0.3 0.04 0.3 0.02 0.3 -0.01 0.3 -0.03 0.29 -0.06 0.29 -0.08 0.28 -0.11 0.27 -0.13 0.26 -0.16 0.25 -0.18 0.24 -0.21 0.22 -0.23 0.21 -0.25 0.9 0.69 -0.27 0.32 -0.29 0.3 -0.31 0.27 -0.33 0.24 -0.34 0.21 -0.36 0.18 -0.37 0.14 -0.38 0.11 -0.39 0.08 -0.39 0.05 -0.4 0.01 -0.4 -0.02 -0.4 -0.06 -0.39 -0.09 -0.39 -0.13 -0.38 -0.17 -0.37 -0.2 -0.36 -0.24 -0.35 -0.28 -0.33 -0.32 -0.31 -0.35 -0.3 -0.39 -0.27 -0.43 -0.25 -0.46 -0.23 -0.5 -0.2 -0.53 -0.18 -0.57 -0.15 -0.61 -0.12 -0.65 -0.08 -0.69 -0.05 -0.72 -0.02 -0.76 0 0zm0 0c0,-0.31 0.25,-0.57 0.57,-0.57 0.31,0 0.57,0.25 0.57,0.57l-1.14 0zm3.64 -7.65l0.45 1.04 0 0 -0.19 0.09 -0.18 0.1 -0.17 0.11 -0.17 0.12 -0.16 0.12 -0.15 0.13 -0.15 0.14 -0.14 0.15 -0.14 0.16 -0.13 0.17 -0.12 0.17 -0.12 0.18 -0.11 0.19 -0.11 0.2 -0.1 0.2 -0.09 0.21 -0.09 0.22 -0.08 0.22 -0.08 0.23 -0.07 0.24 -0.06 0.24 -0.06 0.25 -0.05 0.26 -0.05 0.26 -0.04 0.27 -0.04 0.27 -0.03 0.28 -0.02 0.28 -0.02 0.28 -0.01 0.29 -0.01 0.29 -0 0.29 -1.14 0 0 -0.31 0.01 -0.31 0.01 -0.31 0.02 -0.31 0.03 -0.3 0.03 -0.3 0.04 -0.3 0.05 -0.29 0.05 -0.29 0.06 -0.29 0.07 -0.28 0.07 -0.28 0.08 -0.27 0.09 -0.27 0.09 -0.26 0.1 -0.25 0.11 -0.25 0.12 -0.24 0.13 -0.24 0.14 -0.23 0.14 -0.22 0.15 -0.22 0.16 -0.21 0.17 -0.2 0.18 -0.19 0.19 -0.18 0.2 -0.17 0.21 -0.16 0.22 -0.15 0.23 -0.14 0.24 -0.13 0.25 -0.11 0 0zm0 0c0.29,-0.12 0.62,0.01 0.75,0.3 0.12,0.29 -0.01,0.62 -0.3,0.75l-0.45 -1.04zm6.06 3.67l0.49 1.02 -0.8 -0.38 -0.08 -0.3 -0.08 -0.29 -0.09 -0.28 -0.1 -0.26 -0.11 -0.25 -0.11 -0.24 -0.12 -0.22 -0.12 -0.21 -0.13 -0.2 -0.14 -0.18 -0.14 -0.17 -0.14 -0.16 -0.15 -0.14 -0.15 -0.13 -0.16 -0.12 -0.16 -0.11 -0.17 -0.09 -0.17 -0.08 -0.18 -0.07 -0.18 -0.06 -0.19 -0.05 -0.19 -0.04 -0.2 -0.02 -0.2 -0.01 -0.21 0 -0.22 0.02 -0.22 0.03 -0.23 0.04 -0.23 0.06 -0.24 0.07 -0.25 0.09 -0.25 0.1 -0.45 -1.04 0.3 -0.12 0.3 -0.1 0.29 -0.09 0.29 -0.07 0.29 -0.05 0.29 -0.04 0.28 -0.02 0.28 -0 0.28 0.01 0.27 0.03 0.26 0.05 0.26 0.06 0.26 0.08 0.25 0.1 0.24 0.12 0.23 0.13 0.22 0.15 0.22 0.16 0.21 0.18 0.2 0.19 0.19 0.21 0.18 0.22 0.17 0.23 0.16 0.25 0.15 0.26 0.14 0.27 0.13 0.28 0.12 0.29 0.11 0.31 0.11 0.32 0.09 0.33 0.08 0.34 -0.8 -0.38zm0.8 0.38c0.07,0.31 -0.12,0.61 -0.42,0.68 -0.31,0.07 -0.61,-0.12 -0.68,-0.42l1.11 -0.26zm1.32 -0.44l1.11 -0.26 -0.42 0.68 -0.08 0.02 -0.08 0.02 -0.08 0.02 -0.08 0.02 -0.08 0.02 -0.08 0.02 -0.08 0.02 -0.08 0.02 -0.08 0.02 -0.08 0.02 -0.08 0.02 -0.08 0.02 -0.08 0.02 -0.08 0.02 -0.07 0.02 -0.08 0.02 -0.07 0.02 -0.07 0.02 -0.07 0.02 -0.07 0.02 -0.07 0.02 -0.07 0.02 -0.07 0.02 -0.07 0.02 -0.06 0.02 -0.07 0.02 -0.06 0.02 -0.06 0.02 -0.06 0.02 -0.06 0.02 -0.06 0.02 -0.05 0.03 -0.49 -1.02 0.07 -0.04 0.08 -0.03 0.08 -0.03 0.08 -0.03 0.08 -0.03 0.08 -0.03 0.08 -0.03 0.08 -0.03 0.08 -0.03 0.08 -0.03 0.08 -0.02 0.08 -0.02 0.08 -0.02 0.08 -0.02 0.08 -0.02 0.08 -0.02 0.08 -0.02 0.08 -0.02 0.08 -0.02 0.08 -0.02 0.08 -0.02 0.08 -0.02 0.08 -0.02 0.08 -0.02 0.08 -0.02 0.08 -0.02 0.08 -0.02 0.08 -0.02 0.08 -0.02 0.08 -0.02 0.07 -0.02 0.08 -0.02 -0.42 0.68zm0.42 -0.68c0.31,-0.07 0.61,0.12 0.68,0.42 0.07,0.31 -0.12,0.61 -0.42,0.68l-0.26 -1.11zm-13.54 3.33l-1.14 0 0 0 0.04 -0.89 0.11 -0.85 0.18 -0.82 0.24 -0.77 0.3 -0.73 0.35 -0.68 0.4 -0.64 0.45 -0.59 0.49 -0.54 0.53 -0.49 0.56 -0.44 0.59 -0.39 0.61 -0.33 0.63 -0.28 0.65 -0.22 0.66 -0.17 0.67 -0.11 0.67 -0.05 0.67 0.01 0.67 0.07 0.66 0.14 0.64 0.2 0.63 0.27 0.6 0.33 0.57 0.4 0.54 0.46 0.5 0.53 0.46 0.6 0.41 0.67 0.35 0.73 0.3 0.8 0.24 0.87 -1.11 0.26 -0.21 -0.77 -0.26 -0.7 -0.31 -0.64 -0.35 -0.57 -0.39 -0.51 -0.42 -0.45 -0.45 -0.39 -0.47 -0.33 -0.5 -0.27 -0.52 -0.22 -0.54 -0.17 -0.55 -0.11 -0.56 -0.06 -0.57 -0.01 -0.57 0.04 -0.57 0.09 -0.57 0.14 -0.56 0.19 -0.55 0.24 -0.53 0.29 -0.51 0.33 -0.48 0.38 -0.46 0.42 -0.42 0.47 -0.39 0.51 -0.35 0.55 -0.31 0.59 -0.26 0.64 -0.21 0.68 -0.15 0.72 -0.09 0.76 -0.03 0.8 0 0zm0 0c0,0.31 -0.25,0.57 -0.57,0.57 -0.31,0 -0.57,-0.25 -0.57,-0.57l1.14 0zm-73.16 -15.06l-12.16 0 0 -1.14 12.16 0 0.57 0.57 -0.57 0.57zm0 -1.14c0.31,0 0.57,0.25 0.57,0.57 0,0.31 -0.25,0.57 -0.57,0.57l0 -1.14zm0.57 -1.52l0 2.08 -1.14 0 0 -2.08 0.57 -0.57 0.57 0.57zm-1.14 0c0,-0.31 0.25,-0.57 0.57,-0.57 0.31,0 0.57,0.25 0.57,0.57l-1.14 0zm-9.16 -0.57l9.72 0 0 1.14 -9.72 0 -0.57 -0.57 0.57 -0.57zm0 1.14c-0.31,0 -0.57,-0.25 -0.57,-0.57 0,-0.31 0.25,-0.57 0.57,-0.57l0 1.14zm0.57 -7.17l0 6.6 -1.14 0 0 -6.6 0.57 -0.57 0.57 0.57zm-1.14 0c0,-0.31 0.25,-0.57 0.57,-0.57 0.31,0 0.57,0.25 0.57,0.57l-1.14 0zm9.25 0.57l-8.68 0 0 -1.14 8.68 0 0.57 0.57 -0.57 0.57zm0 -1.14c0.31,0 0.57,0.25 0.57,0.57 0,0.31 -0.25,0.57 -0.57,0.57l0 -1.14zm0.57 -1.52l0 2.08 -1.14 0 0 -2.08 0.57 -0.57 0.57 0.57zm-1.14 0c0,-0.31 0.25,-0.57 0.57,-0.57 0.31,0 0.57,0.25 0.57,0.57l-1.14 0zm-8.12 -0.57l8.68 0 0 1.14 -8.68 0 -0.57 -0.57 0.57 -0.57zm0 1.14c-0.31,0 -0.57,-0.25 -0.57,-0.57 0,-0.31 0.25,-0.57 0.57,-0.57l0 1.14zm0.57 -6.47l0 5.9 -1.14 0 0 -5.9 0.57 -0.57 0.57 0.57zm-1.14 0c0,-0.31 0.25,-0.57 0.57,-0.57 0.31,0 0.57,0.25 0.57,0.57l-1.14 0zm9.95 0.57l-9.38 0 0 -1.14 9.38 0 0.57 0.57 -0.57 0.57zm0 -1.14c0.31,0 0.57,0.25 0.57,0.57 0,0.31 -0.25,0.57 -0.57,0.57l0 -1.14zm0.57 -1.52l0 2.08 -1.14 0 0 -2.08 0.57 -0.57 0.57 0.57zm-1.14 0c0,-0.31 0.25,-0.57 0.57,-0.57 0.31,0 0.57,0.25 0.57,0.57l-1.14 0zm-11.24 -0.57l11.81 0 0 1.14 -11.81 0 -0.57 -0.57 0.57 -0.57zm0 1.14c-0.31,0 -0.57,-0.25 -0.57,-0.57 0,-0.31 0.25,-0.57 0.57,-0.57l0 1.14zm-0.57 18.19l0 -18.76 1.14 0 0 18.76 -0.57 0.57 -0.57 -0.57zm1.14 0c0,0.31 -0.25,0.57 -0.57,0.57 -0.31,0 -0.57,-0.25 -0.57,-0.57l1.14 0zm36.76 17.86l-0.31 1.09 0 0 -0.3 -0.08 -0.31 -0.09 -0.31 -0.09 -0.32 -0.09 -0.32 -0.09 -0.32 -0.1 -0.32 -0.1 -0.32 -0.1 -0.32 -0.11 -0.32 -0.12 -0.32 -0.12 -0.31 -0.13 -0.31 -0.14 -0.3 -0.14 -0.3 -0.15 -0.29 -0.17 -0.28 -0.18 -0.27 -0.19 -0.26 -0.2 -0.25 -0.22 -0.24 -0.23 -0.23 -0.25 -0.21 -0.26 -0.19 -0.28 -0.18 -0.29 -0.16 -0.31 -0.13 -0.33 -0.11 -0.35 -0.09 -0.36 -0.06 -0.38 -0.04 -0.39 -0.01 -0.41 1.14 0 0.01 0.34 0.03 0.32 0.05 0.3 0.07 0.28 0.09 0.26 0.1 0.25 0.12 0.24 0.13 0.22 0.15 0.21 0.16 0.2 0.18 0.19 0.19 0.18 0.2 0.18 0.22 0.17 0.23 0.16 0.24 0.15 0.25 0.14 0.26 0.14 0.27 0.13 0.28 0.12 0.29 0.12 0.29 0.11 0.3 0.11 0.3 0.1 0.31 0.1 0.31 0.1 0.31 0.09 0.31 0.09 0.31 0.09 0.31 0.09 0.31 0.09 0.31 0.09 0 0zm0 0c0.3,0.09 0.48,0.4 0.39,0.7 -0.09,0.3 -0.4,0.48 -0.7,0.39l0.31 -1.09zm-5.72 2.86l0 -1.14 0.55 0.44 0.23 0.83 0.27 0.72 0.31 0.61 0.34 0.51 0.37 0.42 0.38 0.33 0.4 0.26 0.41 0.19 0.42 0.13 0.43 0.07 0.43 0.01 0.43 -0.04 0.43 -0.09 0.42 -0.13 0.4 -0.17 0.38 -0.21 0.35 -0.24 0.31 -0.27 0.27 -0.29 0.22 -0.3 0.17 -0.3 0.12 -0.3 0.06 -0.3 0.01 -0.29 -0.05 -0.28 -0.11 -0.28 -0.18 -0.29 -0.26 -0.29 -0.36 -0.29 -0.47 -0.28 -0.58 -0.26 -0.7 -0.24 0.31 -1.09 0.8 0.27 0.69 0.31 0.59 0.35 0.49 0.39 0.39 0.43 0.29 0.47 0.19 0.49 0.08 0.51 -0.02 0.5 -0.1 0.49 -0.18 0.46 -0.25 0.44 -0.31 0.41 -0.35 0.38 -0.4 0.34 -0.44 0.31 -0.47 0.26 -0.5 0.22 -0.53 0.17 -0.55 0.11 -0.56 0.05 -0.57 -0.02 -0.58 -0.09 -0.57 -0.17 -0.56 -0.26 -0.53 -0.35 -0.5 -0.44 -0.46 -0.53 -0.42 -0.63 -0.37 -0.72 -0.32 -0.82 -0.26 -0.92 0.55 0.44zm-0.55 -0.44c-0.07,-0.31 0.12,-0.61 0.42,-0.68 0.31,-0.07 0.61,0.12 0.68,0.42l-1.11 0.26zm-1.53 -0.7l2.08 0 0 1.14 -2.08 0 -0.57 -0.57 0.57 -0.57zm0 1.14c-0.31,0 -0.57,-0.25 -0.57,-0.57 0,-0.31 0.25,-0.57 0.57,-0.57l0 1.14zm12.28 0.82l1.14 0 0 0 -0.04 0.69 -0.12 0.66 -0.19 0.62 -0.26 0.58 -0.33 0.54 -0.38 0.49 -0.43 0.45 -0.48 0.4 -0.51 0.35 -0.55 0.31 -0.58 0.26 -0.6 0.21 -0.62 0.16 -0.63 0.12 -0.64 0.07 -0.65 0.02 -0.65 -0.04 -0.64 -0.09 -0.64 -0.14 -0.62 -0.19 -0.6 -0.25 -0.58 -0.31 -0.55 -0.36 -0.52 -0.42 -0.47 -0.48 -0.43 -0.54 -0.38 -0.6 -0.32 -0.66 -0.25 -0.72 -0.19 -0.78 -0.12 -0.83 -0.04 -0.89 1.14 0 0.04 0.79 0.1 0.72 0.16 0.67 0.21 0.61 0.26 0.55 0.31 0.5 0.35 0.45 0.39 0.4 0.42 0.35 0.46 0.3 0.48 0.26 0.51 0.21 0.53 0.16 0.54 0.12 0.55 0.07 0.56 0.03 0.56 -0.01 0.55 -0.06 0.54 -0.1 0.53 -0.14 0.51 -0.18 0.49 -0.22 0.46 -0.26 0.43 -0.29 0.39 -0.33 0.35 -0.36 0.3 -0.39 0.26 -0.42 0.21 -0.46 0.15 -0.49 0.09 -0.52 0.03 -0.56 0 0zm0 0c0,-0.31 0.25,-0.57 0.57,-0.57 0.31,0 0.57,0.25 0.57,0.57l-1.14 0zm-3.89 -5.25l0.35 -1.08 -0 0 0.37 0.12 0.35 0.13 0.33 0.13 0.31 0.13 0.3 0.14 0.28 0.14 0.26 0.14 0.25 0.15 0.23 0.15 0.22 0.16 0.2 0.17 0.19 0.17 0.18 0.18 0.16 0.19 0.15 0.19 0.13 0.2 0.12 0.2 0.11 0.21 0.1 0.21 0.08 0.22 0.07 0.22 0.06 0.23 0.05 0.23 0.04 0.24 0.04 0.24 0.03 0.25 0.02 0.25 0.02 0.26 0.01 0.26 0.01 0.27 0 0.27 0 0.28 -1.14 0 -0 -0.27 -0 -0.26 -0.01 -0.25 -0.01 -0.24 -0.01 -0.23 -0.02 -0.22 -0.02 -0.21 -0.03 -0.2 -0.04 -0.2 -0.04 -0.18 -0.05 -0.18 -0.05 -0.17 -0.06 -0.16 -0.07 -0.16 -0.08 -0.15 -0.09 -0.14 -0.1 -0.14 -0.1 -0.14 -0.12 -0.13 -0.13 -0.13 -0.14 -0.13 -0.16 -0.13 -0.17 -0.13 -0.19 -0.13 -0.21 -0.13 -0.22 -0.12 -0.24 -0.12 -0.26 -0.12 -0.28 -0.12 -0.3 -0.12 -0.32 -0.12 -0.34 -0.12 -0 0zm0 0c-0.3,-0.1 -0.46,-0.42 -0.37,-0.72 0.1,-0.3 0.42,-0.46 0.72,-0.37l-0.35 1.08zm-6.18 -3.78l1.14 0 0 0 0.01 0.14 0.02 0.13 0.03 0.12 0.05 0.11 0.06 0.11 0.08 0.11 0.09 0.11 0.11 0.11 0.12 0.1 0.14 0.1 0.15 0.1 0.17 0.1 0.18 0.09 0.19 0.09 0.2 0.09 0.21 0.08 0.21 0.08 0.22 0.07 0.23 0.07 0.23 0.07 0.23 0.07 0.24 0.06 0.24 0.06 0.24 0.06 0.24 0.06 0.23 0.06 0.23 0.06 0.22 0.06 0.22 0.06 0.21 0.06 0.21 0.06 0.2 0.06 -0.35 1.08 -0.17 -0.05 -0.19 -0.05 -0.2 -0.05 -0.21 -0.06 -0.22 -0.06 -0.22 -0.06 -0.23 -0.06 -0.24 -0.06 -0.24 -0.06 -0.24 -0.06 -0.25 -0.07 -0.25 -0.07 -0.25 -0.07 -0.25 -0.08 -0.25 -0.08 -0.24 -0.09 -0.24 -0.09 -0.23 -0.1 -0.23 -0.11 -0.22 -0.12 -0.21 -0.12 -0.21 -0.13 -0.2 -0.14 -0.19 -0.16 -0.17 -0.17 -0.16 -0.18 -0.14 -0.2 -0.12 -0.22 -0.1 -0.23 -0.07 -0.24 -0.04 -0.26 -0.01 -0.27 0 0zm0 0c0,-0.31 0.25,-0.57 0.57,-0.57 0.31,0 0.57,0.25 0.57,0.57l-1.14 0zm7.86 -0.22l0 1.14 -0.57 -0.52 -0.05 -0.4 -0.08 -0.36 -0.11 -0.33 -0.13 -0.3 -0.15 -0.27 -0.18 -0.24 -0.19 -0.22 -0.21 -0.19 -0.23 -0.17 -0.24 -0.14 -0.25 -0.12 -0.27 -0.1 -0.27 -0.07 -0.28 -0.05 -0.29 -0.03 -0.29 -0 -0.29 0.02 -0.28 0.04 -0.28 0.06 -0.27 0.08 -0.26 0.1 -0.25 0.12 -0.23 0.14 -0.21 0.16 -0.19 0.18 -0.17 0.19 -0.15 0.21 -0.12 0.22 -0.1 0.24 -0.07 0.26 -0.05 0.28 -0.02 0.3 -1.14 0 0.02 -0.42 0.07 -0.4 0.11 -0.38 0.15 -0.36 0.19 -0.34 0.22 -0.31 0.25 -0.28 0.27 -0.25 0.3 -0.22 0.32 -0.2 0.33 -0.17 0.34 -0.14 0.36 -0.11 0.37 -0.08 0.37 -0.05 0.38 -0.02 0.38 0.01 0.38 0.04 0.37 0.07 0.37 0.1 0.36 0.13 0.35 0.17 0.34 0.2 0.32 0.23 0.3 0.27 0.27 0.3 0.25 0.34 0.21 0.37 0.18 0.4 0.14 0.44 0.11 0.47 0.06 0.5 -0.57 -0.52zm0.57 0.52c0.03,0.31 -0.21,0.59 -0.52,0.61 -0.31,0.03 -0.59,-0.21 -0.61,-0.52l1.13 -0.09zm1.87 0.61l-2.43 0 0 -1.14 2.43 0 0.57 0.56 -0.57 0.58zm0 -1.14c0.31,0 0.57,0.25 0.57,0.57 0,0.31 -0.25,0.57 -0.57,0.57l0 -1.14zm-11.59 0.22l-1.14 0 0 0 0.04 -0.69 0.11 -0.65 0.18 -0.61 0.25 -0.57 0.31 -0.53 0.36 -0.48 0.41 -0.44 0.45 -0.39 0.48 -0.35 0.52 -0.3 0.54 -0.25 0.56 -0.21 0.58 -0.16 0.59 -0.12 0.6 -0.07 0.61 -0.03 0.61 0.02 0.61 0.07 0.6 0.11 0.58 0.16 0.57 0.21 0.55 0.26 0.52 0.31 0.49 0.36 0.46 0.41 0.41 0.46 0.37 0.51 0.31 0.56 0.26 0.61 0.19 0.66 0.13 0.71 0.05 0.75 -1.14 0.03 -0.05 -0.64 -0.11 -0.59 -0.16 -0.54 -0.21 -0.5 -0.25 -0.45 -0.29 -0.41 -0.33 -0.37 -0.37 -0.33 -0.4 -0.29 -0.43 -0.25 -0.46 -0.21 -0.48 -0.18 -0.5 -0.14 -0.51 -0.1 -0.52 -0.06 -0.52 -0.02 -0.52 0.02 -0.52 0.06 -0.51 0.1 -0.49 0.14 -0.48 0.18 -0.45 0.21 -0.43 0.25 -0.39 0.28 -0.36 0.32 -0.32 0.35 -0.28 0.38 -0.24 0.41 -0.19 0.45 -0.14 0.48 -0.09 0.52 -0.03 0.56 0 0zm0 0c0,0.31 -0.25,0.57 -0.57,0.57 -0.31,0 -0.57,-0.25 -0.57,-0.57l1.14 0zm147.52 -15.63l1.14 0 0 0 -0.06 0.47 -0.17 0.44 -0.26 0.41 -0.33 0.38 -0.39 0.35 -0.45 0.33 -0.5 0.31 -0.55 0.28 -0.59 0.26 -0.63 0.23 -0.66 0.2 -0.69 0.16 -0.72 0.12 -0.73 0.08 -0.75 0.04 -0.76 -0.02 -0.76 -0.07 -0.75 -0.13 -0.75 -0.19 -0.73 -0.26 -0.71 -0.33 -0.68 -0.41 -0.65 -0.49 -0.6 -0.57 -0.56 -0.66 -0.5 -0.75 -0.44 -0.84 -0.37 -0.93 -0.29 -1.02 -0.22 -1.12 -0.13 -1.22 -0.05 -1.32 1.14 0 0.04 1.24 0.12 1.13 0.2 1.02 0.26 0.92 0.33 0.82 0.38 0.73 0.43 0.64 0.47 0.56 0.51 0.48 0.55 0.42 0.58 0.35 0.61 0.29 0.63 0.23 0.65 0.17 0.67 0.11 0.67 0.06 0.68 0.01 0.67 -0.03 0.66 -0.07 0.65 -0.11 0.63 -0.15 0.6 -0.18 0.56 -0.21 0.53 -0.23 0.48 -0.25 0.43 -0.26 0.37 -0.27 0.3 -0.27 0.23 -0.26 0.16 -0.24 0.08 -0.21 0.03 -0.18 0 0zm0 0c0,-0.31 0.25,-0.57 0.57,-0.57 0.31,0 0.57,0.25 0.57,0.57l-1.14 0zm1.14 -6.6l0 6.6 -1.14 0 0 -6.6 0.57 -0.57 0.57 0.57zm-1.14 0c0,-0.31 0.25,-0.57 0.57,-0.57 0.31,0 0.57,0.25 0.57,0.57l-1.14 0zm-6.73 -0.57l7.29 0 0 1.14 -7.29 0 -0.57 -0.57 0.57 -0.57zm0 1.14c-0.31,0 -0.57,-0.25 -0.57,-0.57 0,-0.31 0.25,-0.57 0.57,-0.57l0 1.14zm-0.57 1.52l0 -2.08 1.14 0 0 2.08 -0.57 0.57 -0.57 -0.57zm1.14 0c0,0.31 -0.25,0.57 -0.57,0.57 -0.31,0 -0.57,-0.25 -0.57,-0.57l1.14 0zm4.29 0.57l-4.86 0 0 -1.14 4.86 0 0.57 0.57 -0.57 0.57zm0 -1.14c0.31,0 0.57,0.25 0.57,0.57 0,0.31 -0.25,0.57 -0.57,0.57l0 -1.14zm-1.33 6.07l-0.53 -1 0 0 0.17 -0.09 0.16 -0.09 0.14 -0.09 0.12 -0.08 0.11 -0.08 0.1 -0.08 0.08 -0.08 0.07 -0.08 0.06 -0.08 0.05 -0.08 0.05 -0.08 0.04 -0.08 0.04 -0.08 0.03 -0.09 0.03 -0.09 0.02 -0.1 0.02 -0.11 0.02 -0.12 0.01 -0.13 0.01 -0.14 0 -0.16 0 -0.17 -0 -0.17 -0 -0.19 -0 -0.2 -0.01 -0.21 -0.01 -0.22 -0.01 -0.24 -0.01 -0.25 -0 -0.26 -0 -0.28 -0 -0.29 1.14 0 0 0.28 0 0.27 0 0.26 0.01 0.24 0.01 0.23 0.01 0.22 0.01 0.22 0 0.21 0 0.2 0 0.19 -0 0.18 -0 0.18 -0.01 0.18 -0.02 0.17 -0.02 0.17 -0.03 0.17 -0.04 0.16 -0.05 0.16 -0.06 0.16 -0.07 0.15 -0.08 0.15 -0.09 0.15 -0.1 0.14 -0.11 0.13 -0.12 0.13 -0.13 0.12 -0.14 0.12 -0.15 0.12 -0.16 0.11 -0.17 0.11 -0.19 0.11 -0.2 0.11 0 0zm0 0c-0.28,0.15 -0.62,0.04 -0.77,-0.24 -0.15,-0.28 -0.04,-0.62 0.24,-0.77l0.53 1zm-8.03 -1.49l0.93 -0.64 0 0 0.13 0.17 0.13 0.17 0.14 0.16 0.15 0.15 0.15 0.14 0.16 0.13 0.17 0.12 0.17 0.12 0.18 0.11 0.18 0.1 0.19 0.09 0.19 0.08 0.2 0.07 0.2 0.07 0.21 0.06 0.21 0.05 0.22 0.04 0.22 0.03 0.22 0.02 0.23 0.01 0.23 -0 0.24 -0.01 0.24 -0.02 0.24 -0.03 0.24 -0.04 0.24 -0.06 0.25 -0.07 0.25 -0.08 0.25 -0.09 0.25 -0.1 0.25 -0.11 0.25 -0.13 0.53 1 -0.29 0.15 -0.29 0.13 -0.29 0.12 -0.29 0.11 -0.29 0.09 -0.29 0.08 -0.29 0.07 -0.29 0.05 -0.29 0.04 -0.29 0.03 -0.28 0.02 -0.28 0 -0.28 -0.01 -0.28 -0.02 -0.27 -0.04 -0.27 -0.05 -0.26 -0.06 -0.26 -0.07 -0.25 -0.08 -0.25 -0.09 -0.24 -0.11 -0.24 -0.12 -0.23 -0.13 -0.22 -0.14 -0.22 -0.15 -0.21 -0.16 -0.2 -0.17 -0.19 -0.18 -0.19 -0.19 -0.18 -0.2 -0.17 -0.21 -0.16 -0.22 0 0zm-0 0c-0.18,-0.26 -0.11,-0.61 0.15,-0.79 0.26,-0.18 0.61,-0.11 0.79,0.15l-0.94 0.64zm1.61 -13l0.59 0.97 0 0 -0.27 0.18 -0.25 0.2 -0.24 0.23 -0.23 0.25 -0.21 0.27 -0.2 0.29 -0.19 0.31 -0.17 0.33 -0.16 0.35 -0.14 0.36 -0.13 0.37 -0.11 0.39 -0.1 0.4 -0.08 0.41 -0.07 0.41 -0.05 0.42 -0.03 0.42 -0.02 0.43 -0 0.43 0.01 0.43 0.03 0.43 0.04 0.42 0.06 0.42 0.08 0.41 0.09 0.4 0.11 0.39 0.12 0.38 0.14 0.37 0.15 0.35 0.17 0.34 0.18 0.32 0.19 0.3 -0.93 0.64 -0.23 -0.36 -0.21 -0.38 -0.19 -0.39 -0.18 -0.4 -0.16 -0.42 -0.14 -0.43 -0.12 -0.44 -0.1 -0.45 -0.08 -0.45 -0.07 -0.46 -0.05 -0.46 -0.03 -0.47 -0.01 -0.47 0 -0.47 0.02 -0.47 0.04 -0.47 0.06 -0.46 0.07 -0.46 0.09 -0.45 0.11 -0.44 0.13 -0.44 0.14 -0.42 0.16 -0.41 0.18 -0.4 0.2 -0.38 0.22 -0.37 0.24 -0.35 0.26 -0.33 0.28 -0.31 0.3 -0.29 0.32 -0.26 0.35 -0.23 0 0zm0 0c0.27,-0.16 0.62,-0.08 0.78,0.19 0.16,0.27 0.08,0.62 -0.19,0.78l-0.59 -0.97zm6.59 0.35l-0.73 0.87 0 0 -0.14 -0.11 -0.14 -0.1 -0.15 -0.1 -0.15 -0.09 -0.15 -0.08 -0.15 -0.08 -0.16 -0.07 -0.16 -0.06 -0.16 -0.06 -0.16 -0.05 -0.17 -0.04 -0.17 -0.04 -0.17 -0.03 -0.17 -0.02 -0.17 -0.02 -0.17 -0.01 -0.17 -0 -0.17 0 -0.18 0.01 -0.17 0.01 -0.17 0.02 -0.17 0.03 -0.17 0.04 -0.17 0.04 -0.17 0.05 -0.17 0.05 -0.17 0.06 -0.17 0.07 -0.16 0.07 -0.16 0.08 -0.16 0.09 -0.16 0.09 -0.59 -0.97 0.19 -0.11 0.2 -0.11 0.2 -0.1 0.2 -0.09 0.2 -0.08 0.21 -0.07 0.21 -0.07 0.21 -0.06 0.21 -0.05 0.21 -0.04 0.22 -0.04 0.22 -0.03 0.22 -0.02 0.22 -0.01 0.22 -0 0.22 0 0.21 0.01 0.21 0.02 0.22 0.03 0.21 0.04 0.21 0.05 0.21 0.05 0.21 0.06 0.21 0.07 0.2 0.08 0.2 0.09 0.2 0.1 0.19 0.11 0.19 0.12 0.19 0.13 0.18 0.13 0.18 0.14 0 0zm0 0c0.24,0.2 0.27,0.56 0.07,0.8 -0.2,0.24 -0.56,0.27 -0.8,0.07l0.73 -0.87zm1.04 2.87l0.26 1.11 -0.64 -0.31 -0.05 -0.11 -0.05 -0.11 -0.05 -0.11 -0.04 -0.11 -0.04 -0.1 -0.04 -0.11 -0.04 -0.1 -0.04 -0.1 -0.04 -0.1 -0.04 -0.1 -0.04 -0.1 -0.03 -0.1 -0.04 -0.1 -0.03 -0.1 -0.03 -0.09 -0.04 -0.09 -0.04 -0.09 -0.04 -0.09 -0.04 -0.09 -0.04 -0.08 -0.04 -0.08 -0.04 -0.08 -0.04 -0.08 -0.05 -0.08 -0.05 -0.07 -0.05 -0.07 -0.05 -0.07 -0.05 -0.07 -0.05 -0.06 -0.06 -0.06 -0.06 -0.06 -0.06 -0.06 0.73 -0.87 0.1 0.09 0.09 0.09 0.09 0.09 0.09 0.1 0.08 0.1 0.07 0.1 0.07 0.1 0.07 0.1 0.06 0.1 0.06 0.11 0.06 0.11 0.05 0.11 0.05 0.11 0.05 0.1 0.05 0.11 0.04 0.11 0.04 0.1 0.04 0.11 0.04 0.1 0.04 0.1 0.04 0.1 0.03 0.1 0.04 0.1 0.04 0.1 0.04 0.1 0.03 0.09 0.04 0.09 0.04 0.09 0.04 0.09 0.04 0.09 0.04 0.09 0.04 0.09 -0.64 -0.31zm0.64 0.31c0.13,0.28 0.02,0.62 -0.27,0.76 -0.28,0.13 -0.62,0.02 -0.76,-0.27l1.02 -0.49zm1.01 -0.4l1.13 -0.09 -0.32 0.56 -0.07 0.03 -0.07 0.03 -0.06 0.03 -0.07 0.03 -0.07 0.03 -0.07 0.03 -0.07 0.03 -0.06 0.02 -0.07 0.03 -0.07 0.03 -0.06 0.02 -0.07 0.02 -0.06 0.02 -0.06 0.02 -0.07 0.02 -0.07 0.02 -0.06 0.02 -0.07 0.02 -0.07 0.02 -0.06 0.02 -0.07 0.02 -0.07 0.02 -0.07 0.02 -0.07 0.02 -0.07 0.02 -0.07 0.02 -0.08 0.02 -0.07 0.02 -0.08 0.02 -0.08 0.02 -0.08 0.02 -0.08 0.02 -0.26 -1.11 0.08 -0.02 0.08 -0.02 0.07 -0.02 0.07 -0.02 0.07 -0.02 0.06 -0.02 0.07 -0.02 0.07 -0.02 0.06 -0.02 0.06 -0.02 0.06 -0.02 0.06 -0.02 0.06 -0.02 0.06 -0.02 0.06 -0.02 0.06 -0.02 0.05 -0.02 0.06 -0.02 0.06 -0.02 0.06 -0.02 0.06 -0.02 0.06 -0.02 0.06 -0.02 0.05 -0.02 0.06 -0.02 0.06 -0.02 0.06 -0.02 0.06 -0.02 0.06 -0.03 0.06 -0.03 0.06 -0.03 0.06 -0.03 -0.32 0.56zm0.32 -0.56c0.28,-0.14 0.62,-0.02 0.76,0.27 0.14,0.28 0.02,0.62 -0.27,0.76l-0.49 -1.02zm-14.12 4.68l-1.14 0 0 0 0.04 -1.19 0.12 -1.12 0.2 -1.04 0.27 -0.97 0.34 -0.9 0.41 -0.82 0.46 -0.75 0.52 -0.68 0.57 -0.61 0.61 -0.53 0.64 -0.46 0.67 -0.39 0.7 -0.32 0.71 -0.25 0.72 -0.18 0.73 -0.12 0.73 -0.06 0.73 0.01 0.72 0.07 0.71 0.13 0.69 0.19 0.67 0.25 0.64 0.31 0.6 0.37 0.56 0.42 0.52 0.48 0.46 0.53 0.4 0.59 0.34 0.64 0.27 0.69 0.19 0.73 0.11 0.77 -1.13 0.09 -0.09 -0.65 -0.16 -0.6 -0.22 -0.56 -0.28 -0.52 -0.33 -0.48 -0.38 -0.44 -0.43 -0.4 -0.47 -0.35 -0.51 -0.31 -0.54 -0.26 -0.57 -0.21 -0.59 -0.16 -0.61 -0.11 -0.63 -0.06 -0.63 -0.01 -0.64 0.05 -0.63 0.1 -0.63 0.16 -0.61 0.22 -0.6 0.28 -0.58 0.34 -0.55 0.4 -0.52 0.46 -0.49 0.52 -0.45 0.59 -0.41 0.66 -0.36 0.73 -0.31 0.8 -0.25 0.87 -0.18 0.95 -0.12 1.03 -0.04 1.11 0 0zm0 0c0,0.31 -0.25,0.57 -0.57,0.57 -0.31,0 -0.57,-0.25 -0.57,-0.57l1.14 0zm47.71 9.95l-2.73 0.02 -0.01 -1.14 2.73 -0.02 0.56 0.7 -0.55 0.44zm-0.01 -1.14c0.31,-0 0.57,0.25 0.57,0.56 0,0.31 -0.25,0.57 -0.56,0.57l-0.01 -1.14zm1.74 -5.9l0 1.14 0.55 -0.44 -0.05 0.19 -0.05 0.19 -0.05 0.19 -0.05 0.19 -0.05 0.19 -0.05 0.19 -0.06 0.19 -0.06 0.19 -0.06 0.19 -0.06 0.19 -0.06 0.19 -0.06 0.19 -0.06 0.19 -0.06 0.19 -0.06 0.19 -0.06 0.18 -0.06 0.19 -0.06 0.18 -0.06 0.18 -0.06 0.18 -0.06 0.18 -0.06 0.18 -0.06 0.18 -0.05 0.18 -0.05 0.18 -0.05 0.18 -0.05 0.18 -0.05 0.18 -0.05 0.18 -0.05 0.18 -0.04 0.18 -0.04 0.18 -1.11 -0.26 0.05 -0.19 0.05 -0.19 0.05 -0.19 0.05 -0.19 0.05 -0.19 0.05 -0.19 0.05 -0.19 0.06 -0.19 0.06 -0.19 0.06 -0.19 0.06 -0.19 0.06 -0.18 0.06 -0.19 0.06 -0.19 0.06 -0.19 0.06 -0.19 0.06 -0.18 0.06 -0.19 0.06 -0.18 0.06 -0.18 0.06 -0.18 0.06 -0.19 0.06 -0.18 0.06 -0.18 0.05 -0.18 0.05 -0.18 0.05 -0.18 0.05 -0.18 0.05 -0.18 0.05 -0.18 0.05 -0.18 0.04 -0.18 0.55 -0.44zm-0.55 0.44c0.07,-0.31 0.38,-0.5 0.68,-0.42 0.31,0.07 0.5,0.38 0.42,0.68l-1.11 -0.26zm6.81 0.7l-6.25 0 0 -1.14 6.25 0 0.51 0.32 -0.51 0.81zm0 -1.14c0.31,0 0.57,0.25 0.57,0.57 0,0.31 -0.25,0.57 -0.57,0.57l0 -1.14zm2.08 5.9l0 1.14 -0.51 -0.32 -0.08 -0.18 -0.08 -0.18 -0.08 -0.18 -0.07 -0.18 -0.07 -0.19 -0.07 -0.19 -0.07 -0.19 -0.07 -0.19 -0.06 -0.19 -0.06 -0.19 -0.06 -0.19 -0.06 -0.19 -0.06 -0.2 -0.06 -0.19 -0.06 -0.2 -0.06 -0.2 -0.06 -0.19 -0.06 -0.19 -0.06 -0.19 -0.06 -0.19 -0.06 -0.19 -0.06 -0.19 -0.06 -0.19 -0.06 -0.18 -0.06 -0.18 -0.06 -0.18 -0.06 -0.18 -0.07 -0.17 -0.07 -0.17 -0.07 -0.16 -0.07 -0.16 -0.07 -0.15 1.02 -0.49 0.08 0.18 0.08 0.18 0.08 0.18 0.07 0.18 0.07 0.19 0.07 0.19 0.07 0.19 0.07 0.19 0.06 0.19 0.06 0.19 0.06 0.19 0.06 0.19 0.06 0.2 0.06 0.19 0.06 0.2 0.06 0.2 0.06 0.19 0.06 0.19 0.06 0.19 0.06 0.19 0.06 0.19 0.06 0.19 0.06 0.19 0.06 0.18 0.06 0.18 0.06 0.18 0.06 0.18 0.07 0.17 0.07 0.17 0.07 0.16 0.07 0.16 0.07 0.15 -0.51 -0.32zm0.51 0.32c0.14,0.28 0.02,0.62 -0.27,0.76 -0.28,0.14 -0.62,0.02 -0.76,-0.27l1.02 -0.49zm2.27 0.81l-2.78 0 0 -1.14 2.78 0 0.55 0.44 -0.55 0.7zm0 -1.14c0.31,0 0.57,0.25 0.57,0.57 0,0.31 -0.25,0.57 -0.57,0.57l0 -1.14zm-6.6 -17.62l0 -1.14 0.55 0.44 0.07 0.29 0.1 0.35 0.12 0.4 0.14 0.45 0.17 0.5 0.18 0.54 0.2 0.58 0.22 0.61 0.23 0.64 0.24 0.67 0.25 0.69 0.26 0.71 0.27 0.72 0.27 0.73 0.28 0.74 0.28 0.74 0.28 0.74 0.28 0.74 0.27 0.73 0.27 0.72 0.26 0.71 0.25 0.69 0.24 0.66 0.23 0.64 0.22 0.61 0.2 0.58 0.19 0.54 0.17 0.5 0.15 0.46 0.13 0.41 0.1 0.36 0.08 0.32 -1.11 0.26 -0.07 -0.28 -0.1 -0.34 -0.12 -0.39 -0.14 -0.44 -0.17 -0.49 -0.18 -0.53 -0.2 -0.57 -0.22 -0.6 -0.23 -0.64 -0.24 -0.66 -0.25 -0.68 -0.26 -0.7 -0.27 -0.72 -0.27 -0.73 -0.28 -0.74 -0.28 -0.74 -0.28 -0.74 -0.28 -0.74 -0.27 -0.73 -0.27 -0.72 -0.26 -0.71 -0.25 -0.69 -0.24 -0.67 -0.23 -0.64 -0.22 -0.61 -0.2 -0.58 -0.19 -0.55 -0.17 -0.51 -0.15 -0.46 -0.13 -0.42 -0.11 -0.37 -0.08 -0.32 0.55 0.44zm-0.55 -0.44c-0.07,-0.31 0.12,-0.61 0.42,-0.68 0.31,-0.07 0.61,0.12 0.68,0.42l-1.11 0.26zm-2.23 -0.7l2.78 0 0 1.14 -2.78 0 -0.54 -0.75 0.54 -0.39zm0 1.14c-0.31,0 -0.57,-0.25 -0.57,-0.57 0,-0.31 0.25,-0.57 0.57,-0.57l0 1.14zm-6.74 18.03l6.2 -18.77 1.08 0.36 -6.2 18.77 -0.54 0.39 -0.54 -0.75zm1.08 0.36c-0.1,0.3 -0.42,0.46 -0.72,0.36 -0.3,-0.1 -0.46,-0.42 -0.36,-0.72l1.08 0.36zm-77.69 26.77l-2.73 0.02 -0.01 -1.14 2.73 -0.02 0.56 0.7 -0.55 0.44zm-0.01 -1.14c0.31,-0 0.57,0.25 0.57,0.56 0,0.31 -0.25,0.57 -0.56,0.57l-0.01 -1.14zm1.74 -5.9l0 1.14 0.55 -0.44 -0.05 0.19 -0.05 0.19 -0.05 0.19 -0.05 0.19 -0.05 0.19 -0.05 0.19 -0.06 0.19 -0.06 0.19 -0.06 0.19 -0.06 0.19 -0.06 0.19 -0.06 0.19 -0.06 0.19 -0.06 0.19 -0.06 0.19 -0.06 0.19 -0.06 0.18 -0.06 0.19 -0.06 0.18 -0.06 0.18 -0.06 0.18 -0.06 0.18 -0.06 0.18 -0.06 0.18 -0.05 0.18 -0.05 0.18 -0.05 0.18 -0.05 0.18 -0.05 0.18 -0.05 0.18 -0.04 0.18 -0.04 0.18 -1.11 -0.26 0.05 -0.19 0.05 -0.19 0.05 -0.19 0.05 -0.19 0.05 -0.19 0.05 -0.19 0.05 -0.18 0.06 -0.19 0.06 -0.19 0.06 -0.19 0.06 -0.19 0.06 -0.18 0.06 -0.19 0.06 -0.19 0.06 -0.19 0.06 -0.18 0.06 -0.19 0.06 -0.18 0.06 -0.19 0.06 -0.19 0.06 -0.18 0.06 -0.18 0.06 -0.18 0.06 -0.18 0.06 -0.18 0.05 -0.18 0.05 -0.18 0.05 -0.18 0.05 -0.18 0.05 -0.18 0.05 -0.18 0.04 -0.18 0.55 -0.44zm-0.55 0.44c0.07,-0.31 0.38,-0.5 0.68,-0.42 0.31,0.07 0.5,0.38 0.42,0.68l-1.11 -0.26zm6.8 0.7l-6.25 0 0 -1.14 6.25 0 0.51 0.32 -0.51 0.81zm0 -1.14c0.31,0 0.57,0.25 0.57,0.57 0,0.31 -0.25,0.57 -0.57,0.57l0 -1.14zm2.08 5.9l0 1.14 -0.51 -0.32 -0.08 -0.18 -0.08 -0.18 -0.08 -0.18 -0.07 -0.18 -0.07 -0.19 -0.07 -0.19 -0.07 -0.19 -0.06 -0.19 -0.07 -0.19 -0.06 -0.2 -0.06 -0.19 -0.06 -0.19 -0.06 -0.2 -0.06 -0.19 -0.06 -0.2 -0.06 -0.2 -0.06 -0.2 -0.06 -0.19 -0.06 -0.19 -0.06 -0.19 -0.06 -0.19 -0.06 -0.19 -0.06 -0.18 -0.06 -0.18 -0.06 -0.18 -0.06 -0.18 -0.06 -0.18 -0.07 -0.17 -0.07 -0.17 -0.07 -0.16 -0.07 -0.16 -0.07 -0.15 1.02 -0.49 0.08 0.18 0.08 0.18 0.08 0.18 0.07 0.18 0.07 0.19 0.07 0.19 0.07 0.19 0.06 0.19 0.07 0.19 0.06 0.2 0.06 0.19 0.06 0.19 0.06 0.2 0.06 0.19 0.06 0.2 0.06 0.2 0.06 0.19 0.06 0.19 0.06 0.19 0.06 0.19 0.06 0.19 0.06 0.19 0.06 0.18 0.06 0.18 0.06 0.18 0.06 0.18 0.06 0.18 0.07 0.17 0.07 0.17 0.07 0.16 0.07 0.16 0.07 0.15 -0.51 -0.32zm0.51 0.32c0.14,0.28 0.02,0.62 -0.27,0.76 -0.28,0.14 -0.62,0.02 -0.76,-0.27l1.02 -0.49zm2.27 0.81l-2.78 0 0 -1.14 2.78 0 0.55 0.44 -0.55 0.7zm0 -1.14c0.31,0 0.57,0.25 0.57,0.57 0,0.31 -0.25,0.57 -0.57,0.57l0 -1.14zm-6.6 -17.62l0 -1.14 0.55 0.44 0.07 0.29 0.1 0.35 0.12 0.4 0.14 0.45 0.17 0.5 0.18 0.54 0.2 0.58 0.22 0.61 0.23 0.64 0.24 0.67 0.25 0.69 0.26 0.71 0.27 0.72 0.27 0.73 0.28 0.74 0.28 0.74 0.28 0.74 0.28 0.74 0.27 0.73 0.27 0.72 0.26 0.71 0.25 0.69 0.24 0.66 0.23 0.64 0.22 0.61 0.2 0.58 0.19 0.54 0.17 0.5 0.15 0.46 0.13 0.41 0.1 0.36 0.08 0.32 -1.11 0.26 -0.07 -0.28 -0.1 -0.34 -0.12 -0.39 -0.14 -0.44 -0.17 -0.49 -0.18 -0.53 -0.2 -0.57 -0.22 -0.6 -0.23 -0.64 -0.24 -0.66 -0.25 -0.68 -0.26 -0.7 -0.27 -0.72 -0.27 -0.73 -0.28 -0.74 -0.28 -0.74 -0.28 -0.74 -0.28 -0.74 -0.27 -0.73 -0.27 -0.72 -0.26 -0.71 -0.25 -0.69 -0.24 -0.67 -0.23 -0.64 -0.22 -0.62 -0.2 -0.58 -0.19 -0.55 -0.17 -0.51 -0.15 -0.46 -0.13 -0.42 -0.11 -0.37 -0.08 -0.32 0.55 0.44zm-0.55 -0.44c-0.07,-0.31 0.12,-0.61 0.42,-0.68 0.31,-0.07 0.61,0.12 0.68,0.42l-1.11 0.26zm-2.23 -0.7l2.78 0 0 1.14 -2.78 0 -0.54 -0.75 0.54 -0.39zm0 1.14c-0.31,0 -0.57,-0.25 -0.57,-0.57 0,-0.31 0.25,-0.57 0.57,-0.57l0 1.14zm-6.74 18.03l6.2 -18.77 1.08 0.36 -6.2 18.77 -0.54 0.39 -0.54 -0.75zm1.08 0.36c-0.1,0.3 -0.42,0.46 -0.72,0.36 -0.3,-0.1 -0.46,-0.42 -0.36,-0.72l1.08 0.36zm-73.18 -26.02l-2.08 0 0 -1.14 2.08 0 0.57 0.57 -0.57 0.57zm0 -1.14c0.31,0 0.57,0.25 0.57,0.57 0,0.31 -0.25,0.57 -0.57,0.57l0 -1.14zm0.57 -13.33l0 13.89 -1.14 0 0 -13.89 0.9 -0.46 0.23 0.46zm-1.14 0c0,-0.31 0.25,-0.57 0.57,-0.57 0.31,0 0.57,0.25 0.57,0.57l-1.14 0zm3.12 2.86l-0.98 0.57 0.01 0.01 -0.06 -0.1 -0.06 -0.1 -0.06 -0.1 -0.06 -0.1 -0.06 -0.11 -0.06 -0.11 -0.06 -0.11 -0.06 -0.11 -0.06 -0.11 -0.06 -0.11 -0.06 -0.11 -0.06 -0.11 -0.06 -0.11 -0.06 -0.11 -0.06 -0.11 -0.06 -0.11 -0.06 -0.11 -0.06 -0.1 -0.06 -0.1 -0.06 -0.1 -0.06 -0.1 -0.06 -0.09 -0.06 -0.09 -0.06 -0.09 -0.06 -0.08 -0.06 -0.08 -0.06 -0.07 -0.06 -0.07 -0.06 -0.06 -0.06 -0.05 -0.06 -0.05 -0.05 -0.04 0.67 -0.92 0.1 0.08 0.1 0.08 0.09 0.09 0.09 0.09 0.09 0.09 0.08 0.1 0.08 0.1 0.08 0.1 0.08 0.11 0.08 0.11 0.07 0.11 0.07 0.11 0.07 0.11 0.07 0.11 0.07 0.11 0.07 0.12 0.07 0.11 0.07 0.12 0.06 0.12 0.06 0.12 0.06 0.11 0.06 0.11 0.06 0.11 0.06 0.11 0.06 0.11 0.06 0.11 0.06 0.1 0.05 0.1 0.05 0.09 0.05 0.09 0.05 0.09 0.05 0.08 0.01 0.01zm-0.01 -0.01c0.16,0.27 0.07,0.62 -0.19,0.78 -0.27,0.16 -0.62,0.07 -0.78,-0.19l0.97 -0.59zm3.09 7.62l-4.07 -7.05 0.98 -0.57 4.07 7.05 0.01 0.01 -0.99 0.56zm0.98 -0.57c0.16,0.27 0.06,0.62 -0.21,0.78 -0.27,0.16 -0.62,0.06 -0.78,-0.21l0.98 -0.57zm1.36 3.42l0 1.14 -0.55 -0.44 -0.03 -0.12 -0.03 -0.12 -0.03 -0.11 -0.04 -0.11 -0.04 -0.11 -0.04 -0.11 -0.04 -0.11 -0.04 -0.11 -0.05 -0.11 -0.05 -0.11 -0.05 -0.1 -0.05 -0.1 -0.05 -0.1 -0.06 -0.1 -0.06 -0.1 -0.06 -0.1 -0.06 -0.11 -0.06 -0.1 -0.06 -0.11 -0.06 -0.11 -0.07 -0.11 -0.07 -0.11 -0.07 -0.11 -0.07 -0.11 -0.07 -0.11 -0.07 -0.12 -0.07 -0.12 -0.07 -0.12 -0.07 -0.12 -0.07 -0.12 -0.07 -0.13 -0.07 -0.13 1 -0.55 0.07 0.12 0.07 0.12 0.07 0.12 0.07 0.12 0.07 0.11 0.07 0.11 0.07 0.11 0.07 0.11 0.07 0.11 0.07 0.11 0.07 0.11 0.07 0.11 0.07 0.11 0.07 0.11 0.07 0.11 0.07 0.11 0.06 0.11 0.06 0.11 0.06 0.12 0.06 0.12 0.06 0.12 0.06 0.12 0.06 0.12 0.05 0.12 0.05 0.13 0.05 0.13 0.05 0.13 0.05 0.13 0.05 0.14 0.04 0.14 0.04 0.14 0.04 0.15 -0.55 -0.44zm0.55 0.44c0.07,0.31 -0.12,0.61 -0.42,0.68 -0.31,0.07 -0.61,-0.12 -0.68,-0.42l1.11 -0.26zm2.23 0.7l-2.78 0 0 -1.14 2.78 0 0.57 0.57 -0.57 0.57zm0 -1.14c0.31,0 0.57,0.25 0.57,0.57 0,0.31 -0.25,0.57 -0.57,0.57l0 -1.14zm0.57 -18.19l0 18.76 -1.14 0 0 -18.76 0.57 -0.57 0.57 0.57zm-1.14 0c0,-0.31 0.25,-0.57 0.57,-0.57 0.31,0 0.57,0.25 0.57,0.57l-1.14 0zm-1.86 -0.57l2.43 0 0 1.14 -2.43 0 -0.57 -0.57 0.57 -0.57zm0 1.14c-0.31,0 -0.57,-0.25 -0.57,-0.57 0,-0.31 0.25,-0.57 0.57,-0.57l0 1.14zm-0.57 12.98l0 -13.55 1.14 0 0 13.55 -0.9 0.46 -0.23 -0.46zm1.14 0c0,0.31 -0.25,0.57 -0.57,0.57 -0.31,0 -0.57,-0.25 -0.57,-0.57l1.14 0zm-8.31 -11.91l0.98 -0.58 0 0 0.12 0.21 0.14 0.25 0.16 0.29 0.18 0.32 0.2 0.35 0.21 0.38 0.23 0.41 0.24 0.43 0.25 0.45 0.26 0.47 0.27 0.48 0.28 0.49 0.28 0.5 0.29 0.51 0.29 0.51 0.29 0.51 0.29 0.51 0.29 0.5 0.28 0.49 0.28 0.47 0.27 0.46 0.26 0.44 0.25 0.42 0.24 0.39 0.23 0.37 0.21 0.33 0.2 0.3 0.18 0.26 0.16 0.22 0.13 0.17 0.1 0.11 0.04 0.04 -0.67 0.92 -0.17 -0.15 -0.16 -0.18 -0.17 -0.21 -0.18 -0.25 -0.19 -0.28 -0.21 -0.31 -0.22 -0.35 -0.24 -0.38 -0.25 -0.4 -0.26 -0.43 -0.27 -0.45 -0.27 -0.46 -0.28 -0.48 -0.28 -0.49 -0.29 -0.5 -0.29 -0.51 -0.29 -0.51 -0.29 -0.51 -0.29 -0.51 -0.28 -0.5 -0.28 -0.5 -0.27 -0.48 -0.26 -0.47 -0.25 -0.45 -0.24 -0.43 -0.23 -0.41 -0.21 -0.38 -0.2 -0.35 -0.18 -0.32 -0.16 -0.28 -0.14 -0.24 -0.12 -0.2 0 0zm0 0c-0.16,-0.27 -0.07,-0.62 0.2,-0.78 0.27,-0.16 0.62,-0.07 0.78,0.2l-0.98 0.58zm-2.11 -1.64l-1.14 0 0.57 -0.57 0.27 0 0.25 -0 0.23 -0 0.21 -0 0.2 0 0.18 0 0.17 0 0.15 0 0.14 0.01 0.13 0.01 0.13 0.01 0.12 0.01 0.12 0.02 0.12 0.03 0.11 0.04 0.11 0.05 0.11 0.06 0.1 0.07 0.09 0.08 0.07 0.08 0.07 0.09 0.06 0.09 0.05 0.08 0.05 0.08 0.04 0.09 0.04 0.08 0.05 0.09 0.05 0.1 0.05 0.1 0.06 0.11 0.06 0.12 0.07 0.12 -0.98 0.58 -0.08 -0.14 -0.07 -0.13 -0.07 -0.12 -0.06 -0.12 -0.05 -0.1 -0.05 -0.09 -0.04 -0.08 -0.03 -0.07 -0.03 -0.06 -0.03 -0.04 -0.02 -0.03 -0.01 -0.01 -0.01 -0.01 0 0 0 0 0 0 -0.01 -0 -0.02 -0.01 -0.03 -0.01 -0.05 -0.01 -0.07 -0.01 -0.09 -0.01 -0.1 -0.01 -0.12 -0 -0.14 -0 -0.16 -0 -0.18 -0 -0.19 0 -0.21 0 -0.23 0 -0.25 0 -0.27 0 0.57 -0.57zm-0.57 0.57c-0.31,0 -0.57,-0.25 -0.57,-0.57 0,-0.31 0.25,-0.57 0.57,-0.57l0 1.14zm-0.57 18.19l0 -18.76 1.14 0 0 18.76 -0.57 0.57 -0.57 -0.57zm1.14 0c0,0.31 -0.25,0.57 -0.57,0.57 -0.31,0 -0.57,-0.25 -0.57,-0.57l1.14 0zm28.94 -2.71l-0.85 0.75 0 -0 -0.2 -0.24 -0.19 -0.24 -0.18 -0.24 -0.16 -0.25 -0.15 -0.25 -0.14 -0.25 -0.13 -0.25 -0.12 -0.26 -0.11 -0.26 -0.1 -0.26 -0.09 -0.26 -0.08 -0.26 -0.07 -0.26 -0.07 -0.27 -0.06 -0.27 -0.05 -0.27 -0.05 -0.27 -0.04 -0.27 -0.03 -0.27 -0.03 -0.27 -0.02 -0.27 -0.02 -0.27 -0.01 -0.27 -0.01 -0.27 -0.01 -0.27 -0.01 -0.27 -0 -0.28 -0 -0.28 -0 -0.28 0 -0.28 0 -0.28 0 -0.28 1.14 0 0 0.28 0 0.28 0 0.27 0 0.27 0 0.27 0 0.27 0.01 0.27 0.01 0.26 0.01 0.26 0.01 0.26 0.02 0.26 0.02 0.25 0.03 0.25 0.03 0.25 0.03 0.25 0.04 0.24 0.05 0.24 0.05 0.24 0.06 0.23 0.06 0.23 0.07 0.23 0.08 0.23 0.09 0.22 0.09 0.22 0.1 0.22 0.11 0.22 0.12 0.21 0.13 0.21 0.14 0.21 0.15 0.21 0.16 0.2 0.17 0.2 0 -0zm0 0c0.21,0.24 0.18,0.59 -0.05,0.8 -0.24,0.21 -0.59,0.18 -0.8,-0.05l0.85 -0.75zm12.65 -7.01l1.14 0 0 0 -0.03 1.02 -0.08 0.97 -0.13 0.92 -0.18 0.86 -0.22 0.82 -0.27 0.76 -0.31 0.71 -0.35 0.66 -0.39 0.61 -0.42 0.56 -0.45 0.51 -0.48 0.46 -0.51 0.41 -0.53 0.36 -0.55 0.31 -0.57 0.26 -0.59 0.21 -0.6 0.16 -0.6 0.11 -0.61 0.06 -0.61 0.01 -0.61 -0.04 -0.61 -0.09 -0.6 -0.14 -0.6 -0.18 -0.58 -0.23 -0.57 -0.27 -0.56 -0.32 -0.54 -0.36 -0.52 -0.41 -0.49 -0.45 -0.46 -0.49 0.85 -0.75 0.41 0.43 0.43 0.39 0.45 0.35 0.47 0.32 0.48 0.28 0.5 0.24 0.51 0.2 0.51 0.16 0.52 0.12 0.52 0.07 0.52 0.04 0.52 -0.01 0.52 -0.05 0.51 -0.09 0.51 -0.13 0.5 -0.17 0.48 -0.22 0.47 -0.26 0.45 -0.31 0.44 -0.35 0.41 -0.39 0.39 -0.44 0.37 -0.49 0.34 -0.54 0.31 -0.59 0.28 -0.64 0.24 -0.69 0.2 -0.74 0.16 -0.79 0.12 -0.85 0.07 -0.9 0.03 -0.96 0 0zm0 0c0,-0.31 0.25,-0.57 0.57,-0.57 0.31,0 0.57,0.25 0.57,0.57l-1.14 0zm-14.49 -0.69l-1.14 0 0 0 0.05 -1.09 0.14 -1.03 0.22 -0.97 0.3 -0.9 0.38 -0.84 0.45 -0.77 0.51 -0.7 0.56 -0.63 0.61 -0.56 0.66 -0.48 0.69 -0.41 0.73 -0.34 0.75 -0.26 0.77 -0.19 0.78 -0.11 0.79 -0.04 0.79 0.04 0.78 0.12 0.77 0.2 0.75 0.27 0.73 0.35 0.7 0.43 0.66 0.51 0.61 0.59 0.56 0.67 0.51 0.75 0.44 0.82 0.38 0.9 0.3 0.98 0.22 1.05 0.14 1.13 0.05 1.2 -1.14 0 -0.04 -1.11 -0.12 -1.03 -0.2 -0.95 -0.27 -0.87 -0.33 -0.8 -0.39 -0.72 -0.44 -0.65 -0.49 -0.58 -0.53 -0.51 -0.56 -0.44 -0.59 -0.37 -0.62 -0.3 -0.64 -0.23 -0.66 -0.17 -0.67 -0.1 -0.68 -0.04 -0.68 0.03 -0.67 0.1 -0.66 0.16 -0.64 0.22 -0.62 0.29 -0.6 0.35 -0.57 0.41 -0.53 0.48 -0.49 0.54 -0.44 0.6 -0.39 0.67 -0.33 0.73 -0.27 0.8 -0.2 0.86 -0.12 0.93 -0.04 1 0 0zm0 0c0,0.31 -0.25,0.57 -0.57,0.57 -0.31,0 -0.57,-0.25 -0.57,-0.57l1.14 0zm-23.51 34.1l-0.85 0.75 0 -0 -0.2 -0.24 -0.19 -0.24 -0.18 -0.24 -0.16 -0.25 -0.15 -0.25 -0.14 -0.25 -0.13 -0.25 -0.12 -0.26 -0.11 -0.26 -0.1 -0.26 -0.09 -0.26 -0.08 -0.26 -0.07 -0.26 -0.07 -0.27 -0.06 -0.27 -0.05 -0.27 -0.05 -0.27 -0.04 -0.27 -0.03 -0.27 -0.03 -0.27 -0.02 -0.27 -0.02 -0.27 -0.01 -0.27 -0.01 -0.27 -0.01 -0.27 -0.01 -0.27 -0 -0.28 -0 -0.28 -0 -0.28 0 -0.28 0 -0.28 0 -0.28 1.14 0 0 0.28 0 0.28 0 0.27 0 0.27 0 0.27 0 0.27 0.01 0.27 0.01 0.26 0.01 0.26 0.01 0.26 0.02 0.26 0.02 0.25 0.03 0.25 0.03 0.25 0.03 0.25 0.04 0.24 0.05 0.24 0.05 0.24 0.06 0.23 0.06 0.23 0.07 0.23 0.08 0.23 0.09 0.22 0.09 0.22 0.1 0.22 0.11 0.22 0.12 0.21 0.13 0.21 0.14 0.21 0.15 0.21 0.16 0.2 0.17 0.2 0 -0zm0 0c0.21,0.24 0.18,0.59 -0.05,0.8 -0.24,0.21 -0.59,0.18 -0.8,-0.05l0.85 -0.75zm12.65 -7.01l1.14 0 0 0 -0.03 1.02 -0.08 0.97 -0.13 0.92 -0.18 0.86 -0.22 0.82 -0.27 0.76 -0.31 0.71 -0.35 0.66 -0.39 0.61 -0.42 0.56 -0.45 0.51 -0.48 0.46 -0.51 0.41 -0.53 0.36 -0.55 0.31 -0.57 0.26 -0.59 0.21 -0.6 0.16 -0.6 0.11 -0.61 0.06 -0.61 0.01 -0.61 -0.04 -0.61 -0.09 -0.6 -0.14 -0.6 -0.18 -0.58 -0.23 -0.57 -0.27 -0.56 -0.32 -0.54 -0.36 -0.52 -0.41 -0.49 -0.45 -0.46 -0.49 0.85 -0.75 0.41 0.43 0.43 0.39 0.45 0.35 0.47 0.32 0.48 0.28 0.5 0.24 0.51 0.2 0.51 0.16 0.52 0.12 0.52 0.07 0.52 0.04 0.52 -0.01 0.52 -0.05 0.51 -0.09 0.51 -0.13 0.5 -0.17 0.48 -0.22 0.47 -0.26 0.45 -0.31 0.44 -0.35 0.41 -0.39 0.39 -0.44 0.37 -0.49 0.34 -0.54 0.31 -0.59 0.28 -0.64 0.24 -0.69 0.2 -0.74 0.16 -0.79 0.12 -0.85 0.07 -0.9 0.03 -0.96 0 0zm0 0c0,-0.31 0.25,-0.57 0.57,-0.57 0.31,0 0.57,0.25 0.57,0.57l-1.14 0zm-14.49 -0.7l-1.14 0 0 0 0.05 -1.09 0.14 -1.03 0.22 -0.97 0.3 -0.9 0.38 -0.84 0.45 -0.77 0.51 -0.7 0.56 -0.63 0.61 -0.56 0.66 -0.48 0.7 -0.41 0.73 -0.34 0.75 -0.26 0.77 -0.19 0.78 -0.11 0.79 -0.04 0.79 0.04 0.78 0.12 0.77 0.2 0.75 0.27 0.73 0.35 0.7 0.43 0.66 0.51 0.61 0.59 0.56 0.67 0.51 0.75 0.44 0.82 0.38 0.9 0.3 0.98 0.22 1.05 0.14 1.13 0.05 1.2 -1.14 0 -0.04 -1.11 -0.12 -1.03 -0.2 -0.95 -0.27 -0.87 -0.33 -0.8 -0.39 -0.72 -0.44 -0.65 -0.49 -0.58 -0.53 -0.51 -0.56 -0.44 -0.59 -0.37 -0.62 -0.3 -0.64 -0.23 -0.66 -0.17 -0.67 -0.1 -0.68 -0.04 -0.68 0.03 -0.67 0.1 -0.66 0.16 -0.64 0.22 -0.62 0.29 -0.6 0.35 -0.57 0.42 -0.53 0.48 -0.49 0.54 -0.44 0.6 -0.39 0.67 -0.33 0.73 -0.27 0.8 -0.2 0.86 -0.12 0.93 -0.04 1 0 0zm0 0c0,0.31 -0.25,0.57 -0.57,0.57 -0.31,0 -0.57,-0.25 -0.57,-0.57l1.14 0z"/>
   <path id="1" class="fil0" d="M172.62 176.79c0,2.97 -0.06,5.75 1.99,8.08 4.51,5.14 13.64,3.43 13.64,-7.39 0,-12.76 -15.63,-12.18 -15.63,-0.69zm-0.35 28.83l4.86 0 -2.49 -7.48 -2.37 7.48zm-75.72 -2.08c0,2.26 0,4.21 1.32,5.97 5.25,7 12.54,-2.76 8.18,-10.27 -2.96,-5.11 -9.5,-2.32 -9.5,4.29zm25.35 -26.4c0,2.26 -0,4.21 1.32,5.97 5.25,7 12.54,-2.76 8.18,-10.27 -2.96,-5.11 -9.5,-2.31 -9.5,4.29zm53.14 0c0,2.26 0,4.21 1.32,5.97 5.25,7 12.54,-2.76 8.18,-10.27 -2.96,-5.11 -9.5,-2.31 -9.5,4.29zm77.11 2.08l4.86 0 -2.35 -7.31 -2.51 7.31zm-20.49 7.99l2.43 0 0 -18.76 -2.43 0 0 18.76zm-79.88 26.4l2.43 0 0 -18.76 -2.43 0 0 18.76zm-2.78 -26.4l10.42 0 0 -2.08 -7.99 0 0 -16.67 -2.43 0 0 18.76zm46.19 26.4l10.42 0 0 -2.08 -7.99 0 0 -16.67 -2.43 0 0 18.76zm-183.73 -43.07l5.21 0 0 16.67 2.43 0 0 -16.67 5.56 0 0 -2.08 -13.2 0 0 2.08zm52.45 5.9c0,6.62 1.1,11.11 8.34,11.11 3.68,0 5.54,-3.22 6.25,-6.25 -0.76,-0.37 -1.37,-0.61 -2.43,-0.7 -0.44,0.91 -1.26,4.86 -4.52,4.86 -8.37,0 -5.97,-19.17 2.09,-14.6 1.36,0.77 1.69,1.79 2.08,3.48 0.69,-0.33 1.6,-0.5 2.43,-0.7 -2.12,-9.11 -14.24,-6.46 -14.24,2.78zm59.05 26.4c0,6.62 1.1,11.11 8.34,11.11 3.68,0 5.54,-3.22 6.25,-6.25 -0.76,-0.37 -1.37,-0.61 -2.43,-0.7 -0.52,1.08 -0.68,2.25 -1.37,3.14 -2.46,3.2 -8.35,2.14 -8.35,-5.92 0,-3.25 0.93,-6.11 3.3,-7.13 2.94,-1.28 5.27,0.17 6.08,3.66 0.69,-0.33 1.6,-0.5 2.43,-0.7 -2.12,-9.11 -14.24,-6.46 -14.24,2.78zm-84.75 -15.63l12.16 0 0 -2.08 -9.72 0 0 -6.6 8.68 0 0 -2.08 -8.68 0 0 -5.9 9.38 0 0 -2.08 -11.81 0 0 18.76zm29.87 12.5c0,4.09 4.09,4.98 7.3,5.9 8.67,2.48 -3.25,11.67 -5.56,1.74l-2.08 0c0,9.27 12.85,8.25 12.85,1.39 0,-2.97 -0.38,-4.51 -4.29,-5.79 -1.92,-0.62 -5.79,-1.03 -5.79,-3.24 0,-3.94 6.88,-4.61 7.29,0.35l2.43 0c-0.17,-7.69 -12.16,-7.2 -12.16,-0.35zm133.37 -21.88c0,14.19 15.28,9.66 15.28,6.25l0 -6.6 -7.29 0 0 2.08 4.86 0c0,3.11 0.46,3.91 -1.6,5 -2.88,1.53 -5.83,0.82 -7.3,-1.31 -2.34,-3.4 -1.91,-10.14 1.44,-12.19 1.86,-1.13 4.25,-1.1 5.93,0.3 0.92,0.77 1.04,1.96 1.53,2.99 0.84,-0.2 1.39,-0.36 2.08,-0.7 -0.65,-7.81 -14.93,-8.52 -14.93,4.17zm45.55 9.39l2.73 -0.02c0.45,-1.93 1.27,-3.91 1.74,-5.9l6.25 0c0.84,1.74 1.25,4.16 2.08,5.9l2.78 0c-0.66,-2.84 -5.91,-15.81 -6.6,-18.76l-2.78 0 -6.2 18.77zm-79.88 26.4l2.73 -0.02c0.45,-1.93 1.27,-3.91 1.74,-5.9l6.25 0c0.84,1.74 1.25,4.16 2.08,5.9l2.78 0c-0.66,-2.84 -5.91,-15.81 -6.6,-18.76l-2.78 0 -6.2 18.77zm-74.72 -26.41l2.08 0 0 -13.89c0.83,0.61 1.5,2.22 2.06,3.15l4.07 7.05c0.73,1.33 1.52,2.26 1.86,3.7l2.78 0 0 -18.76 -2.43 0 0 13.55c-1.01,-0.74 -6.09,-10.24 -7.25,-12.2 -0.87,-1.48 -0.14,-1.35 -3.17,-1.35l0 18.76zm27.09 -10.42c0,2.97 -0.06,5.75 1.99,8.08 4.51,5.14 13.64,3.43 13.64,-7.39 0,-12.76 -15.63,-12.18 -15.63,-0.69zm-25.35 26.4c0,2.97 -0.06,5.75 1.99,8.08 4.51,5.14 13.64,3.43 13.64,-7.39 0,-12.76 -15.63,-12.18 -15.63,-0.7z"/>
  </g>
 </g>
</svg>
