<?xml version="1.0" encoding="UTF-8"?>
<!DOCTYPE svg PUBLIC "-//W3C//DTD SVG 1.1//EN" "http://www.w3.org/Graphics/SVG/1.1/DTD/svg11.dtd">
<!-- Creator: CorelDRAW 2020 (64 Bit) -->
<svg xmlns="http://www.w3.org/2000/svg" xml:space="preserve" width="40.6194mm" height="16.624mm" version="1.1" style="shape-rendering:geometricPrecision; text-rendering:geometricPrecision; image-rendering:optimizeQuality; fill-rule:evenodd; clip-rule:evenodd"
viewBox="0 0 1096.69 448.83"
 xmlns:xlink="http://www.w3.org/1999/xlink"
 xmlns:xodm="http://www.corel.com/coreldraw/odm/2003">
 <defs>
  <style type="text/css">
   <![CDATA[
    .fil1 {fill:white}
    .fil0 {fill:white;fill-rule:nonzero}
   ]]>
  </style>
 </defs>
 <g id="Camada_x0020_1">
  <metadata id="CorelCorpID_0Corel-Layer"/>
  <path class="fil0" d="M432.96 330.82l18.4 -58.24 6.78 0 19.48 58.24 -7.22 0 -5.49 -17.65 -20.13 0 -5.16 17.65 -6.64 0zm13.65 -23.92l16.35 0 -5 -16.13c-1.54,-4.95 -2.68,-8.97 -3.4,-12.08 -0.62,3.74 -1.49,7.44 -2.62,11.13l-5.33 17.08z"/>
  <path id="1" class="fil0" d="M533.66 307.96l0 -6.83 20.17 0 0 21.6c-3.09,3.01 -6.3,5.28 -9.61,6.79 -3.31,1.52 -6.71,2.28 -10.21,2.28 -4.66,0 -8.81,-1.17 -12.47,-3.5 -3.64,-2.33 -6.55,-5.72 -8.67,-10.19 -2.13,-4.47 -3.2,-9.86 -3.2,-16.12 0,-6.36 1.07,-11.89 3.21,-16.61 2.15,-4.7 4.96,-8.19 8.43,-10.42 3.47,-2.24 7.58,-3.35 12.32,-3.35 3.5,0 6.55,0.65 9.18,1.95 2.62,1.3 4.78,3.15 6.48,5.53 1.7,2.4 2.96,5.67 3.81,9.84l-5.69 1.87c-0.77,-3.29 -1.74,-5.75 -2.9,-7.38 -1.17,-1.63 -2.7,-2.91 -4.61,-3.84 -1.91,-0.93 -4.05,-1.4 -6.44,-1.4 -3.47,0 -6.45,0.84 -8.96,2.52 -2.51,1.68 -4.51,4.3 -6.03,7.85 -1.53,3.55 -2.29,7.88 -2.29,12.99 0,7.79 1.63,13.62 4.89,17.52 3.25,3.88 7.49,5.82 12.72,5.82 2.49,0 5.04,-0.6 7.65,-1.79 2.62,-1.19 4.69,-2.62 6.22,-4.26l0 -10.87 -13.99 0z"/>
  <path id="2" class="fil0" d="M591.67 330.82l0 -58.24 34.49 0 0 6.83 -28.15 0 0 17.9 26.44 0 0 6.83 -26.44 0 0 19.85 29.28 0 0 6.83 -35.63 0zm17.41 -68.99l-3.66 6.77 -6.67 0 7 -11.14 6.26 0 7.32 11.14 -6.67 0 -3.58 -6.77z"/>
  <polygon id="3" class="fil0" points="664.29,330.82 664.29,272.57 670.79,272.57 695.85,318.41 695.85,272.57 701.87,272.57 701.87,330.82 695.42,330.82 670.39,285.06 670.39,330.82 "/>
  <path id="4" class="fil0" d="M774.99 310.4l6.34 1.95c-1.4,6.53 -3.86,11.4 -7.36,14.61 -3.51,3.21 -7.78,4.83 -12.81,4.83 -4.42,0 -8.2,-1.09 -11.35,-3.24 -3.13,-2.15 -5.69,-5.61 -7.7,-10.38 -1.99,-4.76 -3,-10.38 -3,-16.86 0,-6.42 1,-11.84 3,-16.27 2.01,-4.43 4.72,-7.78 8.13,-10.05 3.42,-2.26 7.22,-3.39 11.44,-3.39 4.61,0 8.57,1.44 11.87,4.3 3.31,2.87 5.63,7.08 6.95,12.62l-6.18 1.79c-2.11,-8.08 -6.37,-12.12 -12.77,-12.12 -3.17,0 -5.94,0.81 -8.27,2.44 -2.33,1.63 -4.19,4.16 -5.58,7.61 -1.4,3.44 -2.09,7.79 -2.09,13.07 0,7.96 1.41,13.93 4.22,17.92 2.81,3.99 6.53,5.98 11.2,5.98 3.45,0 6.43,-1.22 8.92,-3.67 2.51,-2.44 4.19,-6.15 5.03,-11.13z"/>
  <polygon id="5" class="fil0" points="818.9,330.82 818.9,272.57 825.25,272.57 825.25,330.82 "/>
  <path id="6" class="fil0" d="M859.49 330.82l18.4 -58.24 6.78 0 19.48 58.24 -7.22 0 -5.49 -17.65 -20.13 0 -5.16 17.65 -6.64 0zm13.65 -23.92l16.35 0 -5 -16.13c-1.54,-4.95 -2.68,-8.97 -3.4,-12.08 -0.62,3.74 -1.49,7.44 -2.62,11.13l-5.33 17.08z"/>
  <path id="7" class="fil0" d="M923.98 330.82l0 -58.24 16.47 0c4.07,0 7.17,0.35 9.29,1.07 2.78,0.92 5.18,2.63 7.23,5.08 2.03,2.47 3.62,5.57 4.76,9.31 1.14,3.76 1.71,8.2 1.71,13.34 0,6.59 -0.96,12.19 -2.9,16.78 -1.93,4.6 -4.4,7.85 -7.44,9.77 -3.02,1.91 -6.98,2.88 -11.88,2.88l-17.23 0zm6.34 -6.83l10.15 0c4.09,0 7.2,-0.66 9.31,-2.01 2.11,-1.34 3.74,-3.5 4.87,-6.47 1.51,-3.96 2.27,-8.69 2.27,-14.21 0,-5.93 -0.8,-10.58 -2.4,-13.95 -1.6,-3.39 -3.65,-5.65 -6.17,-6.79 -1.68,-0.77 -4.37,-1.15 -8.04,-1.15l-9.99 0 0 44.58z"/>
  <polygon id="8" class="fil0" points="1000.84,330.82 1000.84,272.57 1035.33,272.57 1035.33,279.41 1007.18,279.41 1007.18,297.3 1033.62,297.3 1033.62,304.14 1007.18,304.14 1007.18,323.98 1036.47,323.98 1036.47,330.82 "/>
  <polygon class="fil0" points="438.25,405.66 438.25,357.9 443.45,357.9 443.45,405.66 "/>
  <polygon id="1" class="fil0" points="475.67,405.66 475.67,357.9 480.99,357.9 501.55,395.48 501.55,357.9 506.49,357.9 506.49,405.66 501.19,405.66 480.67,368.14 480.67,405.66 "/>
  <path id="2" class="fil0" d="M537.22 382.41c0,-8.14 1.79,-14.39 5.38,-18.75 3.58,-4.37 8.05,-6.56 13.4,-6.56 3.46,0 6.6,0.98 9.45,2.92 2.85,1.95 5.1,4.79 6.77,8.52 1.66,3.71 2.49,8.15 2.49,13.28 0,7.07 -1.61,12.83 -4.82,17.28 -3.55,4.9 -8.18,7.36 -13.92,7.36 -5.78,0 -10.43,-2.51 -13.95,-7.55 -3.19,-4.56 -4.79,-10.05 -4.79,-16.5zm5.34 0.08c0,5.89 1.3,10.45 3.9,13.7 2.59,3.25 5.76,4.87 9.47,4.87 3.8,0 6.99,-1.63 9.57,-4.91 2.58,-3.28 3.87,-8.1 3.87,-14.46 0,-4.1 -0.67,-7.77 -1.99,-11.01 -1.02,-2.47 -2.56,-4.46 -4.61,-5.94 -2.06,-1.49 -4.3,-2.23 -6.74,-2.23 -3.91,0 -7.14,1.62 -9.67,4.88 -2.54,3.26 -3.8,8.29 -3.8,15.11z"/>
  <path id="3" class="fil0" d="M615.74 405.66l-15.14 -47.76 5.6 0 10.19 34.7c0.78,2.69 1.46,5.29 2.04,7.79 0.61,-2.61 1.31,-5.2 2.09,-7.79l10.62 -34.7 5.28 0 -15.33 47.76 -5.36 0z"/>
  <path id="4" class="fil0" d="M656.09 405.66l15.09 -47.76 5.56 0 15.98 47.76 -5.92 0 -4.5 -14.47 -16.51 0 -4.24 14.47 -5.45 0zm11.2 -19.61l13.41 0 -4.1 -13.23c-1.27,-4.06 -2.2,-7.36 -2.79,-9.91 -0.51,3.07 -1.22,6.1 -2.14,9.13l-4.37 14.01z"/>
  <path id="5" class="fil0" d="M747.99 388.92l5.2 1.6c-1.14,5.36 -3.17,9.35 -6.03,11.98 -2.88,2.63 -6.38,3.96 -10.51,3.96 -3.63,0 -6.73,-0.89 -9.31,-2.66 -2.57,-1.77 -4.67,-4.6 -6.32,-8.52 -1.63,-3.9 -2.46,-8.52 -2.46,-13.83 0,-5.26 0.82,-9.7 2.46,-13.34 1.65,-3.63 3.87,-6.38 6.67,-8.24 2.8,-1.85 5.93,-2.78 9.38,-2.78 3.78,0 7.03,1.18 9.74,3.52 2.71,2.36 4.61,5.8 5.7,10.35l-5.07 1.47c-1.74,-6.63 -5.22,-9.94 -10.47,-9.94 -2.6,0 -4.87,0.67 -6.78,2 -1.91,1.33 -3.43,3.41 -4.58,6.24 -1.14,2.82 -1.71,6.39 -1.71,10.72 0,6.53 1.16,11.43 3.46,14.7 2.3,3.27 5.36,4.9 9.18,4.9 2.82,0 5.27,-1 7.32,-3.01 2.06,-2 3.43,-5.05 4.12,-9.13zm-15.61 21.81l1.4 -5.8 3.6 0 -0.91 3.51c1.47,0.21 2.6,0.77 3.39,1.66 0.79,0.89 1.19,1.96 1.19,3.22 0,1.69 -0.68,3.12 -2.05,4.3 -1.36,1.19 -3.21,1.78 -5.57,1.78 -1.55,0 -2.88,-0.13 -3.99,-0.39l0.27 -3.81c1.17,0.09 2.05,0.13 2.67,0.13 1.47,0 2.54,-0.22 3.2,-0.68 0.67,-0.46 1,-1.04 1,-1.76 0,-0.67 -0.3,-1.19 -0.9,-1.57 -0.59,-0.38 -1.69,-0.58 -3.3,-0.6z"/>
  <path id="6" class="fil0" d="M778.73 405.66l15.09 -47.76 5.56 0 15.98 47.76 -5.92 0 -4.5 -14.47 -16.51 0 -4.24 14.47 -5.45 0zm11.2 -19.61l13.41 0 -4.1 -13.23c-1.27,-4.06 -2.2,-7.36 -2.79,-9.91 -0.51,3.07 -1.22,6.1 -2.14,9.13l-4.37 14.01zm-2.59 -31.42c-0.02,-2.31 0.5,-4.14 1.56,-5.46 1.04,-1.3 2.31,-1.95 3.83,-1.95 1.12,0 2.62,0.59 4.5,1.76 1.04,0.66 1.87,0.98 2.5,0.98 0.58,0 1.02,-0.19 1.31,-0.57 0.29,-0.37 0.5,-1.12 0.63,-2.23l3.47 0c-0.06,2.49 -0.59,4.35 -1.58,5.57 -0.99,1.22 -2.22,1.83 -3.7,1.83 -1.09,0 -2.56,-0.61 -4.4,-1.82 -1.19,-0.79 -2.06,-1.18 -2.6,-1.18 -0.59,0 -1.08,0.26 -1.47,0.76 -0.39,0.51 -0.59,1.28 -0.59,2.31l-3.47 0z"/>
  <path id="7" class="fil0" d="M841.43 382.41c0,-8.14 1.79,-14.39 5.38,-18.75 3.58,-4.37 8.05,-6.56 13.4,-6.56 3.46,0 6.6,0.98 9.45,2.92 2.85,1.95 5.1,4.79 6.77,8.52 1.66,3.71 2.49,8.15 2.49,13.28 0,7.07 -1.61,12.83 -4.82,17.28 -3.55,4.9 -8.18,7.36 -13.92,7.36 -5.78,0 -10.43,-2.51 -13.95,-7.55 -3.19,-4.56 -4.79,-10.05 -4.79,-16.5zm5.34 0.08c0,5.89 1.3,10.45 3.9,13.7 2.59,3.25 5.76,4.87 9.47,4.87 3.8,0 6.99,-1.63 9.57,-4.91 2.58,-3.28 3.87,-8.1 3.87,-14.46 0,-4.1 -0.67,-7.77 -1.99,-11.01 -1.02,-2.47 -2.56,-4.46 -4.61,-5.94 -2.06,-1.49 -4.3,-2.23 -6.74,-2.23 -3.91,0 -7.14,1.62 -9.67,4.88 -2.54,3.26 -3.8,8.29 -3.8,15.11z"/>
  <polygon id="8" class="fil0" points="906.27,391.32 906.27,385.45 921.01,385.45 921.01,391.32 "/>
  <path id="9" class="fil0" d="M975.84 357.9l5.2 0 0 27.58c0,4.62 -0.44,8.43 -1.34,11.38 -0.9,2.97 -2.54,5.3 -4.91,7.03 -2.37,1.71 -5.39,2.57 -9.05,2.57 -5.16,0 -9.02,-1.54 -11.59,-4.62 -2.57,-3.08 -3.86,-8.54 -3.86,-16.35l0 -27.58 5.2 0 0 27.57c0,4.32 0.33,7.46 1,9.38 0.68,1.93 1.78,3.41 3.3,4.43 1.52,1.01 3.38,1.51 5.56,1.51 3.68,0 6.35,-1.05 8,-3.12 1.66,-2.09 2.48,-6.16 2.48,-12.2l0 -27.57z"/>
  <polygon id="10" class="fil0" points="1013.52,405.66 1013.52,357.9 1039.93,357.9 1039.93,363.5 1018.72,363.5 1018.72,378.38 1037.06,378.38 1037.06,383.98 1018.72,383.98 1018.72,405.66 "/>
  <polygon id="11" class="fil0" points="1070.28,405.66 1070.28,357.9 1096.69,357.9 1096.69,363.5 1075.48,363.5 1075.48,378.38 1093.82,378.38 1093.82,383.98 1075.48,383.98 1075.48,405.66 "/>
  <polygon class="fil0" points="905.02,241.34 843.99,241.34 843.99,36.15 905.02,36.15 "/>
  <path class="fil0" d="M993.85 91.32l0 150.01 -61.03 0 0 -205.19 78.32 0c23.85,0 42.34,5.91 55.48,17.74 14.63,13.23 21.94,30.02 21.94,50.36 0,20.75 -9.08,38.24 -27.21,52.46l35.17 84.63 -64.04 0 -29.61 -66.13 0 -52.76 4.81 0c12.82,0 19.24,-5.51 19.24,-16.54 0,-9.72 -7.42,-14.58 -22.26,-14.58l-10.82 0z"/>
  <path class="fil1" d="M749.67 241.34c-57.11,0 -103.41,-46.29 -103.41,-103.4 0,-57.11 46.3,-103.41 103.41,-103.41l51.7 0 -5.28 60.33 -46.42 0c-23.79,0 -43.09,19.29 -43.09,43.08 0,23.8 19.29,43.09 43.09,43.09l10.95 0 1.51 -17.23 -21.08 0 3.01 -34.47 81.63 0 -6.25 71.45 -3.55 40.56 -66.22 0z"/>
  <polygon class="fil1" points="516.87,239.24 544.43,180.14 575.81,180.14 562.09,102.32 498.25,239.24 433.04,239.24 527.52,36.64 610.52,36.64 646.25,239.24 "/>
  <path class="fil0" d="M136.53 65.42l54.37 23.06 57.16 -24.27 0 -10.07 -57.13 -22.83 -54.52 22.64 0.12 11.47zm54.37 54.57l-83.18 -35.28 -0.53 -50.03 83.53 -34.68 86.35 34.5 0 48.91 -86.17 36.58z"/>
  <path class="fil0" d="M119.73 127.6c-0.65,3.55 -1.53,7.05 -2.41,10.55 -0.88,3.5 -1.88,6.97 -2.93,10.42 -2.1,6.91 -4.49,13.73 -7.11,20.5 -1.31,3.38 -2.71,6.72 -4.14,10.06 -1.4,3.35 -2.96,6.64 -4.53,9.93 -1.58,3.29 -3.19,6.57 -4.91,9.8 -1.75,3.22 -3.48,6.44 -5.37,9.61 -1.81,3.2 -3.81,6.31 -5.8,9.44 -2.06,3.07 -4.09,6.18 -6.31,9.2 -2.14,3.05 -4.53,5.96 -6.86,8.92 -2.44,2.89 -4.85,5.8 -7.49,8.57 -1.29,1.41 -2.61,2.79 -4.01,4.11 -1.39,1.33 -2.72,2.72 -4.17,4l-4.37 3.87c-1.49,1.26 -3.05,2.47 -4.59,3.7 -1.51,1.25 -3.19,2.34 -4.82,3.48 -1.63,1.15 -3.28,2.27 -5.03,3.28 -1.75,1.02 -3.41,2.14 -5.24,3.06l-5.47 2.79 8.29 -12.65c0.15,4.34 0.18,8.68 0.27,13.02l0.24 13.02 0.18 26.05 -16.8 -14.3 5.07 -0.93c1.74,-0.36 3.49,-0.66 5.22,-1.06 1.72,-0.4 3.47,-0.75 5.18,-1.17l5.1 -1.29c0.86,-0.21 1.66,-0.48 2.49,-0.72l2.47 -0.73 2.47 -0.72 2.33 -0.81 2.33 -0.79 1.17 -0.39 1.04 -0.45 4.14 -1.77 -4.71 4.05 1.38 -1.9c0.49,-0.66 0.99,-1.43 1.5,-2.14l2.99 -4.44c2.03,-2.96 3.92,-6.1 5.84,-9.18 1.84,-3.16 3.76,-6.27 5.53,-9.5 1.81,-3.2 3.66,-6.38 5.33,-9.67 1.72,-3.26 3.45,-6.53 5.06,-9.86 1.61,-3.33 3.38,-6.59 4.87,-9.99 1.51,-3.39 3.06,-6.76 4.65,-10.13l4.33 -10.3c1.52,-3.41 2.78,-6.93 4.15,-10.41 1.33,-3.5 2.77,-6.96 3.96,-10.52l3.74 -10.65c1.27,-3.54 2.29,-7.17 3.45,-10.77 1.11,-3.61 2.44,-7.21 3.34,-10.85l3.1 -10.95c1.19,-3.63 1.91,-7.44 2.93,-11.17 0.97,-3.74 1.89,-7.49 2.96,-11.22zm0 0c0.28,3.87 0.41,7.73 0.59,11.59 0.17,3.87 0.37,7.69 0.22,11.59l-0.4 11.71c-0.1,3.95 -0.56,7.78 -0.92,11.68 -0.43,3.87 -0.72,7.79 -1.28,11.65l-1.86 11.59c-0.53,3.9 -1.48,7.7 -2.29,11.54 -0.87,3.82 -1.57,7.71 -2.66,11.48l-3.11 11.39c-1.16,3.77 -2.38,7.51 -3.61,11.26 -1.19,3.77 -2.68,7.42 -4.01,11.15 -1.3,3.74 -2.93,7.34 -4.44,11.01 -1.49,3.67 -3.18,7.26 -4.84,10.88 -1.61,3.62 -3.55,7.12 -5.33,10.69 -1.91,3.52 -3.76,7.05 -5.84,10.54 -1,1.75 -2.05,3.5 -3.18,5.22 -0.56,0.87 -1.07,1.73 -1.69,2.62 -0.6,0.9 -1.12,1.71 -1.9,2.8l-1.94 2.71 -2.78 1.34 -6.14 2.95c-1.04,0.52 -2.04,0.93 -3.02,1.28l-2.97 1.14 -2.98 1.13c-0.99,0.35 -1.95,0.65 -2.94,0.95l-2.94 0.91c-0.98,0.29 -1.97,0.63 -2.94,0.87l-5.83 1.55c-1.95,0.51 -3.89,0.92 -5.83,1.39 -1.94,0.48 -3.9,0.85 -5.85,1.27l-2.95 0.58 -3.09 0.55 -16.93 2.96 0.12 -17.26 0.18 -26.05 0.24 -13.02c0.1,-4.34 0.13,-8.68 0.28,-13.02l0.31 -9.17 7.98 -3.48 4.14 -1.81c1.39,-0.57 2.72,-1.39 4.09,-2.05 1.38,-0.67 2.72,-1.47 4.05,-2.3 1.33,-0.81 2.69,-1.57 3.99,-2.5 1.31,-0.89 2.65,-1.74 3.96,-2.66l3.88 -2.89c1.3,-0.95 2.52,-2.05 3.79,-3.06 1.28,-1.01 2.51,-2.1 3.73,-3.21 2.52,-2.12 4.9,-4.44 7.33,-6.74 2.36,-2.39 4.73,-4.75 7.01,-7.26 2.35,-2.43 4.57,-5.01 6.84,-7.57 2.19,-2.62 4.41,-5.23 6.57,-7.92 2.2,-2.65 4.28,-5.41 6.39,-8.16 2.08,-2.77 4.2,-5.53 6.23,-8.37 2.03,-2.83 4.06,-5.69 6.06,-8.56 2.02,-2.87 3.95,-5.8 5.92,-8.73 3.92,-5.86 7.73,-11.81 11.48,-17.85 3.76,-6.04 7.5,-12.13 11.12,-18.35z"/>
  <path class="fil0" d="M205.94 162.59l0 134.04 -0.05 0.61c-4.11,48.52 69.2,100.66 93.29,117.8 0.22,0.15 0.43,0.31 0.65,0.47l54.94 -23.92 0.01 -33.86c-40.91,-28.19 -88.99,-116.3 -103.15,-214.52l-45.7 19.38zm89.98 286.24l-6.79 -5.26c-1.33,-1.03 -3.85,-2.82 -6.76,-4.89 -30.23,-21.5 -110.36,-78.5 -105.43,-143.24l0 -152.05 99.35 -42.12 1.89 19.69c10.22,106.7 64.66,199.01 97.66,215.67l7.97 4.03 -0.02 69.96 -87.86 38.23z"/>
  <path class="fil0" d="M264.63 127.6c3.61,6.23 7.35,12.31 11.11,18.35 3.76,6.03 7.57,11.99 11.48,17.85 1.97,2.93 3.9,5.86 5.92,8.73 2,2.88 4.02,5.73 6.05,8.56 2.03,2.83 4.15,5.6 6.23,8.37 2.11,2.74 4.19,5.5 6.39,8.15 2.16,2.69 4.38,5.29 6.57,7.92 2.26,2.55 4.48,5.14 6.83,7.57 2.28,2.51 4.66,4.87 7.01,7.26 2.42,2.29 4.81,4.61 7.33,6.74 1.22,1.12 2.45,2.2 3.73,3.21 1.27,1.02 2.49,2.11 3.79,3.06l3.87 2.89c1.31,0.92 2.65,1.77 3.96,2.66 1.3,0.93 2.65,1.69 3.99,2.5 1.33,0.83 2.66,1.63 4.04,2.3 1.37,0.67 2.7,1.48 4.1,2.05l4.14 1.81 7.98 3.49 0.31 9.16c0.15,4.34 0.18,8.68 0.28,13.02l0.24 13.02 0.18 26.05 0.12 17.26 -16.93 -2.96 -3.09 -0.55 -2.96 -0.58c-1.95,-0.43 -3.91,-0.79 -5.85,-1.27 -1.95,-0.47 -3.89,-0.88 -5.83,-1.39l-5.84 -1.55c-0.97,-0.24 -1.96,-0.58 -2.93,-0.87l-2.94 -0.91c-0.98,-0.31 -1.95,-0.61 -2.94,-0.95l-2.98 -1.13 -2.98 -1.14c-0.98,-0.35 -1.98,-0.77 -3.02,-1.28l-6.14 -2.95 -2.78 -1.34 -1.93 -2.71c-0.78,-1.09 -1.3,-1.9 -1.91,-2.8 -0.61,-0.89 -1.13,-1.75 -1.69,-2.62 -1.12,-1.73 -2.18,-3.47 -3.18,-5.22 -2.07,-3.49 -3.93,-7.02 -5.84,-10.54 -1.78,-3.57 -3.72,-7.07 -5.33,-10.69 -1.66,-3.61 -3.35,-7.21 -4.84,-10.88 -1.52,-3.66 -3.15,-7.27 -4.45,-11.01 -1.33,-3.73 -2.82,-7.38 -4,-11.15 -1.23,-3.75 -2.45,-7.49 -3.61,-11.26l-3.11 -11.39c-1.1,-3.77 -1.79,-7.66 -2.67,-11.48 -0.82,-3.84 -1.76,-7.64 -2.29,-11.54l-1.86 -11.59c-0.56,-3.86 -0.86,-7.78 -1.28,-11.65 -0.36,-3.9 -0.82,-7.73 -0.92,-11.68l-0.4 -11.71c-0.16,-3.9 0.05,-7.72 0.22,-11.59 0.19,-3.86 0.32,-7.72 0.59,-11.59zm0 0c1.07,3.73 1.98,7.48 2.95,11.22 1.02,3.73 1.75,7.54 2.93,11.17l3.1 10.95c0.9,3.64 2.23,7.24 3.34,10.85 1.16,3.6 2.17,7.22 3.45,10.77l3.74 10.65c1.19,3.55 2.64,7.02 3.96,10.52 1.38,3.48 2.63,7 4.15,10.41l4.34 10.3c1.58,3.38 3.14,6.74 4.65,10.13 1.48,3.4 3.26,6.66 4.87,9.99 1.61,3.33 3.34,6.6 5.06,9.86 1.67,3.29 3.52,6.47 5.33,9.67 1.76,3.22 3.68,6.33 5.52,9.5 1.93,3.09 3.82,6.22 5.84,9.18l2.99 4.44c0.5,0.72 1,1.48 1.5,2.14l1.38 1.9 -4.72 -4.05 4.14 1.77 1.03 0.45 1.17 0.39 2.34 0.79 2.33 0.81 2.47 0.72 2.47 0.73c0.83,0.23 1.63,0.5 2.48,0.72l5.11 1.29c1.71,0.42 3.46,0.77 5.18,1.17 1.73,0.4 3.47,0.7 5.21,1.06l5.07 0.93 -16.81 14.3 0.18 -26.05 0.24 -13.02c0.1,-4.34 0.13,-8.68 0.27,-13.02l8.3 12.65 -5.47 -2.79c-1.84,-0.92 -3.5,-2.04 -5.25,-3.06 -1.76,-1.01 -3.4,-2.13 -5.03,-3.28 -1.63,-1.14 -3.32,-2.23 -4.82,-3.48 -1.53,-1.23 -3.1,-2.44 -4.59,-3.7l-4.36 -3.87c-1.46,-1.29 -2.78,-2.67 -4.17,-4 -1.4,-1.33 -2.73,-2.71 -4.01,-4.11 -2.63,-2.77 -5.05,-5.69 -7.49,-8.57 -2.32,-2.96 -4.72,-5.86 -6.86,-8.92 -2.22,-3.02 -4.25,-6.13 -6.32,-9.2 -1.98,-3.13 -3.99,-6.23 -5.8,-9.44 -1.88,-3.17 -3.62,-6.4 -5.37,-9.61 -1.71,-3.23 -3.33,-6.51 -4.91,-9.8 -1.58,-3.29 -3.12,-6.58 -4.53,-9.93 -1.44,-3.34 -2.83,-6.69 -4.15,-10.06 -2.62,-6.76 -5.01,-13.58 -7.12,-20.5 -1.04,-3.45 -2.05,-6.92 -2.92,-10.42 -0.87,-3.5 -1.76,-7 -2.41,-10.55z"/>
  <path class="fil0" d="M29.02 391.59l54.93 23.9c0.11,-0.08 0.21,-0.15 0.33,-0.23 23.95,-17.14 96.84,-69.28 92.71,-118.03l-0.05 -0.65 0.86 -134.02 -45.64 -19.35c-14.16,98.22 -62.24,186.33 -103.15,214.52l0.01 33.86zm58.85 57.24l-87.85 -38.23 -0.02 -69.96 7.96 -4.03c32.99,-16.67 87.44,-108.97 97.66,-215.67l1.88 -19.69 99.41 42.15 -0.98 152.07c4.89,64.9 -74.75,121.87 -104.79,143.37 -2.79,2 -5.19,3.71 -6.49,4.72l-6.79 5.26z"/>
 </g>
</svg>
